{
.appVersion = "1342";
DisplayStrings = (
H,
"/SF110000"
);
copyright = "© 2000-2020 JetBrains s.r.o. Developed with drive and IntelliJ IDEA.";
customParameters = (
{
name = license;
value = "Licensed under the Apache License, Version 2.0";
},
{
name = licenseURL;
value = "http://www.apache.org/licenses/LICENSE-2.0";
},
{
name = trademark;
value = "JetBrains Mono is a trademark of JetBrains s.r.o.";
},
{
name = versionString;
value = "2.001";
},
{
name = vendorID;
value = JB;
},
{
name = fsType;
value = (
3
);
},
{
name = isFixedPitch;
value = 1;
},
{
name = "Use Typo Metrics";
value = 1;
},
{
name = "Enforce Compatibility Check";
value = 1;
},
{
name = "Family Alignment Zones";
value = (
"{830, 10}",
"{730, 10}",
"{550, 10}",
"{0, -10}",
"{-110, -10}",
"{-180, -10}"
);
},
{
name = variableStyleName;
value = Variable;
},
{
name = "Variable Font Origin";
value = "CCC0BD40-BA8C-414E-B576-CF0B94E6C996";
}
);
date = "2020-07-13 08:07:31 +0000";
designer = "Philipp Nurullin, Konstantin Bulenkov";
familyName = "JetBrains Mono";
featurePrefixes = (
{
code = "languagesystem DFLT dflt;\012languagesystem latn dflt;\012languagesystem cyrl dflt;\012";
name = Languagesystems;
}
);
features = (
{

glyphs = (
{
color = 7;
glyphname = A;
lastChange = "2020-07-02 13:32:54 +0000";
layers = (
{
hints = (
{
horizontal = 1;
origin = "{0, 7}";
target = up;
type = BottomGhost;
},
{
horizontal = 1;
origin = "{0, 1}";
target = "{1, 8}";
type = Stem;
},
{
horizontal = 1;
origin = "{0, 6}";
target = down;
type = TopGhost;
},
{
horizontal = 1;
origin = "{0, 6}";
target = "{1, 3}";
type = Stem;
}
);
layerId = "9ADF6715-3D0F-493D-8567-18A6FBCFC567";
paths = (
{
closed = 1;
nodes = (
"178 0 LINE",
"213 165 LINE",
"387 165 LINE",
"422 0 LINE",
"575 0 LINE",
"394 730 LINE",
"204 730 LINE",
"25 0 LINE"
);
},
{
closed = 1;
nodes = (
"275 462 LINE SMOOTH",
"289 531 OFFCURVE",
"300 595 OFFCURVE",
"300 595 CURVE",
"300 595 OFFCURVE",
"312 531 OFFCURVE",
"326 461 CURVE SMOOTH",
"361 285 LINE",
"238 285 LINE"
);
}
);
width = 600;
},
{
hints = (
{
horizontal = 1;
origin = "{0, 7}";
target = up;
type = BottomGhost;
},
{
horizontal = 1;
origin = "{0, 1}";
target = "{1, 8}";
type = Stem;
},
{
horizontal = 1;
origin = "{0, 6}";
target = "{1, 3}";
type = Stem;
}
);
layerId = "CCC0BD40-BA8C-414E-B576-CF0B94E6C996";
paths = (
{
closed = 1;
nodes = (
"142 0 LINE",
"190 194 LINE",
"411 194 LINE",
"459 0 LINE",
"550 0 LINE",
"361 730 LINE",
"240 730 LINE",
"50 0 LINE"
);
},
{
closed = 1;
nodes = (
"264 496 LINE SMOOTH",
"285 580 OFFCURVE",
"297 640 OFFCURVE",
"300 658 CURVE",
"303 640 OFFCURVE",
"315 580 OFFCURVE",
"336 495 CURVE SMOOTH",
"392 270 LINE",
"208 270 LINE"
);
}
);
width = 600;
},
{
hints = (
{
horizontal = 1;
origin = "{0, 7}";
target = up;
type = BottomGhost;
},
{
horizontal = 1;
origin = "{0, 1}";
target = "{1, 8}";
type = Stem;
},
{
horizontal = 1;
origin = "{0, 6}";
target = "{1, 3}";
type = Stem;
}
);
layerId = "EDF5EB54-295C-4C90-9A2F-67CD82979CFF";
paths = (
{
closed = 1;
nodes = (
"118 0 LINE",
"174 210 LINE",
"424 210 LINE",
"480 0 LINE",
"532 0 LINE",
"331 730 LINE",
"269 730 LINE",
"68 0 LINE"
);
},
{
closed = 1;
nodes = (
"266 550 LINE SMOOTH",
"285 622 OFFCURVE",
"297 673 OFFCURVE",
"300 688 CURVE",
"303 673 OFFCURVE",
"314 622 OFFCURVE",
"333 550 CURVE SMOOTH",
"412 255 LINE",
"186 255 LINE"
);
}
);
width = 600;
},
{
associatedMasterId = "CCC0BD40-BA8C-414E-B576-CF0B94E6C996";
hints = (
{
horizontal = 1;
place = "{202, 76}";
type = Stem;
},
{
horizontal = 1;
place = "{0, 21}";
type = Stem;
},
{
horizontal = 1;
place = "{730, -20}";
target = down;
type = TopGhost;
}
);
layerId = "309FA60F-7DB6-4528-ABBF-B2B7EC5E0C73";
name = "Jul 2 20, 16:29";
paths = (
{
closed = 1;
nodes = (
"142 0 LINE",
"192 202 LINE",
"409 202 LINE",
"459 0 LINE",
"550 0 LINE",
"361 730 LINE",
"240 730 LINE",
"50 0 LINE"
);
},
{
closed = 1;
nodes = (
"264 496 LINE SMOOTH",
"285 580 OFFCURVE",
"297 640 OFFCURVE",
"300 658 CURVE",
"303 640 OFFCURVE",
"315 580 OFFCURVE",
"336 495 CURVE SMOOTH",
"390 278 LINE",
"210 278 LINE"
);
}
);
width = 600;
},
{
associatedMasterId = "9ADF6715-3D0F-493D-8567-18A6FBCFC567";
hints = (
{
horizontal = 1;
place = "{175, 120}";
type = Stem;
},
{
horizontal = 1;
place = "{0, 21}";
target = up;
type = BottomGhost;
},
{
horizontal = 1;
place = "{730, -20}";
target = down;
type = TopGhost;
}
);
layerId = "5DE804B4-D3F3-4C03-9C95-DAD84FDA73DE";
name = "Jul 2 20, 16:30";
paths = (
{
closed = 1;
nodes = (
"178 0 LINE",
"215 175 LINE",
"385 175 LINE",
"422 0 LINE",
"575 0 LINE",
"394 730 LINE",
"204 730 LINE",
"25 0 LINE"
);
},
{
closed = 1;
nodes = (
"275 462 LINE SMOOTH",
"289 531 OFFCURVE",
"300 595 OFFCURVE",
"300 595 CURVE",
"300 595 OFFCURVE",
"312 531 OFFCURVE",
"326 461 CURVE SMOOTH",
"359 295 LINE",
"240 295 LINE"
);
}
);
width = 600;
},
{
associatedMasterId = "EDF5EB54-295C-4C90-9A2F-67CD82979CFF";
hints = (
{
horizontal = 1;
place = "{220, 45}";
type = Stem;
},
{
horizontal = 1;
place = "{0, 21}";
type = Stem;
},
{
horizontal = 1;
place = "{731, -20}";
target = down;
type = TopGhost;
}
);
layerId = "85C386AA-495A-4F1F-97FC-0CCB414B8D07";
name = "Jul 2 20, 16:31";
paths = (
{
closed = 1;
nodes = (
"118 0 LINE",
"177 220 LINE",
"421 220 LINE",
"480 0 LINE",
"532 0 LINE",
"331 730 LINE",
"269 730 LINE",
"68 0 LINE"
);
},
{
closed = 1;
nodes = (
"266 550 LINE SMOOTH",
"285 622 OFFCURVE",
"297 673 OFFCURVE",
"300 688 CURVE",
"303 673 OFFCURVE",
"314 622 OFFCURVE",
"333 550 CURVE SMOOTH",
"409 265 LINE",
"189 265 LINE"
);
}
);
visible = 1;
width = 600;
}
);
unicode = 0041;
},
{
glyphname = AE;
lastChange = "2020-06-19 10:30:00 +0000";
layers = (
{
layerId = "9ADF6715-3D0F-493D-8567-18A6FBCFC567";
paths = (
{
closed = 1;
nodes = (
"143 0 LINE",
"169 165 LINE",
"291 165 LINE",
"291 0 LINE",
"580 0 LINE",
"580 126 LINE",
"416 126 LINE",
"416 305 LINE",
"555 305 LINE",
"555 436 LINE",
"416 436 LINE",
"416 605 LINE",
"580 605 LINE",
"580 730 LINE",
"137 730 LINE",
"0 0 LINE"
);
},
{
closed = 1;
nodes = (
"242 605 LINE",
"291 605 LINE",
"291 270 LINE",
"186 270 LINE"
);
}
);
width = 600;
},
{
hints = (
{
place = "{300, 88}";
type = Stem;
},
{
place = "{300, 245}";
type = Stem;
},
{
horizontal = 1;
place = "{0, 82}";
type = Stem;
},
{
horizontal = 1;
place = "{203, 75}";
type = Stem;
},
{
horizontal = 1;
place = "{330, 82}";
type = Stem;
},
{
horizontal = 1;
place = "{638, 82}";
type = Stem;
}
);
layerId = "CCC0BD40-BA8C-414E-B576-CF0B94E6C996";
paths = (
{
closed = 1;
nodes = (
"121 0 LINE",
"161 203 LINE",
"302 203 LINE",
"302 0 LINE",
"570 0 LINE",
"570 82 LINE",
"388 82 LINE",
"388 338 LINE",
"545 338 LINE",
"545 420 LINE",
"388 420 LINE",
"388 648 LINE",
"570 648 LINE",
"570 730 LINE",
"175 730 LINE",
"30 0 LINE"
);
},
{
closed = 1;
nodes = (
"246 648 LINE",
"302 648 LINE",
"302 278 LINE",
"175 278 LINE"
);
}
);
width = 600;
},
{
layerId = "EDF5EB54-295C-4C90-9A2F-67CD82979CFF";
paths = (
{
closed = 1;
nodes = (
"84 0 LINE",
"140 215 LINE",
"310 215 LINE",
"310 0 LINE",
"569 0 LINE",
"569 45 LINE",
"360 45 LINE",
"360 357 LINE",
"533 357 LINE",
"533 402 LINE",
"360 402 LINE",
"360 685 LINE",
"569 685 LINE",
"569 730 LINE",
"222 730 LINE",
"34 0 LINE"
);
},
{
closed = 1;
nodes = (
"259 685 LINE",
"310 685 LINE",
"310 260 LINE",
"153 260 LINE"
);
}
);
width = 600;
}
);
unicode = 00C6;
},
{
glyphname = B;
lastChange = "2020-06-29 09:25:25 +0000";
layers = (
{
layerId = "9ADF6715-3D0F-493D-8567-18A6FBCFC567";
paths = (
{
closed = 1;
nodes = (
"310 0 LINE SMOOTH",
"463 0 OFFCURVE",
"560 83 OFFCURVE",
"560 211 CURVE SMOOTH",
"560 323 OFFCURVE",
"477 381 OFFCURVE",
"380 380 CURVE",
"380 383 LINE",
"468 383 OFFCURVE",
"544 446 OFFCURVE",
"544 543 CURVE SMOOTH",
"544 657 OFFCURVE",
"449 730 OFFCURVE",
"301 730 CURVE SMOOTH",
"66 730 LINE",
"66 0 LINE"
);
},
{
closed = 1;
nodes = (
"211 318 LINE",
"304 318 LINE SMOOTH",
"369.348 318 OFFCURVE",
"409 279.614 OFFCURVE",
"409 219 CURVE SMOOTH",
"409 158.167 OFFCURVE",
"369.179 121 OFFCURVE",
"304 121 CURVE SMOOTH",
"211 121 LINE"
);
},
{
closed = 1;
nodes = (
"211 609 LINE",
"299 609 LINE SMOOTH",
"357 609 OFFCURVE",
"393 577 OFFCURVE",
"393 523 CURVE SMOOTH",
"393 469 OFFCURVE",
"357 436 OFFCURVE",
"299 436 CURVE SMOOTH",
"211 436 LINE"
);
}
);
width = 600;
},
{
hints = (
{
place = "{90, 89}";
type = Stem;
},
{
place = "{424, 95}";
type = Stem;
},
{
place = "{437, 95}";
type = Stem;
},
{
horizontal = 1;
place = "{0, 82}";
type = Stem;
},
{
horizontal = 1;
place = "{330, 78}";
type = Stem;
},
{
horizontal = 1;
place = "{638, 82}";
type = Stem;
}
);
layerId = "CCC0BD40-BA8C-414E-B576-CF0B94E6C996";
paths = (
{
closed = 1;
nodes = (
"315 0 LINE SMOOTH",
"448 0 OFFCURVE",
"530 78 OFFCURVE",
"530 203 CURVE SMOOTH",
"530 319.88 OFFCURVE",
"454.847 395.033 OFFCURVE",
"340 393 CURVE",
"340 378 LINE",
"446.552 375.99 OFFCURVE",
"513 440 OFFCURVE",
"513 541 CURVE SMOOTH",
"513 659 OFFCURVE",
"433 730 OFFCURVE",
"300 730 CURVE SMOOTH",
"93 730 LINE",
"93 0 LINE"
);
},
{
closed = 1;
nodes = (
"181 341 LINE",
"305 341 LINE SMOOTH",
"389 341 OFFCURVE",
"441 286 OFFCURVE",
"441 206 CURVE SMOOTH",
"441 129 OFFCURVE",
"389 81 OFFCURVE",
"305 81 CURVE SMOOTH",
"181 81 LINE"
);
},
{
closed = 1;
nodes = (
"181 649 LINE",
"300 649 LINE SMOOTH",
"377 649 OFFCURVE",
"424 605 OFFCURVE",
"424 534 CURVE SMOOTH",
"424 463 OFFCURVE",
"376 419 OFFCURVE",
"299 419 CURVE SMOOTH",
"181 419 LINE"
);
}
);
width = 600;
},
{
layerId = "EDF5EB54-295C-4C90-9A2F-67CD82979CFF";
paths = (
{
closed = 1;
nodes = (
"301 0 LINE SMOOTH",
"433.037 0 OFFCURVE",
"516 78.175 OFFCURVE",
"516 200 CURVE SMOOTH",
"516 309.76 OFFCURVE",
"447.711 380 OFFCURVE",
"340 380 CURVE",
"340 370 LINE",
"436.6 370 OFFCURVE",
"498 439 OFFCURVE",
"498 542 CURVE SMOOTH",
"498 656 OFFCURVE",
"419 730 OFFCURVE",
"298 730 CURVE SMOOTH",
"110 730 LINE",
"110 0 LINE"
);
},
{
closed = 1;
nodes = (
"160 353 LINE",
"301 353 LINE SMOOTH",
"402.885 353 OFFCURVE",
"466 294.099 OFFCURVE",
"466 199.016 CURVE SMOOTH",
"466 103.917 OFFCURVE",
"402.881 45 OFFCURVE",
"301 45 CURVE SMOOTH",
"160 45 LINE"
);
},
{
closed = 1;
nodes = (
"160 685 LINE",
"298 685 LINE SMOOTH",
"391 685 OFFCURVE",
"448 630 OFFCURVE",
"448 541 CURVE SMOOTH",
"448 452 OFFCURVE",
"392 398 OFFCURVE",
"298 398 CURVE SMOOTH",
"160 398 LINE"
);
}
);
width = 600;
},
{
associatedMasterId = "9ADF6715-3D0F-493D-8567-18A6FBCFC567";
layerId = "3165981C-D5F0-46A4-A063-AEFD813D3A97";
name = "Jun 19 20, 19:05";
paths = (
{
closed = 1;
nodes = (
"310 0 LINE SMOOTH",
"463 0 OFFCURVE",
"560 83 OFFCURVE",
"560 211 CURVE SMOOTH",
"560 323 OFFCURVE",
"477 395 OFFCURVE",
"350 393 CURVE",
"350 383 LINE",
"468 383 OFFCURVE",
"544 446 OFFCURVE",
"544 543 CURVE SMOOTH",
"544 657 OFFCURVE",
"449 730 OFFCURVE",
"301 730 CURVE SMOOTH",
"66 730 LINE",
"66 0 LINE"
);
},
{
closed = 1;
nodes = (
"211 318 LINE",
"304 318 LINE SMOOTH",
"369.348 318 OFFCURVE",
"409 279.614 OFFCURVE",
"409 219 CURVE SMOOTH",
"409 158.167 OFFCURVE",
"369.179 121 OFFCURVE",
"304 121 CURVE SMOOTH",
"211 121 LINE"
);
},
{
closed = 1;
nodes = (
"211 609 LINE",
"299 609 LINE SMOOTH",
"357 609 OFFCURVE",
"393 577 OFFCURVE",
"393 523 CURVE SMOOTH",
"393 469 OFFCURVE",
"357 436 OFFCURVE",
"299 436 CURVE SMOOTH",
"211 436 LINE"
);
}
);
width = 600;
}
);
unicode = 0042;
},
{
glyphname = C;
lastChange = "2020-06-26 18:24:08 +0000";
layers = (
{
layerId = "9ADF6715-3D0F-493D-8567-18A6FBCFC567";
paths = (
{
closed = 1;
nodes = (
"451.342 -10 OFFCURVE",
"548 77.15 OFFCURVE",
"548 210 CURVE",
"398 210 LINE",
"398 152.151 OFFCURVE",
"363.9 120 OFFCURVE",
"304 120 CURVE SMOOTH",
"243.874 120 OFFCURVE",
"210 152.432 OFFCURVE",
"210 210 CURVE SMOOTH",
"210 520 LINE SMOOTH",
"210 578.079 OFFCURVE",
"244.34 610 OFFCURVE",
"304 610 CURVE SMOOTH",
"364.16 610 OFFCURVE",
"398 577.6 OFFCURVE",
"398 520 CURVE",
"548 520 LINE",
"548 652.696 OFFCURVE",
"451.172 740 OFFCURVE",
"304 740 CURVE SMOOTH",
"156.988 740 OFFCURVE",
"60 652.552 OFFCURVE",
"60 520 CURVE SMOOTH",
"60 210 LINE SMOOTH",
"60 77.704 OFFCURVE",
"156.67 -10 OFFCURVE",
"304 -10 CURVE SMOOTH"
);
}
);
width = 600;
},
{
hints = (
{
place = "{86, 90}";
type = Stem;
},
{
horizontal = 1;
place = "{-10, 80}";
type = Stem;
},
{
horizontal = 1;
place = "{650, 80}";
type = Stem;
}
);
layerId = "CCC0BD40-BA8C-414E-B576-CF0B94E6C996";
paths = (
{
closed = 1;
nodes = (
"434.715 -10 OFFCURVE",
"518 71 OFFCURVE",
"518 200 CURVE",
"428 200 LINE",
"428 117 OFFCURVE",
"381.64 70 OFFCURVE",
"304 70 CURVE SMOOTH",
"225.123 70 OFFCURVE",
"178 117 OFFCURVE",
"178 200 CURVE SMOOTH",
"178 531 LINE SMOOTH",
"178 613 OFFCURVE",
"224.88 660 OFFCURVE",
"304 660 CURVE SMOOTH",
"382.121 660 OFFCURVE",
"428 613 OFFCURVE",
"428 530 CURVE",
"518 530 LINE",
"518 659 OFFCURVE",
"434.715 740 OFFCURVE",
"304 740 CURVE SMOOTH",
"170.677 740 OFFCURVE",
"88 661 OFFCURVE",
"88 530 CURVE SMOOTH",
"88 200 LINE SMOOTH",
"88 69 OFFCURVE",
"171.007 -10 OFFCURVE",
"304 -10 CURVE SMOOTH"
);
}
);
width = 600;
},
{
guideLines = (
{
position = "{0, -10}";
}
);
layerId = "EDF5EB54-295C-4C90-9A2F-67CD82979CFF";
paths = (
{
closed = 1;
nodes = (
"430.158 -10 OFFCURVE",
"510 72.191 OFFCURVE",
"510 200 CURVE",
"460 200 LINE",
"460 97.599 OFFCURVE",
"401.574 35 OFFCURVE",
"306 35 CURVE SMOOTH",
"212.248 35 OFFCURVE",
"155 93.764 OFFCURVE",
"155 190 CURVE SMOOTH",
"155 540 LINE SMOOTH",
"155 635.723 OFFCURVE",
"212.747 695 OFFCURVE",
"306 695 CURVE SMOOTH",
"400.793 695 OFFCURVE",
"460 631.564 OFFCURVE",
"460 530 CURVE",
"510 530 LINE",
"510 657.96 OFFCURVE",
"430.011 740 OFFCURVE",
"306 740 CURVE SMOOTH",
"183.707 740 OFFCURVE",
"105 661.684 OFFCURVE",
"105 540 CURVE SMOOTH",
"105 190 LINE SMOOTH",
"105 69.288 OFFCURVE",
"183.685 -10 OFFCURVE",
"306 -10 CURVE SMOOTH"
);
}
);
width = 600;
}
);
unicode = 0043;
},
{
glyphname = D;
lastChange = "2020-06-26 18:22:20 +0000";
layers = (
{
layerId = "9ADF6715-3D0F-493D-8567-18A6FBCFC567";
paths = (
{
closed = 1;
nodes = (
"300 0 LINE SMOOTH",
"451 0 OFFCURVE",
"552 94 OFFCURVE",
"552 235 CURVE SMOOTH",
"552 496 LINE SMOOTH",
"552 637 OFFCURVE",
"451 730 OFFCURVE",
"300 730 CURVE SMOOTH",
"63 730 LINE",
"63 0 LINE"
);
},
{
closed = 1;
nodes = (
"213 590 LINE",
"300 590 LINE SMOOTH",
"361 590 OFFCURVE",
"402 552 OFFCURVE",
"402 496 CURVE SMOOTH",
"402 235 LINE SMOOTH",
"402 178 OFFCURVE",
"361 140 OFFCURVE",
"300 140 CURVE SMOOTH",
"213 140 LINE"
);
}
);
width = 600;
},
{
associatedMasterId = "EDF5EB54-295C-4C90-9A2F-67CD82979CFF";
layerId = "040298CF-5572-47E8-A6B5-8878BEE70FAE";
name = public.background;
paths = (
{
closed = 1;
nodes = (
"178 80 LINE",
"178 640 LINE",
"289 640 LINE SMOOTH",
"373 640 OFFCURVE",
"429 584 OFFCURVE",
"429 501 CURVE SMOOTH",
"429 220 LINE SMOOTH",
"429 136 OFFCURVE",
"373 80 OFFCURVE",
"289 80 CURVE SMOOTH"
);
},
{
closed = 1;
nodes = (
"88 0 LINE",
"289 0 LINE SMOOTH",
"428 0 OFFCURVE",
"520 88 OFFCURVE",
"520 220 CURVE SMOOTH",
"520 501 LINE SMOOTH",
"520 632 OFFCURVE",
"428 720 OFFCURVE",
"289 720 CURVE SMOOTH",
"88 720 LINE"
);
}
);
width = 600;
},
{
hints = (
{
place = "{88, 90}";
type = Stem;
},
{
place = "{429, 91}";
type = Stem;
},
{
horizontal = 1;
place = "{0, 80}";
type = Stem;
},
{
horizontal = 1;
place = "{640, 80}";
type = Stem;
}
);
layerId = "CCC0BD40-BA8C-414E-B576-CF0B94E6C996";
paths = (
{
closed = 1;
nodes = (
"281 0 LINE SMOOTH",
"422 0 OFFCURVE",
"512 86 OFFCURVE",
"512 220 CURVE SMOOTH",
"512 511 LINE SMOOTH",
"512 644 OFFCURVE",
"422 730 OFFCURVE",
"281 730 CURVE SMOOTH",
"92 730 LINE",
"92 0 LINE"
);
},
{
closed = 1;
nodes = (
"182 650 LINE",
"281 650 LINE SMOOTH",
"369 650 OFFCURVE",
"422 598 OFFCURVE",
"422 511 CURVE SMOOTH",
"422 220 LINE SMOOTH",
"422 132 OFFCURVE",
"369 80 OFFCURVE",
"281 80 CURVE SMOOTH",
"182 80 LINE"
);
}
);
width = 600;
},
{
layerId = "EDF5EB54-295C-4C90-9A2F-67CD82979CFF";
paths = (
{
closed = 1;
nodes = (
"270 0 LINE SMOOTH",
"404.645 0 OFFCURVE",
"495 88.347 OFFCURVE",
"495 220 CURVE SMOOTH",
"495 510 LINE SMOOTH",
"495 641.656 OFFCURVE",
"404.648 730 OFFCURVE",
"270 730 CURVE SMOOTH",
"110 730 LINE",
"110 0 LINE"
);
},
{
closed = 1;
nodes = (
"160 685 LINE",
"270 685 LINE SMOOTH",
"374.25 685 OFFCURVE",
"445 614.25 OFFCURVE",
"445 510 CURVE SMOOTH",
"445 220 LINE SMOOTH",
"445 115 OFFCURVE",
"375 45 OFFCURVE",
"270 45 CURVE SMOOTH",
"160 45 LINE"
);
}
);
width = 600;
}
);
unicode = 0044;
},
{
glyphname = Dcroat;
lastChange = "2020-07-09 14:04:54 +0000";
layers = (
{
components = (
{
alignment = -1;
name = D;
}
);
layerId = "9ADF6715-3D0F-493D-8567-18A6FBCFC567";
paths = (
{
closed = 1;
nodes = (
"300 290 LINE",
"300 425 LINE",
"20 425 LINE",
"20 290 LINE"
);
}
);
width = 600;
},
{
components = (
{
alignment = -1;
name = D;
}
);
hints = (
{
place = "{88, 90}";
type = Stem;
},
{
place = "{429, 91}";
type = Stem;
},
{
horizontal = 1;
place = "{0, 80}";
type = Stem;
},
{
horizontal = 1;
place = "{640, 80}";
type = Stem;
}
);
layerId = "CCC0BD40-BA8C-414E-B576-CF0B94E6C996";
paths = (
{
closed = 1;
nodes = (
"300 320 LINE",
"300 395 LINE",
"35 395 LINE",
"35 320 LINE"
);
}
);
width = 600;
},
{
components = (
{
alignment = -1;
name = D;
}
);
layerId = "EDF5EB54-295C-4C90-9A2F-67CD82979CFF";
paths = (
{
closed = 1;
nodes = (
"290 335 LINE",
"290 380 LINE",
"45 380 LINE",
"45 335 LINE"
);
}
);
width = 600;
}
);
unicode = 0110;
},
{
glyphname = E;
lastChange = "2020-06-19 15:30:52 +0000";
layers = (
{
layerId = "9ADF6715-3D0F-493D-8567-18A6FBCFC567";
paths = (
{
closed = 1;
nodes = (
"530 0 LINE",
"530 128 LINE",
"227 128 LINE",
"227 310 LINE",
"495 310 LINE",
"495 438 LINE",
"227 438 LINE",
"227 602 LINE",
"530 602 LINE",
"530 730 LINE",
"80 730 LINE",
"80 0 LINE"
);
}
);
width = 600;
},
{
hints = (
{
place = "{95, 90}";
type = Stem;
},
{
horizontal = 1;
place = "{0, 82}";
type = Stem;
},
{
horizontal = 1;
place = "{330, 82}";
type = Stem;
},
{
horizontal = 1;
place = "{638, 82}";
type = Stem;
}
);
layerId = "CCC0BD40-BA8C-414E-B576-CF0B94E6C996";
paths = (
{
closed = 1;
nodes = (
"520 0 LINE",
"520 81 LINE",
"189 81 LINE",
"189 341 LINE",
"485 341 LINE",
"485 422 LINE",
"189 422 LINE",
"189 649 LINE",
"520 649 LINE",
"520 730 LINE",
"100 730 LINE",
"100 0 LINE"
);
}
);
width = 600;
},
{
layerId = "EDF5EB54-295C-4C90-9A2F-67CD82979CFF";
paths = (
{
closed = 1;
nodes = (
"510 0 LINE",
"510 45 LINE",
"170 45 LINE",
"170 358 LINE",
"475 358 LINE",
"475 403 LINE",
"170 403 LINE",
"170 685 LINE",
"510 685 LINE",
"510 730 LINE",
"120 730 LINE",
"120 0 LINE"
);
}
);
width = 600;
}
);
unicode = 0045;
},
{
glyphname = F;
lastChange = "2020-06-19 10:30:00 +0000";
layers = (
{
layerId = "9ADF6715-3D0F-493D-8567-18A6FBCFC567";
paths = (
{
closed = 1;
nodes = (
"220 0 LINE",
"220 288 LINE",
"514 288 LINE",
"514 428 LINE",
"218 428 LINE",
"218 590 LINE",
"540 590 LINE",
"540 730 LINE",
"70 730 LINE",
"70 0 LINE"
);
}
);
width = 600;
},
{
hints = (
{
place = "{95, 90}";
type = Stem;
},
{
horizontal = 1;
place = "{328, 80}";
type = Stem;
},
{
horizontal = 1;
place = "{641, 80}";
type = Stem;
},
{
horizontal = 1;
place = "{0, 21}";
target = up;
type = BottomGhost;
}
);
layerId = "CCC0BD40-BA8C-414E-B576-CF0B94E6C996";
paths = (
{
closed = 1;
nodes = (
"185 0 LINE",
"185 323 LINE",
"499 323 LINE",
"499 405 LINE",
"183 405 LINE",
"183 649 LINE",
"525 649 LINE",
"525 731 LINE",
"95 731 LINE",
"95 0 LINE"
);
}
);
width = 600;
},
{
layerId = "EDF5EB54-295C-4C90-9A2F-67CD82979CFF";
paths = (
{
closed = 1;
nodes = (
"165 0 LINE",
"165 347 LINE",
"490 347 LINE",
"490 392 LINE",
"165 392 LINE",
"165 685 LINE",
"525 685 LINE",
"525 730 LINE",
"115 730 LINE",
"115 0 LINE"
);
}
);
width = 600;
}
);
unicode = 0046;
},
{
glyphname = G;
lastChange = "2020-06-26 18:24:22 +0000";
layers = (
{
hints = (
{
place = "{48, 150}";
type = Stem;
},
{
place = "{398, 150}";
type = Stem;
},
{
horizontal = 1;
place = "{-10, 131}";
type = Stem;
},
{
horizontal = 1;
place = "{590, 135}";
type = Stem;
},
{
horizontal = 1;
place = "{273, 127}";
type = Stem;
}
);
layerId = "9ADF6715-3D0F-493D-8567-18A6FBCFC567";
paths = (
{
closed = 1;
nodes = (
"451.342 -10 OFFCURVE",
"548 77.15 OFFCURVE",
"548 210 CURVE SMOOTH",
"548 400 LINE",
"290 400 LINE",
"290 273 LINE",
"398 273 LINE",
"398 210 LINE SMOOTH",
"398 152.151 OFFCURVE",
"363.9 120 OFFCURVE",
"304 120 CURVE SMOOTH",
"243.874 120 OFFCURVE",
"210 152.432 OFFCURVE",
"210 210 CURVE SMOOTH",
"210 520 LINE SMOOTH",
"210 578.079 OFFCURVE",
"244.34 610 OFFCURVE",
"304 610 CURVE SMOOTH",
"364.16 610 OFFCURVE",
"398 577.6 OFFCURVE",
"398 520 CURVE",
"548 520 LINE",
"548 652.696 OFFCURVE",
"451.172 740 OFFCURVE",
"304 740 CURVE SMOOTH",
"156.988 740 OFFCURVE",
"60 652.552 OFFCURVE",
"60 520 CURVE SMOOTH",
"60 210 LINE SMOOTH",
"60 77.704 OFFCURVE",
"156.67 -10 OFFCURVE",
"304 -10 CURVE SMOOTH"
);
}
);
width = 600;
},
{
hints = (
{
place = "{80, 90}";
type = Stem;
},
{
place = "{430, 90}";
type = Stem;
},
{
horizontal = 1;
place = "{-10, 80}";
type = Stem;
},
{
horizontal = 1;
place = "{650, 80}";
type = Stem;
},
{
horizontal = 1;
place = "{290, 80}";
type = Stem;
}
);
layerId = "CCC0BD40-BA8C-414E-B576-CF0B94E6C996";
paths = (
{
closed = 1;
nodes = (
"434.715 -10 OFFCURVE",
"518 71 OFFCURVE",
"518 200 CURVE SMOOTH",
"518 370 LINE",
"280 370 LINE",
"280 290 LINE",
"428 290 LINE",
"428 200 LINE SMOOTH",
"428 117 OFFCURVE",
"381.64 70 OFFCURVE",
"304 70 CURVE SMOOTH",
"225.123 70 OFFCURVE",
"178 117 OFFCURVE",
"178 200 CURVE SMOOTH",
"178 531 LINE SMOOTH",
"178 613 OFFCURVE",
"224.88 660 OFFCURVE",
"304 660 CURVE SMOOTH",
"382.121 660 OFFCURVE",
"428 613 OFFCURVE",
"428 530 CURVE",
"518 530 LINE",
"518 659 OFFCURVE",
"434.715 740 OFFCURVE",
"304 740 CURVE SMOOTH",
"170.677 740 OFFCURVE",
"88 661 OFFCURVE",
"88 530 CURVE SMOOTH",
"88 200 LINE SMOOTH",
"88 69 OFFCURVE",
"171.007 -10 OFFCURVE",
"304 -10 CURVE SMOOTH"
);
}
);
width = 600;
},
{
layerId = "EDF5EB54-295C-4C90-9A2F-67CD82979CFF";
paths = (
{
closed = 1;
nodes = (
"430.158 -10 OFFCURVE",
"510 72.191 OFFCURVE",
"510 200 CURVE SMOOTH",
"510 355 LINE",
"287 355 LINE",
"287 310 LINE",
"460 310 LINE",
"460 200 LINE SMOOTH",
"460 97.599 OFFCURVE",
"401.574 35 OFFCURVE",
"306 35 CURVE SMOOTH",
"212.248 35 OFFCURVE",
"155 93.764 OFFCURVE",
"155 190 CURVE SMOOTH",
"155 540 LINE SMOOTH",
"155 635.723 OFFCURVE",
"212.747 695 OFFCURVE",
"306 695 CURVE SMOOTH",
"400.793 695 OFFCURVE",
"460 631.564 OFFCURVE",
"460 530 CURVE",
"510 530 LINE",
"510 657.96 OFFCURVE",
"430.011 740 OFFCURVE",
"306 740 CURVE SMOOTH",
"183.707 740 OFFCURVE",
"105 661.684 OFFCURVE",
"105 540 CURVE SMOOTH",
"105 190 LINE SMOOTH",
"105 69.288 OFFCURVE",
"183.685 -10 OFFCURVE",
"306 -10 CURVE SMOOTH"
);
}
);
width = 600;
}
);
unicode = 0047;
},
{
glyphname = H;
lastChange = "2020-07-02 13:27:58 +0000";
layers = (
{
hints = (
{
place = "{66, 150}";
type = Stem;
},
{
place = "{384, 150}";
type = Stem;
},
{
horizontal = 1;
place = "{310, 140}";
type = Stem;
},
{
horizontal = 1;
place = "{730, -20}";
target = down;
type = TopGhost;
},
{
horizontal = 1;
place = "{0, 21}";
target = up;
type = BottomGhost;
}
);
layerId = "9ADF6715-3D0F-493D-8567-18A6FBCFC567";
paths = (
{
closed = 1;
nodes = (
"216 0 LINE",
"216 310 LINE",
"384 310 LINE",
"384 0 LINE",
"534 0 LINE",
"534 730 LINE",
"384 730 LINE",
"384 450 LINE",
"216 450 LINE",
"216 730 LINE",
"66 730 LINE",
"66 0 LINE"
);
}
);
width = 600;
},
{
hints = (
{
place = "{94, 90}";
type = Stem;
},
{
place = "{416, 90}";
type = Stem;
},
{
horizontal = 1;
place = "{336, 82}";
type = Stem;
},
{
horizontal = 1;
place = "{730, -20}";
target = down;
type = TopGhost;
},
{
horizontal = 1;
place = "{0, 21}";
target = up;
type = BottomGhost;
}
);
layerId = "CCC0BD40-BA8C-414E-B576-CF0B94E6C996";
paths = (
{
closed = 1;
nodes = (
"183 0 LINE",
"183 336 LINE",
"417 336 LINE",
"417 0 LINE",
"507 0 LINE",
"507 730 LINE",
"417 730 LINE",
"417 418 LINE",
"183 418 LINE",
"183 730 LINE",
"93 730 LINE",
"93 0 LINE"
);
}
);
width = 600;
},
{
layerId = "EDF5EB54-295C-4C90-9A2F-67CD82979CFF";
paths = (
{
closed = 1;
nodes = (
"160 0 LINE",
"160 356 LINE",
"440 356 LINE",
"440 0 LINE",
"490 0 LINE",
"490 730 LINE",
"440 730 LINE",
"440 401 LINE",
"160 401 LINE",
"160 730 LINE",
"110 730 LINE",
"110 0 LINE"
);
}
);
width = 600;
}
);
unicode = 0048;
},
{
glyphname = Hbar;
lastChange = "2020-07-02 13:33:11 +0000";
layers = (
{
components = (
{
alignment = -1;
name = H;
}
);
layerId = "9ADF6715-3D0F-493D-8567-18A6FBCFC567";
paths = (
{
closed = 1;
nodes = (
"590 525 LINE",
"590 620 LINE",
"10 620 LINE",
"10 525 LINE"
);
}
);
width = 600;
},
{
components = (
{
alignment = -1;
name = H;
}
);
hints = (
{
place = "{90, 90}";
type = Stem;
},
{
place = "{420, 90}";
type = Stem;
},
{
horizontal = 1;
place = "{334, 82}";
type = Stem;
},
{
horizontal = 1;
place = "{720, -20}";
target = down;
type = TopGhost;
},
{
horizontal = 1;
place = "{0, 21}";
target = up;
type = BottomGhost;
}
);
layerId = "CCC0BD40-BA8C-414E-B576-CF0B94E6C996";
paths = (
{
closed = 1;
nodes = (
"590 525 LINE",
"590 600 LINE",
"10 600 LINE",
"10 525 LINE"
);
}
);
width = 600;
},
{
components = (
{
alignment = -1;
name = H;
}
);
layerId = "EDF5EB54-295C-4C90-9A2F-67CD82979CFF";
paths = (
{
closed = 1;
nodes = (
"590 540 LINE",
"590 584 LINE",
"10 584 LINE",
"10 540 LINE"
);
}
);
width = 600;
}
);
unicode = 0126;
},
{
glyphname = I;
lastChange = "2020-07-09 14:04:29 +0000";
layers = (
{
layerId = "9ADF6715-3D0F-493D-8567-18A6FBCFC567";
paths = (
{
closed = 1;
nodes = (
"520 0 LINE",
"520 130 LINE",
"375 130 LINE",
"375 600 LINE",
"520 600 LINE",
"520 730 LINE",
"80 730 LINE",
"80 600 LINE",
"225 600 LINE",
"225 130 LINE",
"80 130 LINE",
"80 0 LINE"
);
}
);
width = 600;
},
{
hints = (
{
place = "{254, 92}";
type = Stem;
},
{
horizontal = 1;
place = "{0, 79}";
type = Stem;
},
{
horizontal = 1;
place = "{641, 79}";
type = Stem;
}
);
layerId = "CCC0BD40-BA8C-414E-B576-CF0B94E6C996";
paths = (
{
closed = 1;
nodes = (
"495 0 LINE",
"495 81 LINE",
"346 81 LINE",
"346 649 LINE",
"495 649 LINE",
"495 730 LINE",
"105 730 LINE",
"105 649 LINE",
"254 649 LINE",
"254 81 LINE",
"105 81 LINE",
"105 0 LINE"
);
}
);
width = 600;
},
{
layerId = "EDF5EB54-295C-4C90-9A2F-67CD82979CFF";
paths = (
{
closed = 1;
nodes = (
"480 0 LINE",
"480 45 LINE",
"326 45 LINE",
"326 686 LINE",
"480 686 LINE",
"480 731 LINE",
"120 731 LINE",
"120 686 LINE",
"276 686 LINE",
"276 45 LINE",
"120 45 LINE",
"120 0 LINE"
);
}
);
width = 600;
}
);
unicode = 0049;
},
{
color = 1;
glyphname = IJ;
lastChange = "2020-06-19 10:37:10 +0000";
layers = (
{
layerId = "9ADF6715-3D0F-493D-8567-18A6FBCFC567";
paths = (
{
closed = 1;
nodes = (
"305 0 LINE SMOOTH",
"465 0 OFFCURVE",
"555 81 OFFCURVE",
"555 224 CURVE SMOOTH",
"555 720 LINE",
"265 720 LINE",
"265 580 LINE",
"405 580 LINE",
"405 224 LINE SMOOTH",
"405 164 OFFCURVE",
"369 130 OFFCURVE",
"305 130 CURVE SMOOTH",
"255 130 LINE",
"255 0 LINE"
);
},
{
closed = 1;
nodes = (
"195 0 LINE",
"195 720 LINE",
"45 720 LINE",
"45 0 LINE"
);
}
);
width = 600;
},
{
hints = (
{
place = "{70, 92}";
type = Stem;
},
{
place = "{300, 235}";
type = Stem;
},
{
place = "{445, 90}";
type = Stem;
},
{
horizontal = 1;
place = "{0, 80}";
type = Stem;
},
{
horizontal = 1;
place = "{640, 80}";
type = Stem;
}
);
layerId = "CCC0BD40-BA8C-414E-B576-CF0B94E6C996";
paths = (
{
closed = 1;
nodes = (
"320 0 LINE SMOOTH",
"457 0 OFFCURVE",
"535 72 OFFCURVE",
"535 201 CURVE SMOOTH",
"535 720 LINE",
"300 720 LINE",
"300 640 LINE",
"445 640 LINE",
"445 201 LINE SMOOTH",
"445 124 OFFCURVE",
"400 80 OFFCURVE",
"320 80 CURVE SMOOTH",
"260 80 LINE",
"260 0 LINE"
);
},
{
closed = 1;
nodes = (
"162 0 LINE",
"162 720 LINE",
"70 720 LINE",
"70 0 LINE"
);
}
);
width = 600;
},
{
layerId = "EDF5EB54-295C-4C90-9A2F-67CD82979CFF";
paths = (
{
closed = 1;
nodes = (
"310 0 LINE SMOOTH",
"450 0 OFFCURVE",
"535 87 OFFCURVE",
"535 230 CURVE SMOOTH",
"535 720 LINE",
"310 720 LINE",
"310 670 LINE",
"480 670 LINE",
"480 230 LINE SMOOTH",
"480 117 OFFCURVE",
"416 50 OFFCURVE",
"310 50 CURVE SMOOTH",
"255 50 LINE",
"255 0 LINE"
);
},
{
closed = 1;
nodes = (
"157 0 LINE",
"157 720 LINE",
"102 720 LINE",
"102 0 LINE"
);
}
);
width = 600;
}
);
unicode = 0132;
},
{
color = 7;
glyphname = J;
lastChange = "2020-07-09 09:33:52 +0000";
layers = (
{
layerId = "9ADF6715-3D0F-493D-8567-18A6FBCFC567";
paths = (
{
closed = 1;
nodes = (
"424 -11 OFFCURVE",
"520 77 OFFCURVE",
"520 218 CURVE SMOOTH",
"520 730 LINE",
"205 730 LINE",
"205 590 LINE",
"370 590 LINE",
"370 218 LINE SMOOTH",
"370 157 OFFCURVE",
"331 119 OFFCURVE",
"270 119 CURVE SMOOTH",
"208.319 119 OFFCURVE",
"170 157.703 OFFCURVE",
"170 220 CURVE",
"20 220 LINE",
"20 78 OFFCURVE",
"116 -11 OFFCURVE",
"270 -11 CURVE SMOOTH"
);
}
);
width = 600;
},
{
layerId = "CCC0BD40-BA8C-414E-B576-CF0B94E6C996";
paths = (
{
closed = 1;
nodes = (
"408.532 -10 OFFCURVE",
"495 73.546 OFFCURVE",
"495 210 CURVE SMOOTH",
"495 730 LINE",
"230 730 LINE",
"230 648 LINE",
"405 648 LINE",
"405 210 LINE SMOOTH",
"405 121.372 OFFCURVE",
"355.463 70 OFFCURVE",
"270 70 CURVE SMOOTH",
"184.537 70 OFFCURVE",
"135 121.372 OFFCURVE",
"135 210 CURVE",
"45 210 LINE",
"45 73.558 OFFCURVE",
"130.457 -10 OFFCURVE",
"270 -10 CURVE SMOOTH"
);
}
);
width = 600;
},
{
layerId = "EDF5EB54-295C-4C90-9A2F-67CD82979CFF";
paths = (
{
closed = 1;
nodes = (
"402.304 -10 OFFCURVE",
"480 69.212 OFFCURVE",
"480 199 CURVE SMOOTH",
"480 730 LINE",
"243 730 LINE",
"243 680 LINE",
"430 680 LINE",
"430 199 LINE SMOOTH",
"430 97.72 OFFCURVE",
"370.722 35 OFFCURVE",
"275 35 CURVE SMOOTH",
"178.606 35 OFFCURVE",
"120 97.387 OFFCURVE",
"120 200 CURVE",
"70 200 LINE",
"70 69.007 OFFCURVE",
"147.126 -10 OFFCURVE",
"275 -10 CURVE SMOOTH"
);
}
);
width = 600;
},
{
associatedMasterId = "CCC0BD40-BA8C-414E-B576-CF0B94E6C996";
layerId = "9E6AE0C1-B254-4663-BE41-89045E845974";
name = "Jun 26 20, 21:20";
paths = (
{
closed = 1;
nodes = (
"408.532 -10 OFFCURVE",
"495 73.546 OFFCURVE",
"495 210 CURVE SMOOTH",
"495 730 LINE",
"165 730 LINE",
"165 648 LINE",
"405 648 LINE",
"405 210 LINE SMOOTH",
"405 121.372 OFFCURVE",
"355.463 70 OFFCURVE",
"270 70 CURVE SMOOTH",
"184.537 70 OFFCURVE",
"135 121.372 OFFCURVE",
"135 210 CURVE",
"45 210 LINE",
"45 73.558 OFFCURVE",
"130.457 -10 OFFCURVE",
"270 -10 CURVE SMOOTH"
);
}
);
width = 600;
}
);
unicode = 004A;
},
{
glyphname = K;
lastChange = "2020-07-02 10:20:21 +0000";
layers = (
{
layerId = "9ADF6715-3D0F-493D-8567-18A6FBCFC567";
paths = (
{
closed = 1;
nodes = (
"215 0 LINE",
"215 309 LINE",
"286 309 LINE",
"410 0 LINE",
"575 0 LINE",
"419 381 LINE",
"569 730 LINE",
"406 730 LINE",
"286 447 LINE",
"215 447 LINE",
"215 730 LINE",
"65 730 LINE",
"65 0 LINE"
);
}
);
width = 600;
},
{
hints = (
{
place = "{90, 90}";
type = Stem;
},
{
horizontal = 1;
place = "{335, 79}";
type = Stem;
},
{
horizontal = 1;
place = "{720, -20}";
target = down;
type = TopGhost;
},
{
horizontal = 1;
place = "{0, 21}";
target = up;
type = BottomGhost;
}
);
layerId = "CCC0BD40-BA8C-414E-B576-CF0B94E6C996";
paths = (
{
closed = 1;
nodes = (
"182 0 LINE",
"182 338 LINE",
"287 338 LINE",
"457 0 LINE",
"560 0 LINE",
"369 379 LINE",
"550 730 LINE",
"452 730 LINE",
"290 417 LINE",
"182 417 LINE",
"182 730 LINE",
"92 730 LINE",
"92 0 LINE"
);
}
);
width = 600;
},
{
layerId = "EDF5EB54-295C-4C90-9A2F-67CD82979CFF";
paths = (
{
closed = 1;
nodes = (
"160 0 LINE",
"160 356 LINE",
"312 356 LINE",
"481 0 LINE",
"540 0 LINE",
"358 381 LINE",
"530 731 LINE",
"475 731 LINE",
"313 401 LINE",
"160 401 LINE",
"160 731 LINE",
"110 731 LINE",
"110 0 LINE"
);
}
);
width = 600;
}
);
unicode = 004B;
},
{
glyphname = L;
lastChange = "2020-06-26 18:23:38 +0000";
layers = (
{
layerId = "9ADF6715-3D0F-493D-8567-18A6FBCFC567";
paths = (
{
closed = 1;
nodes = (
"540 0 LINE",
"540 140 LINE",
"245 140 LINE",
"245 730 LINE",
"95 730 LINE",
"95 0 LINE"
);
}
);
width = 600;
},
{
hints = (
{
place = "{105, 90}";
type = Stem;
},
{
horizontal = 1;
place = "{0, 82}";
type = Stem;
},
{
horizontal = 1;
place = "{720, -20}";
target = down;
type = TopGhost;
}
);
layerId = "CCC0BD40-BA8C-414E-B576-CF0B94E6C996";
paths = (
{
closed = 1;
nodes = (
"535 0 LINE",
"535 82 LINE",
"205 82 LINE",
"205 730 LINE",
"115 730 LINE",
"115 0 LINE"
);
}
);
width = 600;
},
{
layerId = "EDF5EB54-295C-4C90-9A2F-67CD82979CFF";
paths = (
{
closed = 1;
nodes = (
"525 0 LINE",
"525 45 LINE",
"170 45 LINE",
"170 730 LINE",
"120 730 LINE",
"120 0 LINE"
);
}
);
width = 600;
}
);
unicode = 004C;
},
{
glyphname = Lslash;
lastChange = "2020-06-19 10:30:00 +0000";
layers = (
{
components = (
{
alignment = -1;
name = L;
transform = "{1, 0, 0, 1, 10, 0}";
}
);
layerId = "9ADF6715-3D0F-493D-8567-18A6FBCFC567";
paths = (
{
closed = 1;
nodes = (
"400 420 LINE",
"400 560 LINE",
"20 370 LINE",
"20 230 LINE"
);
}
);
width = 600;
},
{
components = (
{
alignment = -1;
name = L;
}
);
hints = (
{
place = "{105, 90}";
type = Stem;
},
{
horizontal = 1;
place = "{0, 82}";
type = Stem;
},
{
horizontal = 1;
place = "{720, -20}";
target = down;
type = TopGhost;
}
);
layerId = "CCC0BD40-BA8C-414E-B576-CF0B94E6C996";
paths = (
{
closed = 1;
nodes = (
"390 480 LINE",
"390 560 LINE",
"20 310 LINE",
"20 230 LINE"
);
}
);
width = 600;
},
{
components = (
{
alignment = -1;
name = L;
transform = "{1, 0, 0, 1, 10, 0}";
}
);
layerId = "EDF5EB54-295C-4C90-9A2F-67CD82979CFF";
paths = (
{
closed = 1;
nodes = (
"390 495 LINE",
"390 550 LINE",
"20 295 LINE",
"20 240 LINE"
);
}
);
width = 600;
}
);
unicode = 0141;
},
{
glyphname = M;
lastChange = "2020-06-19 16:02:42 +0000";
layers = (
{
hints = (
{
place = "{75, 83}";
type = Stem;
},
{
place = "{442, 83}";
type = Stem;
},
{
horizontal = 1;
place = "{720, -20}";
target = down;
type = TopGhost;
},
{
horizontal = 1;
place = "{0, 21}";
target = up;
type = BottomGhost;
}
);
layerId = "CCC0BD40-BA8C-414E-B576-CF0B94E6C996";
paths = (
{
closed = 1;
nodes = (
"164 0 LINE",
"164 265 LINE SMOOTH",
"164 445 OFFCURVE",
"135 685 OFFCURVE",
"135 685 CURVE",
"254 320 LINE",
"349 320 LINE",
"467 685 LINE",
"467 685 OFFCURVE",
"436 435 OFFCURVE",
"436 265 CURVE SMOOTH",
"436 0 LINE",
"524 0 LINE",
"524 730 LINE",
"406 730 LINE",
"333.942 495.101 LINE SMOOTH",
"315.535 435.096 OFFCURVE",
"302.721 382 OFFCURVE",
"303 382 CURVE",
"303 382 OFFCURVE",
"288.865 434.849 OFFCURVE",
"269.974 493.624 CURVE SMOOTH",
"194 730 LINE",
"76 730 LINE",
"76 0 LINE"
);
}
);
width = 600;
},
{
layerId = "EDF5EB54-295C-4C90-9A2F-67CD82979CFF";
paths = (
{
closed = 1;
nodes = (
"141 0 LINE",
"141 440 LINE SMOOTH",
"141 580 OFFCURVE",
"135 705 OFFCURVE",
"135 705 CURVE",
"274 325 LINE",
"327 325 LINE",
"464 705 LINE",
"464 705 OFFCURVE",
"459 580 OFFCURVE",
"459 440 CURVE SMOOTH",
"459 0 LINE",
"508 0 LINE",
"508 730 LINE",
"434 730 LINE",
"333.232 450.096 LINE SMOOTH",
"318.392 408.877 OFFCURVE",
"301 359 OFFCURVE",
"301 359 CURVE",
"301 359 OFFCURVE",
"284.047 409.848 OFFCURVE",
"269.336 450.085 CURVE SMOOTH",
"167 730 LINE",
"92 730 LINE",
"92 0 LINE"
);
}
);
width = 600;
},
{
associatedMasterId = "9ADF6715-3D0F-493D-8567-18A6FBCFC567";
layerId = "7BFBCF54-6A55-40E9-80F1-597CC055EF6D";
name = "Jun 19 20, 19:02";
paths = (
{
closed = 1;
nodes = (
"179 0 LINE",
"179 200 LINE SMOOTH",
"179 431 OFFCURVE",
"150 640 OFFCURVE",
"149 640 CURVE",
"154 640 LINE",
"154 640 OFFCURVE",
"177 535 OFFCURVE",
"191 482 CURVE SMOOTH",
"237 310 LINE",
"364 310 LINE",
"408 482 LINE SMOOTH",
"421 535 OFFCURVE",
"443 640 OFFCURVE",
"443 640 CURVE",
"447 640 LINE",
"447 640 OFFCURVE",
"421 428 OFFCURVE",
"421 200 CURVE SMOOTH",
"421 0 LINE",
"558 0 LINE",
"558 730 LINE",
"389 730 LINE",
"323 500 LINE SMOOTH",
"304 434 OFFCURVE",
"301 399 OFFCURVE",
"301 399 CURVE",
"301 399 OFFCURVE",
"297 434 OFFCURVE",
"278 500 CURVE SMOOTH",
"211 730 LINE",
"42 730 LINE",
"42 0 LINE"
);
}
);
width = 600;
},
{
layerId = "9ADF6715-3D0F-493D-8567-18A6FBCFC567";
paths = (
{
closed = 1;
nodes = (
"179 0 LINE",
"179 200 LINE SMOOTH",
"179 410 OFFCURVE",
"149 640 OFFCURVE",
"149 640 CURVE",
"237 310 LINE",
"364 310 LINE",
"448 640 LINE",
"448 640 OFFCURVE",
"421 400 OFFCURVE",
"421 200 CURVE SMOOTH",
"421 0 LINE",
"558 0 LINE",
"558 730 LINE",
"389 730 LINE",
"323 500 LINE SMOOTH",
"304 434 OFFCURVE",
"301 399 OFFCURVE",
"301 399 CURVE",
"301 399 OFFCURVE",
"297 434 OFFCURVE",
"278 500 CURVE SMOOTH",
"211 730 LINE",
"42 730 LINE",
"42 0 LINE"
);
}
);
width = 600;
}
);
unicode = 004D;
},
{
glyphname = N;
lastChange = "2020-06-19 10:30:00 +0000";
layers = (
{
associatedMasterId = "EDF5EB54-295C-4C90-9A2F-67CD82979CFF";
layerId = "040298CF-5572-47E8-A6B5-8878BEE70FAE";
name = public.background;
paths = (
{
closed = 1;
nodes = (
"60 0 LINE",
"192 0 LINE",
"192 360 LINE SMOOTH",
"192 455 OFFCURVE",
"160 560 OFFCURVE",
"160 560 CURVE",
"186 560 LINE",
"186 560 OFFCURVE",
"207.353 474.726 OFFCURVE",
"222.205 430 CURVE SMOOTH",
"365 0 LINE",
"540 0 LINE",
"540 730 LINE",
"408 730 LINE",
"408 390 LINE SMOOTH",
"408 294.8 OFFCURVE",
"443 170 OFFCURVE",
"442 170 CURVE",
"416 170 LINE",
"416 170 OFFCURVE",
"389.247 275.139 OFFCURVE",
"376.755 311.976 CURVE SMOOTH",
"235 730 LINE",
"60 730 LINE"
);
}
);
width = 600;
},
{
layerId = "9ADF6715-3D0F-493D-8567-18A6FBCFC567";
paths = (
{
closed = 1;
nodes = (
"192 0 LINE",
"192 320 LINE SMOOTH",
"192 415 OFFCURVE",
"178.351 565 OFFCURVE",
"178 565 CURVE",
"365 0 LINE",
"540 0 LINE",
"540 730 LINE",
"408 730 LINE",
"408 430 LINE SMOOTH",
"408 335.321 OFFCURVE",
"424 165 OFFCURVE",
"424 165 CURVE",
"235 730 LINE",
"60 730 LINE",
"60 0 LINE"
);
}
);
width = 600;
},
{
layerId = "CCC0BD40-BA8C-414E-B576-CF0B94E6C996";
paths = (
{
closed = 1;
nodes = (
"177 0 LINE",
"177 410 LINE SMOOTH",
"177 510 OFFCURVE",
"168 625 OFFCURVE",
"168 625 CURVE",
"390 0 LINE",
"510 0 LINE",
"510 730 LINE",
"423 730 LINE",
"423 320 LINE SMOOTH",
"423 219.905 OFFCURVE",
"433 105 OFFCURVE",
"433 105 CURVE",
"210 730 LINE",
"90 730 LINE",
"90 0 LINE"
);
}
);
width = 600;
},
{
layerId = "EDF5EB54-295C-4C90-9A2F-67CD82979CFF";
paths = (
{
closed = 1;
nodes = (
"158 0 LINE",
"158 560 LINE SMOOTH",
"158 630 OFFCURVE",
"156 675 OFFCURVE",
"156 675 CURVE",
"420 0 LINE",
"490 0 LINE",
"490 730 LINE",
"442 730 LINE",
"442 170 LINE SMOOTH",
"442 148.529 OFFCURVE",
"446 55 OFFCURVE",
"446 55 CURVE",
"179 730 LINE",
"110 730 LINE",
"110 0 LINE"
);
}
);
width = 600;
}
);
unicode = 004E;
},
{
glyphname = Eng;
lastChange = "2020-06-19 10:30:00 +0000";
layers = (
{
layerId = "9ADF6715-3D0F-493D-8567-18A6FBCFC567";
paths = (
{
closed = 1;
nodes = (
"300 -180 LINE SMOOTH",
"441 -180 OFFCURVE",
"540 -96 OFFCURVE",
"540 25 CURVE SMOOTH",
"540 730 LINE",
"540 730 OFFCURVE",
"439 730 OFFCURVE",
"408 730 CURVE",
"408 526 LINE SMOOTH",
"408 431 OFFCURVE",
"424 261 OFFCURVE",
"424 261 CURVE",
"235 730 LINE",
"60 730 LINE",
"60 0 LINE",
"60 0 OFFCURVE",
"161 0 OFFCURVE",
"192 0 CURVE",
"192 320 LINE SMOOTH",
"192 415 OFFCURVE",
"178 565 OFFCURVE",
"178 565 CURVE",
"390 41 LINE",
"390 -7 OFFCURVE",
"361 -35 OFFCURVE",
"310 -35 CURVE SMOOTH",
"250 -35 LINE",
"250 -180 LINE"
);
}
);
width = 600;
},
{
hints = (
{
place = "{85, 86}";
type = Stem;
},
{
place = "{429, 86}";
type = Stem;
},
{
horizontal = 1;
place = "{-170, 82}";
type = Stem;
},
{
horizontal = 1;
place = "{720, -20}";
target = down;
type = TopGhost;
}
);
layerId = "CCC0BD40-BA8C-414E-B576-CF0B94E6C996";
paths = (
{
closed = 1;
nodes = (
"305 -180 LINE SMOOTH",
"429 -180 OFFCURVE",
"510 -103 OFFCURVE",
"510 15 CURVE SMOOTH",
"510 730 LINE",
"510 730 OFFCURVE",
"440 730 OFFCURVE",
"423 730 CURVE",
"423 397 LINE SMOOTH",
"423 297 OFFCURVE",
"433 181 OFFCURVE",
"433 181 CURVE",
"210 730 LINE",
"90 730 LINE",
"90 0 LINE",
"90 0 OFFCURVE",
"161 0 OFFCURVE",
"177 0 CURVE",
"177 410 LINE SMOOTH",
"177 510 OFFCURVE",
"168 625 OFFCURVE",
"168 625 CURVE",
"420 15 LINE",
"420 -55 OFFCURVE",
"376 -98 OFFCURVE",
"305 -98 CURVE SMOOTH",
"240 -98 LINE",
"240 -180 LINE"
);
}
);
width = 600;
},
{
layerId = "EDF5EB54-295C-4C90-9A2F-67CD82979CFF";
paths = (
{
closed = 1;
nodes = (
"307 -180 LINE SMOOTH",
"425 -180 OFFCURVE",
"491 -115 OFFCURVE",
"491 0 CURVE SMOOTH",
"491 730 LINE",
"491 730 OFFCURVE",
"452 730 OFFCURVE",
"443 730 CURVE",
"443 219 LINE SMOOTH",
"443 149 OFFCURVE",
"447 94 OFFCURVE",
"447 94 CURVE",
"178 730 LINE",
"109 730 LINE",
"109 0 LINE",
"109 0 OFFCURVE",
"148 0 OFFCURVE",
"157 0 CURVE",
"157 560 LINE SMOOTH",
"157 630 OFFCURVE",
"155 675 OFFCURVE",
"155 675 CURVE",
"441 0 LINE",
"441 -88 OFFCURVE",
"395 -135 OFFCURVE",
"307 -135 CURVE SMOOTH",
"227 -135 LINE",
"227 -180 LINE"
);
}
);
width = 600;
}
);
unicode = 014A;
},
{
glyphname = O;
lastChange = "2020-06-26 18:22:37 +0000";
layers = (
{
layerId = "9ADF6715-3D0F-493D-8567-18A6FBCFC567";
paths = (
{
closed = 1;
nodes = (
"447.33 -10 OFFCURVE",
"540 77.704 OFFCURVE",
"540 210 CURVE SMOOTH",
"540 520 LINE SMOOTH",
"540 652.281 OFFCURVE",
"447.313 740 OFFCURVE",
"300 740 CURVE SMOOTH",
"152.687 740 OFFCURVE",
"60 652.281 OFFCURVE",
"60 520 CURVE SMOOTH",
"60 210 LINE SMOOTH",
"60 77.704 OFFCURVE",
"152.67 -10 OFFCURVE",
"300 -10 CURVE SMOOTH"
);
},
{
closed = 1;
nodes = (
"239.874 120 OFFCURVE",
"210 152.432 OFFCURVE",
"210 210 CURVE SMOOTH",
"210 520 LINE SMOOTH",
"210 577.849 OFFCURVE",
"239.1 610 OFFCURVE",
"300 610 CURVE SMOOTH",
"360.981 610 OFFCURVE",
"390 577.772 OFFCURVE",
"390 520 CURVE SMOOTH",
"390 210 LINE SMOOTH",
"390 152.163 OFFCURVE",
"360.407 120 OFFCURVE",
"300 120 CURVE SMOOTH"
);
}
);
width = 600;
},
{
hints = (
{
place = "{80, 90}";
type = Stem;
},
{
place = "{430, 90}";
type = Stem;
},
{
horizontal = 1;
place = "{-10, 80}";
type = Stem;
},
{
horizontal = 1;
place = "{650, 80}";
type = Stem;
}
);
layerId = "CCC0BD40-BA8C-414E-B576-CF0B94E6C996";
paths = (
{
closed = 1;
nodes = (
"430.536 -10 OFFCURVE",
"512 69 OFFCURVE",
"512 200 CURVE SMOOTH",
"512 531 LINE SMOOTH",
"512 661 OFFCURVE",
"430.543 740 OFFCURVE",
"300 740 CURVE SMOOTH",
"169.464 740 OFFCURVE",
"88 661 OFFCURVE",
"88 530 CURVE SMOOTH",
"88 200 LINE SMOOTH",
"88 69 OFFCURVE",
"169.464 -10 OFFCURVE",
"300 -10 CURVE SMOOTH"
);
},
{
closed = 1;
nodes = (
"222.118 70 OFFCURVE",
"178 115 OFFCURVE",
"178 200 CURVE SMOOTH",
"178 530 LINE SMOOTH",
"178 615 OFFCURVE",
"222.183 660 OFFCURVE",
"300 660 CURVE SMOOTH",
"377.818 660 OFFCURVE",
"422 615 OFFCURVE",
"422 530 CURVE SMOOTH",
"422 200 LINE SMOOTH",
"422 115 OFFCURVE",
"377.817 70 OFFCURVE",
"300 70 CURVE SMOOTH"
);
}
);
width = 600;
},
{
layerId = "EDF5EB54-295C-4C90-9A2F-67CD82979CFF";
paths = (
{
closed = 1;
nodes = (
"418.5 -10 OFFCURVE",
"495 68.462 OFFCURVE",
"495 190 CURVE SMOOTH",
"495 540 LINE SMOOTH",
"495 661.235 OFFCURVE",
"418.204 740 OFFCURVE",
"300 740 CURVE SMOOTH",
"181.796 740 OFFCURVE",
"105 661.235 OFFCURVE",
"105 540 CURVE SMOOTH",
"105 190 LINE SMOOTH",
"105 68.462 OFFCURVE",
"181.5 -10 OFFCURVE",
"300 -10 CURVE SMOOTH"
);
},
{
closed = 1;
nodes = (
"208.427 34 OFFCURVE",
"155 91.48 OFFCURVE",
"155 190 CURVE SMOOTH",
"155 540 LINE SMOOTH",
"155 638.005 OFFCURVE",
"208.906 696 OFFCURVE",
"300 696 CURVE SMOOTH",
"391.094 696 OFFCURVE",
"445 638.005 OFFCURVE",
"445 540 CURVE SMOOTH",
"445 190 LINE SMOOTH",
"445 91.48 OFFCURVE",
"391.573 34 OFFCURVE",
"300 34 CURVE SMOOTH"
);
}
);
width = 600;
}
);
unicode = 004F;
},
{
glyphname = Ohorn;
lastChange = "2020-06-19 10:30:00 +0000";
layers = (
{
layerId = "9ADF6715-3D0F-493D-8567-18A6FBCFC567";
paths = (
{
closed = 1;
nodes = (
"447.33 -10 OFFCURVE",
"540 77.704 OFFCURVE",
"540 210 CURVE SMOOTH",
"540 520 LINE SMOOTH",
"540 652.281 OFFCURVE",
"447.313 740 OFFCURVE",
"300 740 CURVE SMOOTH",
"152.687 740 OFFCURVE",
"60 652.281 OFFCURVE",
"60 520 CURVE SMOOTH",
"60 210 LINE SMOOTH",
"60 77.704 OFFCURVE",
"152.67 -10 OFFCURVE",
"300 -10 CURVE SMOOTH"
);
},
{
closed = 1;
nodes = (
"239.874 120 OFFCURVE",
"210 152.432 OFFCURVE",
"210 210 CURVE SMOOTH",
"210 520 LINE SMOOTH",
"210 577.849 OFFCURVE",
"239.1 610 OFFCURVE",
"300 610 CURVE SMOOTH",
"360.981 610 OFFCURVE",
"390 577.772 OFFCURVE",
"390 520 CURVE SMOOTH",
"390 210 LINE SMOOTH",
"390 152.163 OFFCURVE",
"360.407 120 OFFCURVE",
"300 120 CURVE SMOOTH"
);
},
{
closed = 1;
nodes = (
"445 590 LINE SMOOTH",
"535 590 OFFCURVE",
"595 648 OFFCURVE",
"595 735 CURVE SMOOTH",
"595 840 LINE",
"475 840 LINE",
"475 729 LINE SMOOTH",
"475 705.697 OFFCURVE",
"460.108 690 OFFCURVE",
"438 690 CURVE SMOOTH",
"410 690 LINE",
"410 590 LINE"
);
}
);
width = 600;
},
{
hints = (
{
place = "{80, 90}";
type = Stem;
},
{
place = "{430, 90}";
type = Stem;
},
{
horizontal = 1;
place = "{-10, 80}";
type = Stem;
},
{
horizontal = 1;
place = "{650, 80}";
type = Stem;
}
);
layerId = "CCC0BD40-BA8C-414E-B576-CF0B94E6C996";
paths = (
{
closed = 1;
nodes = (
"430.536 -10 OFFCURVE",
"510 69.464 OFFCURVE",
"510 200 CURVE SMOOTH",
"510 531 LINE SMOOTH",
"510 660.921 OFFCURVE",
"430.543 740 OFFCURVE",
"300 740 CURVE SMOOTH",
"169.464 740 OFFCURVE",
"90 660.536 OFFCURVE",
"90 530 CURVE SMOOTH",
"90 200 LINE SMOOTH",
"90 69.464 OFFCURVE",
"169.464 -10 OFFCURVE",
"300 -10 CURVE SMOOTH"
);
},
{
closed = 1;
nodes = (
"222.118 70 OFFCURVE",
"180 115.2 OFFCURVE",
"180 200 CURVE SMOOTH",
"180 530 LINE SMOOTH",
"180 615.386 OFFCURVE",
"222.183 660 OFFCURVE",
"300 660 CURVE SMOOTH",
"377.818 660 OFFCURVE",
"420 615.386 OFFCURVE",
"420 530 CURVE SMOOTH",
"420 200 LINE SMOOTH",
"420 114.614 OFFCURVE",
"377.817 70 OFFCURVE",
"300 70 CURVE SMOOTH"
);
},
{
closed = 1;
nodes = (
"442.071 625 LINE SMOOTH",
"513.729 625 OFFCURVE",
"561.5 669 OFFCURVE",
"561.5 735 CURVE SMOOTH",
"561.5 840 LINE",
"486.5 840 LINE",
"486.5 740 LINE SMOOTH",
"486.5 708.486 OFFCURVE",
"468.014 690 OFFCURVE",
"436.5 690 CURVE SMOOTH",
"399.868 690 LINE",
"399.868 625 LINE"
);
}
);
width = 600;
},
{
layerId = "EDF5EB54-295C-4C90-9A2F-67CD82979CFF";
paths = (
{
closed = 1;
nodes = (
"418.5 -10 OFFCURVE",
"495 68.462 OFFCURVE",
"495 190 CURVE SMOOTH",
"495 540 LINE SMOOTH",
"495 661.235 OFFCURVE",
"418.204 740 OFFCURVE",
"300 740 CURVE SMOOTH",
"181.796 740 OFFCURVE",
"105 661.235 OFFCURVE",
"105 540 CURVE SMOOTH",
"105 190 LINE SMOOTH",
"105 68.462 OFFCURVE",
"181.5 -10 OFFCURVE",
"300 -10 CURVE SMOOTH"
);
},
{
closed = 1;
nodes = (
"208.427 34 OFFCURVE",
"155 91.48 OFFCURVE",
"155 190 CURVE SMOOTH",
"155 540 LINE SMOOTH",
"155 638.005 OFFCURVE",
"208.906 696 OFFCURVE",
"300 696 CURVE SMOOTH",
"391.094 696 OFFCURVE",
"445 638.005 OFFCURVE",
"445 540 CURVE SMOOTH",
"445 190 LINE SMOOTH",
"445 91.48 OFFCURVE",
"391.573 34 OFFCURVE",
"300 34 CURVE SMOOTH"
);
},
{
closed = 1;
nodes = (
"454.571 685 LINE SMOOTH",
"505.829 685 OFFCURVE",
"540 719 OFFCURVE",
"540 770 CURVE SMOOTH",
"540 840 LINE",
"500 840 LINE",
"500 770 LINE SMOOTH",
"500 740 OFFCURVE",
"482 720 OFFCURVE",
"455 720 CURVE SMOOTH",
"380 720 LINE",
"380 685 LINE"
);
}
);
width = 600;
}
);
unicode = 01A0;
},
{
color = 1;
glyphname = Oslash;
lastChange = "2020-07-02 13:45:58 +0000";
layers = (
{
components = (
{
alignment = -1;
name = O;
}
);
guideLines = (
{
angle = 90;
position = "{119, 0}";
},
{
angle = 90;
position = "{474, 0}";
}
);
layerId = "9ADF6715-3D0F-493D-8567-18A6FBCFC567";
paths = (
{
closed = 1;
nodes = (
"133 -40 LINE",
"585 750 LINE",
"467 750 LINE",
"15 -40 LINE"
);
}
);
width = 600;
},
{
components = (
{
alignment = -1;
name = O;
}
);
hints = (
{
place = "{80, 90}";
type = Stem;
},
{
place = "{430, 90}";
type = Stem;
},
{
horizontal = 1;
place = "{-10, 80}";
type = Stem;
},
{
horizontal = 1;
place = "{650, 80}";
type = Stem;
}
);
layerId = "CCC0BD40-BA8C-414E-B576-CF0B94E6C996";
paths = (
{
closed = 1;
nodes = (
"119 -40 LINE",
"565 750 LINE",
"481 750 LINE",
"35 -40 LINE"
);
}
);
width = 600;
},
{
components = (
{
alignment = -1;
name = O;
}
);
layerId = "EDF5EB54-295C-4C90-9A2F-67CD82979CFF";
paths = (
{
closed = 1;
nodes = (
"97 -40 LINE",
"551 750 LINE",
"503 750 LINE",
"49 -40 LINE"
);
}
);
width = 600;
}
);
note = "Make a bit lighter. Maybe decompose?";
unicode = 00D8;
},
{
color = 1;
glyphname = OE;
lastChange = "2020-06-19 10:37:10 +0000";
layers = (
{
layerId = "9ADF6715-3D0F-493D-8567-18A6FBCFC567";
paths = (
{
closed = 1;
nodes = (
"274 -4 OFFCURVE",
"285 86 OFFCURVE",
"285 86 CURVE",
"290 86 LINE",
"290 0 LINE",
"580 0 LINE",
"580 126 LINE",
"419 126 LINE",
"419 311 LINE",
"555 311 LINE",
"555 437 LINE",
"419 437 LINE",
"419 605 LINE",
"580 605 LINE",
"580 730 LINE",
"290 730 LINE",
"290 650 LINE",
"285 650 LINE",
"285 650 OFFCURVE",
"274 740 OFFCURVE",
"175 740 CURVE SMOOTH",
"84 740 OFFCURVE",
"30 666 OFFCURVE",
"30 541 CURVE SMOOTH",
"30 195 LINE SMOOTH",
"30 70 OFFCURVE",
"84 -4 OFFCURVE",
"175 -4 CURVE SMOOTH"
);
},
{
closed = 1;
nodes = (
"192 121 OFFCURVE",
"170 149 OFFCURVE",
"170 195 CURVE SMOOTH",
"170 541 LINE SMOOTH",
"170 587 OFFCURVE",
"192 615 OFFCURVE",
"227 615 CURVE SMOOTH",
"263 615 OFFCURVE",
"284 588 OFFCURVE",
"284 541 CURVE SMOOTH",
"284 195 LINE SMOOTH",
"284 148 OFFCURVE",
"263 121 OFFCURVE",
"227 121 CURVE SMOOTH"
);
}
);
width = 600;
},
{
hints = (
{
place = "{40, 90}";
type = Stem;
},
{
place = "{310, 88}";
type = Stem;
},
{
place = "{310, 240}";
type = Stem;
},
{
horizontal = 1;
place = "{-10, 80}";
type = Stem;
},
{
horizontal = 1;
place = "{331, 82}";
type = Stem;
},
{
horizontal = 1;
place = "{638, 82}";
type = Stem;
},
{
horizontal = 1;
place = "{650, 70}";
type = Stem;
},
{
horizontal = 1;
place = "{-10, 92}";
type = Stem;
}
);
layerId = "CCC0BD40-BA8C-414E-B576-CF0B94E6C996";
paths = (
{
closed = 1;
nodes = (
"290 -10 OFFCURVE",
"305 80 OFFCURVE",
"305 80 CURVE",
"310 80 LINE",
"310 0 LINE",
"575 0 LINE",
"575 82 LINE",
"398 82 LINE",
"398 336 LINE",
"550 336 LINE",
"550 418 LINE",
"398 418 LINE",
"398 648 LINE",
"575 648 LINE",
"575 730 LINE",
"310 730 LINE",
"310 650 LINE",
"305 650 LINE",
"305 650 OFFCURVE",
"290 740 OFFCURVE",
"195 740 CURVE SMOOTH",
"99 740 OFFCURVE",
"40 667 OFFCURVE",
"40 550 CURVE SMOOTH",
"40 180 LINE SMOOTH",
"40 63 OFFCURVE",
"99 -10 OFFCURVE",
"195 -10 CURVE SMOOTH"
);
},
{
closed = 1;
nodes = (
"164 70 OFFCURVE",
"130 112 OFFCURVE",
"130 180 CURVE SMOOTH",
"130 550 LINE SMOOTH",
"130 618 OFFCURVE",
"164 660 OFFCURVE",
"220 660 CURVE SMOOTH",
"276 660 OFFCURVE",
"310 618 OFFCURVE",
"310 550 CURVE SMOOTH",
"310 180 LINE SMOOTH",
"310 112 OFFCURVE",
"276 70 OFFCURVE",
"220 70 CURVE SMOOTH"
);
}
);
width = 600;
},
{
layerId = "EDF5EB54-295C-4C90-9A2F-67CD82979CFF";
paths = (
{
closed = 1;
nodes = (
"291 -10 OFFCURVE",
"315 80 OFFCURVE",
"315 80 CURVE",
"320 80 LINE",
"320 0 LINE",
"569 0 LINE",
"569 50 LINE",
"375 50 LINE",
"375 352 LINE",
"533 352 LINE",
"533 402 LINE",
"375 402 LINE",
"375 680 LINE",
"569 680 LINE",
"569 730 LINE",
"320 730 LINE",
"320 650 LINE",
"315 650 LINE",
"315 650 OFFCURVE",
"291 740 OFFCURVE",
"196 740 CURVE SMOOTH",
"105 740 OFFCURVE",
"40 664 OFFCURVE",
"40 557 CURVE SMOOTH",
"40 173 LINE SMOOTH",
"40 66 OFFCURVE",
"105 -10 OFFCURVE",
"196 -10 CURVE SMOOTH"
);
},
{
closed = 1;
nodes = (
"140 40 OFFCURVE",
"95 94 OFFCURVE",
"95 173 CURVE SMOOTH",
"95 557 LINE SMOOTH",
"95 636 OFFCURVE",
"140 690 OFFCURVE",
"207 690 CURVE SMOOTH",
"273 690 OFFCURVE",
"320 638 OFFCURVE",
"320 557 CURVE SMOOTH",
"320 173 LINE SMOOTH",
"320 92 OFFCURVE",
"273 40 OFFCURVE",
"207 40 CURVE SMOOTH"
);
}
);
width = 600;
}
);
unicode = 0152;
},
{
glyphname = P;
lastChange = "2020-06-26 18:22:51 +0000";
layers = (
{
layerId = "9ADF6715-3D0F-493D-8567-18A6FBCFC567";
paths = (
{
closed = 1;
nodes = (
"216 0 LINE",
"216 266 LINE",
"315 266 LINE SMOOTH",
"468.279 266 OFFCURVE",
"570 358.546 OFFCURVE",
"570 498 CURVE SMOOTH",
"570 637.956 OFFCURVE",
"468.83 730 OFFCURVE",
"315 730 CURVE SMOOTH",
"66 730 LINE",
"66 0 LINE"
);
},
{
closed = 1;
nodes = (
"216 595 LINE",
"315 595 LINE SMOOTH",
"379.004 595 OFFCURVE",
"420 557.127 OFFCURVE",
"420 498 CURVE SMOOTH",
"420 438.873 OFFCURVE",
"379.004 401 OFFCURVE",
"315 401 CURVE SMOOTH",
"216 401 LINE"
);
}
);
width = 600;
},
{
hints = (
{
place = "{90, 90}";
type = Stem;
},
{
place = "{457, 93}";
type = Stem;
},
{
horizontal = 1;
place = "{300, 80}";
type = Stem;
},
{
horizontal = 1;
place = "{640, 80}";
type = Stem;
},
{
horizontal = 1;
place = "{0, 21}";
target = up;
type = BottomGhost;
}
);
layerId = "CCC0BD40-BA8C-414E-B576-CF0B94E6C996";
paths = (
{
closed = 1;
nodes = (
"182 0 LINE",
"182 300 LINE",
"327 300 LINE SMOOTH",
"462.54 300 OFFCURVE",
"550 384.322 OFFCURVE",
"550 515 CURVE SMOOTH",
"550 646.172 OFFCURVE",
"463.052 730 OFFCURVE",
"327 730 CURVE SMOOTH",
"92 730 LINE",
"92 0 LINE"
);
},
{
closed = 1;
nodes = (
"182 650 LINE",
"327 650 LINE SMOOTH",
"405.759 650 OFFCURVE",
"457 596.788 OFFCURVE",
"457 515 CURVE SMOOTH",
"457 433.212 OFFCURVE",
"405.759 380 OFFCURVE",
"327 380 CURVE SMOOTH",
"182 380 LINE"
);
}
);
width = 600;
},
{
layerId = "EDF5EB54-295C-4C90-9A2F-67CD82979CFF";
paths = (
{
closed = 1;
nodes = (
"160 0 LINE",
"160 324 LINE",
"325 324 LINE SMOOTH",
"452.126 324 OFFCURVE",
"535 404.112 OFFCURVE",
"535 527 CURVE SMOOTH",
"535 650.39 OFFCURVE",
"452.645 730 OFFCURVE",
"325 730 CURVE SMOOTH",
"110 730 LINE",
"110 0 LINE"
);
},
{
closed = 1;
nodes = (
"160 685 LINE",
"325 685 LINE SMOOTH",
"422.902 685 OFFCURVE",
"485 623.679 OFFCURVE",
"485 527 CURVE SMOOTH",
"485 430.936 OFFCURVE",
"422.28 369 OFFCURVE",
"325 369 CURVE SMOOTH",
"160 369 LINE"
);
}
);
width = 600;
}
);
unicode = 0050;
},
{
glyphname = Thorn;
lastChange = "2020-06-19 10:30:00 +0000";
layers = (
{
layerId = "9ADF6715-3D0F-493D-8567-18A6FBCFC567";
paths = (
{
closed = 1;
nodes = (
"220 0 LINE",
"220 165 LINE",
"340 165 LINE SMOOTH",
"483 165 OFFCURVE",
"570 246 OFFCURVE",
"570 380 CURVE SMOOTH",
"570 515 OFFCURVE",
"484 595 OFFCURVE",
"340 595 CURVE SMOOTH",
"220 595 LINE",
"220 730 LINE",
"70 730 LINE",
"70 0 LINE"
);
},
{
closed = 1;
nodes = (
"220 470 LINE",
"315 470 LINE SMOOTH",
"383 470 OFFCURVE",
"420 438 OFFCURVE",
"420 380 CURVE SMOOTH",
"420 322 OFFCURVE",
"383 290 OFFCURVE",
"315 290 CURVE SMOOTH",
"220 290 LINE"
);
}
);
width = 600;
},
{
hints = (
{
place = "{90, 90}";
type = Stem;
},
{
place = "{457, 93}";
type = Stem;
},
{
horizontal = 1;
place = "{175, 80}";
type = Stem;
},
{
horizontal = 1;
place = "{495, 80}";
type = Stem;
},
{
horizontal = 1;
place = "{0, 21}";
target = up;
type = BottomGhost;
},
{
horizontal = 1;
place = "{710, -20}";
target = down;
type = TopGhost;
}
);
layerId = "CCC0BD40-BA8C-414E-B576-CF0B94E6C996";
paths = (
{
closed = 1;
nodes = (
"180 0 LINE",
"180 180 LINE",
"333 180 LINE SMOOTH",
"465 180 OFFCURVE",
"550 258 OFFCURVE",
"550 380 CURVE SMOOTH",
"550 500 OFFCURVE",
"464 580 OFFCURVE",
"333 580 CURVE SMOOTH",
"180 580 LINE",
"180 730 LINE",
"90 730 LINE",
"90 0 LINE"
);
},
{
closed = 1;
nodes = (
"180 500 LINE",
"333 500 LINE SMOOTH",
"409 500 OFFCURVE",
"457 454 OFFCURVE",
"457 380 CURVE SMOOTH",
"457 306 OFFCURVE",
"410 260 OFFCURVE",
"333 260 CURVE SMOOTH",
"180 260 LINE"
);
}
);
width = 600;
},
{
layerId = "EDF5EB54-295C-4C90-9A2F-67CD82979CFF";
paths = (
{
closed = 1;
nodes = (
"155 0 LINE",
"155 195 LINE",
"333 195 LINE SMOOTH",
"453.873 195 OFFCURVE",
"530 266.49 OFFCURVE",
"530 380 CURVE SMOOTH",
"530 494.023 OFFCURVE",
"454.419 565 OFFCURVE",
"333 565 CURVE SMOOTH",
"155 565 LINE",
"155 730 LINE",
"105 730 LINE",
"105 0 LINE"
);
},
{
closed = 1;
nodes = (
"155 520 LINE",
"333 520 LINE SMOOTH",
"423.546 520 OFFCURVE",
"480 467.187 OFFCURVE",
"480 380 CURVE SMOOTH",
"480 294.314 OFFCURVE",
"423.61 241 OFFCURVE",
"333 241 CURVE SMOOTH",
"155 241 LINE"
);
}
);
width = 600;
}
);
unicode = 00DE;
},
{
glyphname = Q;
lastChange = "2020-06-19 10:30:00 +0000";
layers = (
{
associatedMasterId = "EDF5EB54-295C-4C90-9A2F-67CD82979CFF";
layerId = "040298CF-5572-47E8-A6B5-8878BEE70FAE";
name = public.background;
paths = (
{
closed = 1;
nodes = (
"208.427 34 OFFCURVE",
"155 91.48 OFFCURVE",
"155 190 CURVE SMOOTH",
"155 540 LINE SMOOTH",
"155 638.005 OFFCURVE",
"208.906 696 OFFCURVE",
"300 696 CURVE SMOOTH",
"391.094 696 OFFCURVE",
"445 638.005 OFFCURVE",
"445 540 CURVE SMOOTH",
"445 190 LINE SMOOTH",
"445 91.48 OFFCURVE",
"391.573 34 OFFCURVE",
"300 34 CURVE SMOOTH"
);
},
{
closed = 1;
nodes = (
"418.5 -10 OFFCURVE",
"495 68.462 OFFCURVE",
"495 190 CURVE SMOOTH",
"495 540 LINE SMOOTH",
"495 661.235 OFFCURVE",
"418.204 740 OFFCURVE",
"300 740 CURVE SMOOTH",
"181.796 740 OFFCURVE",
"105 661.235 OFFCURVE",
"105 540 CURVE SMOOTH",
"105 190 LINE SMOOTH",
"105 68.462 OFFCURVE",
"181.5 -10 OFFCURVE",
"300 -10 CURVE SMOOTH"
);
}
);
width = 600;
},
{
layerId = "9ADF6715-3D0F-493D-8567-18A6FBCFC567";
paths = (
{
closed = 1;
nodes = (
"556 -180 LINE",
"433 20 LINE",
"501.651 55.306 OFFCURVE",
"540 123.403 OFFCURVE",
"540 210 CURVE SMOOTH",
"540 520 LINE SMOOTH",
"540 652 OFFCURVE",
"444 740 OFFCURVE",
"300 740 CURVE SMOOTH",
"154.572 740 OFFCURVE",
"60 653.309 OFFCURVE",
"60 520 CURVE SMOOTH",
"60 210 LINE SMOOTH",
"60 79.007 OFFCURVE",
"156 -10 OFFCURVE",
"300 -10 CURVE SMOOTH",
"308 -10 OFFCURVE",
"319 -9 OFFCURVE",
"319 -9 CURVE",
"288 4 LINE",
"400 -180 LINE"
);
},
{
closed = 1;
nodes = (
"238 121 OFFCURVE",
"210 153 OFFCURVE",
"210 210 CURVE SMOOTH",
"210 520 LINE SMOOTH",
"210 577.614 OFFCURVE",
"242.386 610 OFFCURVE",
"300 610 CURVE SMOOTH",
"358.1 610 OFFCURVE",
"390 578.1 OFFCURVE",
"390 520 CURVE SMOOTH",
"390 210 LINE SMOOTH",
"390 153 OFFCURVE",
"362 121 OFFCURVE",
"300 121 CURVE SMOOTH"
);
}
);
width = 600;
},
{
hints = (
{
place = "{80, 90}";
type = Stem;
},
{
place = "{430, 90}";
type = Stem;
},
{
horizontal = 1;
place = "{-10, 80}";
type = Stem;
},
{
horizontal = 1;
place = "{650, 80}";
type = Stem;
},
{
horizontal = 1;
place = "{-165, 21}";
target = up;
type = BottomGhost;
}
);
layerId = "CCC0BD40-BA8C-414E-B576-CF0B94E6C996";
paths = (
{
closed = 1;
nodes = (
"526 -180 LINE",
"409 13 LINE",
"479 46 OFFCURVE",
"520 115 OFFCURVE",
"520 205 CURVE SMOOTH",
"520 525 LINE SMOOTH",
"520 656 OFFCURVE",
"435 740 OFFCURVE",
"300 740 CURVE SMOOTH",
"165 740 OFFCURVE",
"80 656 OFFCURVE",
"80 525 CURVE SMOOTH",
"80 205 LINE SMOOTH",
"80 74 OFFCURVE",
"165 -10 OFFCURVE",
"300 -10 CURVE SMOOTH",
"314 -10 OFFCURVE",
"325 -9 OFFCURVE",
"325 -9 CURVE",
"315 -3 LINE",
"422 -180 LINE"
);
},
{
closed = 1;
nodes = (
"221 70 OFFCURVE",
"170 123 OFFCURVE",
"170 205 CURVE SMOOTH",
"170 525 LINE SMOOTH",
"170 607 OFFCURVE",
"221 660 OFFCURVE",
"300 660 CURVE SMOOTH",
"379 660 OFFCURVE",
"430 607 OFFCURVE",
"430 525 CURVE SMOOTH",
"430 205 LINE SMOOTH",
"430 123 OFFCURVE",
"379 70 OFFCURVE",
"300 70 CURVE SMOOTH"
);
}
);
width = 600;
},
{
layerId = "EDF5EB54-295C-4C90-9A2F-67CD82979CFF";
paths = (
{
closed = 1;
nodes = (
"510 -180 LINE",
"395 10 LINE",
"458.595 40.33 OFFCURVE",
"495 105.858 OFFCURVE",
"495 190 CURVE SMOOTH",
"495 540 LINE SMOOTH",
"495 655.928 OFFCURVE",
"420.24 740 OFFCURVE",
"301 740 CURVE SMOOTH",
"180.908 740 OFFCURVE",
"105 662.04 OFFCURVE",
"105 540 CURVE SMOOTH",
"105 190 LINE SMOOTH",
"105 68.615 OFFCURVE",
"182.411 -10 OFFCURVE",
"301 -10 CURVE SMOOTH",
"329 -10 OFFCURVE",
"354 -5 OFFCURVE",
"354 -5 CURVE",
"339 0 LINE",
"449 -180 LINE"
);
},
{
closed = 1;
nodes = (
"208.74 35 OFFCURVE",
"155 92.052 OFFCURVE",
"155 190 CURVE SMOOTH",
"155 540 LINE SMOOTH",
"155 637.948 OFFCURVE",
"208.74 695 OFFCURVE",
"301 695 CURVE SMOOTH",
"391.137 695 OFFCURVE",
"445 637.022 OFFCURVE",
"445 540 CURVE SMOOTH",
"445 190 LINE SMOOTH",
"445 92.426 OFFCURVE",
"391.65 35 OFFCURVE",
"301 35 CURVE SMOOTH"
);
}
);
width = 600;
}
);
unicode = 0051;
},
{
glyphname = R;
lastChange = "2020-06-26 18:22:58 +0000";
layers = (
{
associatedMasterId = "EDF5EB54-295C-4C90-9A2F-67CD82979CFF";
layerId = "040298CF-5572-47E8-A6B5-8878BEE70FAE";
name = public.background;
paths = (
{
closed = 1;
nodes = (
"214 0 LINE",
"65 0 LINE",
"65 730 LINE",
"305 730 LINE SMOOTH",
"461 730 OFFCURVE",
"560 645 OFFCURVE",
"560 510 CURVE SMOOTH",
"560 376 OFFCURVE",
"460 290 OFFCURVE",
"305 290 CURVE SMOOTH",
"214 290 LINE"
);
},
{
closed = 1;
nodes = (
"305 405 LINE SMOOTH",
"370 405 OFFCURVE",
"410 443 OFFCURVE",
"410 503 CURVE SMOOTH",
"410 565 OFFCURVE",
"369 605 OFFCURVE",
"305 605 CURVE SMOOTH",
"214 605 LINE",
"214 405 LINE"
);
},
{
closed = 1;
nodes = (
"269 333 LINE",
"423 333 LINE",
"570 0 LINE",
"410 0 LINE"
);
}
);
width = 600;
},
{
layerId = "9ADF6715-3D0F-493D-8567-18A6FBCFC567";
paths = (
{
closed = 1;
nodes = (
"214 0 LINE",
"214 276 LINE",
"284 276 LINE",
"402 0 LINE",
"565 0 LINE",
"427 300 LINE",
"505.499 333.362 OFFCURVE",
"555 413.188 OFFCURVE",
"555 508 CURVE SMOOTH",
"555 643.712 OFFCURVE",
"455.186 730 OFFCURVE",
"300 730 CURVE SMOOTH",
"65 730 LINE",
"65 0 LINE"
);
},
{
closed = 1;
nodes = (
"214 600 LINE",
"300 600 LINE SMOOTH",
"365.582 600 OFFCURVE",
"405 563.459 OFFCURVE",
"405 501 CURVE SMOOTH",
"405 440.786 OFFCURVE",
"365.859 406 OFFCURVE",
"300 406 CURVE SMOOTH",
"214 406 LINE"
);
}
);
width = 600;
},
{
hints = (
{
place = "{90, 90}";
type = Stem;
},
{
place = "{444, 93}";
type = Stem;
},
{
horizontal = 1;
place = "{300, 80}";
type = Stem;
},
{
horizontal = 1;
place = "{640, 80}";
type = Stem;
},
{
horizontal = 1;
place = "{0, 21}";
target = up;
type = BottomGhost;
}
);
layerId = "CCC0BD40-BA8C-414E-B576-CF0B94E6C996";
paths = (
{
closed = 1;
nodes = (
"182 0 LINE",
"182 310 LINE",
"299 310 LINE",
"439 0 LINE",
"545 0 LINE",
"392 320 LINE",
"480 347 OFFCURVE",
"535 421 OFFCURVE",
"535 520 CURVE SMOOTH",
"535 645 OFFCURVE",
"448 730 OFFCURVE",
"318 730 CURVE SMOOTH",
"92 730 LINE",
"92 0 LINE"
);
},
{
closed = 1;
nodes = (
"182 650 LINE",
"318 650 LINE SMOOTH",
"392 650 OFFCURVE",
"442 598 OFFCURVE",
"442 520 CURVE SMOOTH",
"442 442 OFFCURVE",
"393 390 OFFCURVE",
"318 390 CURVE SMOOTH",
"182 390 LINE"
);
}
);
width = 600;
},
{
layerId = "EDF5EB54-295C-4C90-9A2F-67CD82979CFF";
paths = (
{
closed = 1;
nodes = (
"160 0 LINE",
"160 330 LINE",
"305 330 LINE",
"470 0 LINE",
"530 0 LINE",
"359 332 LINE",
"461.305 347.264 OFFCURVE",
"525 422.471 OFFCURVE",
"525 528 CURVE SMOOTH",
"525 652.043 OFFCURVE",
"443.955 730 OFFCURVE",
"315 730 CURVE SMOOTH",
"110 730 LINE",
"110 0 LINE"
);
},
{
closed = 1;
nodes = (
"160 685 LINE",
"315 685 LINE SMOOTH",
"412.05 685 OFFCURVE",
"475 624.017 OFFCURVE",
"475 530 CURVE SMOOTH",
"475 436.013 OFFCURVE",
"412.019 375 OFFCURVE",
"315 375 CURVE SMOOTH",
"160 375 LINE"
);
}
);
width = 600;
}
);
unicode = 0052;
},
{
glyphname = S;
lastChange = "2020-06-19 09:35:13 +0000";
layers = (
{
associatedMasterId = "EDF5EB54-295C-4C90-9A2F-67CD82979CFF";
layerId = "040298CF-5572-47E8-A6B5-8878BEE70FAE";
name = public.background;
paths = (
{
closed = 1;
nodes = (
"151.256 -10 OFFCURVE",
"52.012 69.784 OFFCURVE",
"45 195 CURVE",
"195 195 LINE",
"199.979 146.209 OFFCURVE",
"237.72 120 OFFCURVE",
"303 120 CURVE SMOOTH",
"366.978 120 OFFCURVE",
"405 149.434 OFFCURVE",
"405 199 CURVE SMOOTH",
"405 241.797 OFFCURVE",
"376.285 274.199 OFFCURVE",
"328 285 CURVE SMOOTH",
"252 302 LINE SMOOTH",
"125.82 330.224 OFFCURVE",
"55 415.394 OFFCURVE",
"55 535 CURVE SMOOTH",
"55 658.968 OFFCURVE",
"152.359 740 OFFCURVE",
"298.197 740 CURVE SMOOTH",
"443 740 OFFCURVE",
"534 665 OFFCURVE",
"543 541 CURVE",
"393 541 LINE",
"387.926 585.654 OFFCURVE",
"352.151 610 OFFCURVE",
"294.197 610 CURVE SMOOTH",
"240.827 610 OFFCURVE",
"205 581.465 OFFCURVE",
"205 536 CURVE SMOOTH",
"205 495.79 OFFCURVE",
"233.407 459.808 OFFCURVE",
"277 450 CURVE SMOOTH",
"357 432 LINE SMOOTH",
"485.862 403.006 OFFCURVE",
"555 324.121 OFFCURVE",
"555 206 CURVE SMOOTH",
"555 76.776 OFFCURVE",
"452.556 -10 OFFCURVE",
"300 -10 CURVE SMOOTH"
);
}
);
width = 600;
},
{
layerId = "9ADF6715-3D0F-493D-8567-18A6FBCFC567";
paths = (
{
closed = 1;
nodes = (
"452.556 -10 OFFCURVE",
"553 76.776 OFFCURVE",
"553 206 CURVE SMOOTH",
"553 324.121 OFFCURVE",
"484.701 402.3 OFFCURVE",
"356 432 CURVE SMOOTH",
"278 450 LINE SMOOTH",
"233.327 460.309 OFFCURVE",
"207 491.999 OFFCURVE",
"207 535.463 CURVE SMOOTH",
"207 582.967 OFFCURVE",
"239.431 610 OFFCURVE",
"296.422 610 CURVE SMOOTH",
"356.552 610 OFFCURVE",
"391 581.412 OFFCURVE",
"391 535 CURVE",
"541 535 LINE",
"541 659.683 OFFCURVE",
"447.089 740 OFFCURVE",
"298.197 740 CURVE SMOOTH",
"150.273 740 OFFCURVE",
"57 657.18 OFFCURVE",
"57 528.592 CURVE SMOOTH",
"57 413.608 OFFCURVE",
"128.875 330.515 OFFCURVE",
"253 302 CURVE SMOOTH",
"327 285 LINE SMOOTH",
"374.922 273.991 OFFCURVE",
"403 242.07 OFFCURVE",
"403 198.598 CURVE SMOOTH",
"403 148.874 OFFCURVE",
"366.264 120 OFFCURVE",
"303 120 CURVE SMOOTH",
"238.025 120 OFFCURVE",
"196.978 150.979 OFFCURVE",
"197 200 CURVE",
"47 200 LINE",
"47 72.253 OFFCURVE",
"145.9 -10 OFFCURVE",
"300 -10 CURVE SMOOTH"
);
}
);
width = 600;
},
{
hints = (
{
place = "{70, 95}";
type = Stem;
},
{
place = "{91, 91}";
type = Stem;
},
{
place = "{426, 104}";
type = Stem;
},
{
place = "{439, 91}";
type = Stem;
},
{
horizontal = 1;
place = "{-10, 80}";
type = Stem;
},
{
horizontal = 1;
place = "{650, 80}";
type = Stem;
}
);
layerId = "CCC0BD40-BA8C-414E-B576-CF0B94E6C996";
paths = (
{
closed = 1;
nodes = (
"438 -10 OFFCURVE",
"528 70.123 OFFCURVE",
"528 190.307 CURVE SMOOTH",
"528 289.164 OFFCURVE",
"472.147 365.913 OFFCURVE",
"375 397 CURVE SMOOTH",
"275 429 LINE SMOOTH",
"214.939 448.22 OFFCURVE",
"182 493.947 OFFCURVE",
"182 554 CURVE SMOOTH",
"182 620.119 OFFCURVE",
"227.14 661 OFFCURVE",
"305 661 CURVE SMOOTH",
"383.914 661 OFFCURVE",
"429 617.079 OFFCURVE",
"429 545 CURVE",
"519 545 LINE",
"517.04 662.6 OFFCURVE",
"433.64 741 OFFCURVE",
"306 741 CURVE SMOOTH",
"175.8 741 OFFCURVE",
"92 663 OFFCURVE",
"92 546 CURVE SMOOTH",
"92 447.937 OFFCURVE",
"148.141 373.269 OFFCURVE",
"248 342 CURVE SMOOTH",
"347 311 LINE SMOOTH",
"404.59 292.967 OFFCURVE",
"438 246.408 OFFCURVE",
"438 188.108 CURVE SMOOTH",
"438 115.377 OFFCURVE",
"387.591 70 OFFCURVE",
"303.587 70 CURVE SMOOTH",
"214.217 70 OFFCURVE",
"162 115.817 OFFCURVE",
"162 190 CURVE",
"72 190 LINE",
"74.029 66.228 OFFCURVE",
"160.962 -10 OFFCURVE",
"303.966 -10 CURVE SMOOTH"
);
}
);
width = 600;
},
{
layerId = "EDF5EB54-295C-4C90-9A2F-67CD82979CFF";
paths = (
{
closed = 1;
nodes = (
"433.912 -10 OFFCURVE",
"515 63.547 OFFCURVE",
"515 180.471 CURVE SMOOTH",
"515 275.925 OFFCURVE",
"453.344 354.251 OFFCURVE",
"354 385 CURVE SMOOTH",
"270 411 LINE SMOOTH",
"199.322 432.877 OFFCURVE",
"155 491.459 OFFCURVE",
"155 563 CURVE SMOOTH",
"155 645.141 OFFCURVE",
"211.658 695 OFFCURVE",
"305 695 CURVE SMOOTH",
"395.893 695 OFFCURVE",
"455 637.075 OFFCURVE",
"455 548 CURVE",
"505 548 LINE",
"505 665.854 OFFCURVE",
"428.151 740 OFFCURVE",
"306 740 CURVE SMOOTH",
"183.168 740 OFFCURVE",
"105 669.61 OFFCURVE",
"105 559 CURVE SMOOTH",
"105 464.46 OFFCURVE",
"161.867 391.611 OFFCURVE",
"258 363 CURVE SMOOTH",
"342 338 LINE SMOOTH",
"417.757 315.453 OFFCURVE",
"465 253.615 OFFCURVE",
"465 177 CURVE SMOOTH",
"465 88.264 OFFCURVE",
"404.984 35 OFFCURVE",
"305 35 CURVE SMOOTH",
"201.932 35 OFFCURVE",
"135 94.058 OFFCURVE",
"135 185 CURVE",
"85 185 LINE",
"85 65.518 OFFCURVE",
"170.199 -10 OFFCURVE",
"305 -10 CURVE SMOOTH"
);
}
);
width = 600;
}
);
unicode = 0053;
},
{
glyphname = Germandbls;
lastChange = "2020-06-29 09:35:36 +0000";
layers = (
{
layerId = "EDF5EB54-295C-4C90-9A2F-67CD82979CFF";
paths = (
{
closed = 1;
nodes = (
"160 0 LINE",
"160 543 LINE SMOOTH",
"160 629 OFFCURVE",
"217 685 OFFCURVE",
"305 685 CURVE SMOOTH",
"466 685 LINE",
"270 411 LINE",
"270 368 LINE",
"310 368 LINE SMOOTH",
"407 368 OFFCURVE",
"470 305 OFFCURVE",
"470 208 CURVE SMOOTH",
"470 109 OFFCURVE",
"407 45 OFFCURVE",
"310 45 CURVE SMOOTH",
"248 45 LINE",
"248 0 LINE",
"310 0 LINE SMOOTH",
"438 0 OFFCURVE",
"520 82 OFFCURVE",
"520 210 CURVE SMOOTH",
"520 330 OFFCURVE",
"438 407 OFFCURVE",
"310 407 CURVE",
"310 398 LINE",
"517 684 LINE",
"517 730 LINE",
"305 730 LINE SMOOTH",
"187 730 OFFCURVE",
"110 657 OFFCURVE",
"110 543 CURVE SMOOTH",
"110 0 LINE"
);
}
);
width = 600;
},
{
layerId = "9ADF6715-3D0F-493D-8567-18A6FBCFC567";
paths = (
{
closed = 1;
nodes = (
"195 0 LINE",
"195 511 LINE SMOOTH",
"195 568 OFFCURVE",
"234 605 OFFCURVE",
"295 605 CURVE SMOOTH",
"412 605 LINE",
"259 438 LINE",
"259 328 LINE",
"306 328 LINE SMOOTH",
"369 328 OFFCURVE",
"408 287 OFFCURVE",
"408 227 CURVE SMOOTH",
"408 167 OFFCURVE",
"370 125 OFFCURVE",
"306 125 CURVE SMOOTH",
"259 125 LINE",
"259 0 LINE",
"311 0 LINE SMOOTH",
"462 0 OFFCURVE",
"559 84 OFFCURVE",
"559 215 CURVE SMOOTH",
"559 344 OFFCURVE",
"471 427 OFFCURVE",
"336 425 CURVE",
"349 375 LINE",
"546 589 LINE",
"546 730 LINE",
"296 730 LINE SMOOTH",
"153 730 OFFCURVE",
"60 644 OFFCURVE",
"60 511 CURVE SMOOTH",
"60 0 LINE"
);
}
);
width = 600;
},
{
associatedMasterId = "CCC0BD40-BA8C-414E-B576-CF0B94E6C996";
components = (
{
name = germandbls;
}
);
layerId = "D3FC7A96-EBC7-438F-B833-AD84C12EF5BC";
name = "Jun 29 20, 12:20";
width = 600;
},
{
layerId = "CCC0BD40-BA8C-414E-B576-CF0B94E6C996";
paths = (
{
closed = 1;
nodes = (
"182 0 LINE",
"182 524 LINE SMOOTH",
"182 601 OFFCURVE",
"228 648 OFFCURVE",
"302 648 CURVE SMOOTH",
"434 648 LINE",
"270 423 LINE",
"270 345 LINE",
"315 345 LINE SMOOTH",
"395 345 OFFCURVE",
"445 295 OFFCURVE",
"445 215 CURVE SMOOTH",
"445 133 OFFCURVE",
"395 82 OFFCURVE",
"315 82 CURVE SMOOTH",
"258 82 LINE",
"258 0 LINE",
"325 0 LINE SMOOTH",
"454 0 OFFCURVE",
"540 86 OFFCURVE",
"540 215 CURVE SMOOTH",
"540 342 OFFCURVE",
"464 425 OFFCURVE",
"350 423 CURVE",
"350 400 LINE",
"529 642 LINE",
"529 730 LINE",
"302 730 LINE SMOOTH",
"176 730 OFFCURVE",
"92 648 OFFCURVE",
"92 524 CURVE SMOOTH",
"92 0 LINE"
);
}
);
width = 600;
}
);
unicode = 1E9E;
},
{
color = 1;
glyphname = uni018F;
lastChange = "2020-06-19 10:37:10 +0000";
layers = (
{
associatedMasterId = "EDF5EB54-295C-4C90-9A2F-67CD82979CFF";
layerId = "040298CF-5572-47E8-A6B5-8878BEE70FAE";
name = public.background;
paths = (
{
closed = 1;
nodes = (
"195 305 LINE",
"405 305 LINE",
"405 214 LINE SMOOTH",
"405 150 OFFCURVE",
"365 110 OFFCURVE",
"300 110 CURVE SMOOTH",
"235 110 OFFCURVE",
"195 150 OFFCURVE",
"195 215 CURVE SMOOTH"
);
},
{
closed = 1;
nodes = (
"150 730 OFFCURVE",
"50 640 OFFCURVE",
"50 505 CURVE",
"195 505 LINE",
"195 560 OFFCURVE",
"239 600 OFFCURVE",
"300 600 CURVE SMOOTH",
"363 600 OFFCURVE",
"405 559 OFFCURVE",
"405 505 CURVE SMOOTH",
"405 400 LINE",
"50 400 LINE",
"50 215 LINE SMOOTH",
"50 75 OFFCURVE",
"145 -10 OFFCURVE",
"300 -10 CURVE SMOOTH",
"454 -10 OFFCURVE",
"550 76 OFFCURVE",
"550 214 CURVE SMOOTH",
"550 505 LINE SMOOTH",
"550 642 OFFCURVE",
"451 730 OFFCURVE",
"300 730 CURVE SMOOTH"
);
}
);
width = 600;
},
{
layerId = "9ADF6715-3D0F-493D-8567-18A6FBCFC567";
paths = (
{
closed = 1;
nodes = (
"448 -10 OFFCURVE",
"540 78 OFFCURVE",
"540 210 CURVE SMOOTH",
"540 520 LINE SMOOTH",
"540 652.552 OFFCURVE",
"448.012 740 OFFCURVE",
"301 740 CURVE SMOOTH",
"155.336 740 OFFCURVE",
"62 654.084 OFFCURVE",
"62 520 CURVE",
"212 520 LINE",
"212 577.6 OFFCURVE",
"240.84 610 OFFCURVE",
"301 610 CURVE SMOOTH",
"360.66 610 OFFCURVE",
"390 578.079 OFFCURVE",
"390 520 CURVE",
"390 416 LINE",
"60 416 LINE",
"60 210 LINE SMOOTH",
"60 78 OFFCURVE",
"155.2 -10 OFFCURVE",
"301 -10 CURVE SMOOTH"
);
},
{
closed = 1;
nodes = (
"238.978 105 OFFCURVE",
"210 138.436 OFFCURVE",
"210 210 CURVE SMOOTH",
"210 316 LINE",
"200 306 LINE",
"390 306 LINE",
"390 210 LINE SMOOTH",
"390 141.513 OFFCURVE",
"366.559 105 OFFCURVE",
"301 105 CURVE SMOOTH"
);
}
);
width = 600;
},
{
layerId = "CCC0BD40-BA8C-414E-B576-CF0B94E6C996";
paths = (
{
closed = 1;
nodes = (
"430.088 -10 OFFCURVE",
"510 72.937 OFFCURVE",
"510 200 CURVE SMOOTH",
"510 530 LINE SMOOTH",
"510 660.831 OFFCURVE",
"433.323 740 OFFCURVE",
"300 740 CURVE SMOOTH",
"169.285 740 OFFCURVE",
"90 659.482 OFFCURVE",
"90 530 CURVE",
"180 530 LINE",
"180 613.244 OFFCURVE",
"221.879 660 OFFCURVE",
"300 660 CURVE SMOOTH",
"379.12 660 OFFCURVE",
"420 613.311 OFFCURVE",
"420 531 CURVE SMOOTH",
"420 400 LINE",
"90 400 LINE",
"90 200 LINE SMOOTH",
"90 72.648 OFFCURVE",
"169.616 -10 OFFCURVE",
"300 -10 CURVE SMOOTH"
);
},
{
closed = 1;
nodes = (
"217.808 65 OFFCURVE",
"180 112.73 OFFCURVE",
"180 200 CURVE SMOOTH",
"180 338 LINE",
"173 330 LINE",
"420 330 LINE",
"420 200 LINE SMOOTH",
"420 112.73 OFFCURVE",
"382.192 65 OFFCURVE",
"300 65 CURVE SMOOTH"
);
}
);
width = 600;
},
{
guideLines = (
{
angle = 90;
position = "{299, 0}";
}
);
layerId = "EDF5EB54-295C-4C90-9A2F-67CD82979CFF";
paths = (
{
closed = 1;
nodes = (
"420.803 -10 OFFCURVE",
"495 68.803 OFFCURVE",
"495 190 CURVE SMOOTH",
"495 540 LINE SMOOTH",
"495 661.684 OFFCURVE",
"421.293 740 OFFCURVE",
"299 740 CURVE SMOOTH",
"174.989 740 OFFCURVE",
"105 657.96 OFFCURVE",
"105 530 CURVE",
"155 530 LINE",
"155 631.564 OFFCURVE",
"204.207 695 OFFCURVE",
"299 695 CURVE SMOOTH",
"392.253 695 OFFCURVE",
"445 635.723 OFFCURVE",
"445 540 CURVE SMOOTH",
"445 378 LINE",
"105 378 LINE",
"105 190 LINE SMOOTH",
"105 68.673 OFFCURVE",
"178.28 -10 OFFCURVE",
"299 -10 CURVE SMOOTH"
);
},
{
closed = 1;
nodes = (
"207.13 34 OFFCURVE",
"155 93.814 OFFCURVE",
"155 190 CURVE SMOOTH",
"155 344 LINE",
"144 335 LINE",
"445 335 LINE",
"445 190 LINE SMOOTH",
"445 92.905 OFFCURVE",
"392.983 34 OFFCURVE",
"299 34 CURVE SMOOTH"
);
}
);
width = 600;
}
);
unicode = 018F;
},
{
glyphname = T;
lastChange = "2020-06-26 18:23:53 +0000";
layers = (
{
layerId = "9ADF6715-3D0F-493D-8567-18A6FBCFC567";
paths = (
{
closed = 1;
nodes = (
"375 0 LINE",
"375 590 LINE",
"560 590 LINE",
"560 730 LINE",
"40 730 LINE",
"40 590 LINE",
"225 590 LINE",
"225 0 LINE"
);
}
);
width = 600;
},
{
hints = (
{
place = "{254, 92}";
type = Stem;
},
{
horizontal = 1;
place = "{641, 79}";
type = Stem;
},
{
horizontal = 1;
place = "{0, 21}";
target = up;
type = BottomGhost;
}
);
layerId = "CCC0BD40-BA8C-414E-B576-CF0B94E6C996";
paths = (
{
closed = 1;
nodes = (
"345 0 LINE",
"345 649 LINE",
"545 649 LINE",
"545 731 LINE",
"55 731 LINE",
"55 649 LINE",
"255 649 LINE",
"255 0 LINE"
);
}
);
width = 600;
},
{
layerId = "EDF5EB54-295C-4C90-9A2F-67CD82979CFF";
paths = (
{
closed = 1;
nodes = (
"326 0 LINE",
"326 685 LINE",
"540 685 LINE",
"540 730 LINE",
"60 730 LINE",
"60 685 LINE",
"276 685 LINE",
"276 0 LINE"
);
}
);
width = 600;
}
);
unicode = 0054;
},
{
glyphname = Tbar;
lastChange = "2020-07-02 13:33:11 +0000";
layers = (
{
components = (
{
alignment = -1;
name = T;
}
);
layerId = "9ADF6715-3D0F-493D-8567-18A6FBCFC567";
paths = (
{
closed = 1;
nodes = (
"500 275 LINE",
"500 390 LINE",
"100 390 LINE",
"100 275 LINE"
);
}
);
width = 600;
},
{
components = (
{
alignment = -1;
name = T;
}
);
hints = (
{
horizontal = 1;
place = "{400, -20}";
target = down;
type = TopGhost;
},
{
horizontal = 1;
place = "{325, 21}";
target = up;
type = BottomGhost;
}
);
layerId = "CCC0BD40-BA8C-414E-B576-CF0B94E6C996";
paths = (
{
closed = 1;
nodes = (
"490 295 LINE",
"490 370 LINE",
"110 370 LINE",
"110 295 LINE"
);
}
);
width = 600;
},
{
components = (
{
alignment = -1;
name = T;
}
);
layerId = "EDF5EB54-295C-4C90-9A2F-67CD82979CFF";
paths = (
{
closed = 1;
nodes = (
"480 310 LINE",
"480 355 LINE",
"120 355 LINE",
"120 310 LINE"
);
}
);
width = 600;
}
);
unicode = 0166;
},
{
glyphname = U;
lastChange = "2020-06-26 18:23:26 +0000";
layers = (
{
layerId = "9ADF6715-3D0F-493D-8567-18A6FBCFC567";
paths = (
{
closed = 1;
nodes = (
"448 -10 OFFCURVE",
"540 76 OFFCURVE",
"540 214 CURVE SMOOTH",
"540 730 LINE",
"390 730 LINE",
"390 215 LINE SMOOTH",
"390 154 OFFCURVE",
"356 120 OFFCURVE",
"300 120 CURVE SMOOTH",
"243 120 OFFCURVE",
"210 154 OFFCURVE",
"210 215 CURVE SMOOTH",
"210 730 LINE",
"60 730 LINE",
"60 214 LINE SMOOTH",
"60 75 OFFCURVE",
"152 -10 OFFCURVE",
"300 -10 CURVE SMOOTH"
);
}
);
width = 600;
},
{
hints = (
{
place = "{85, 90}";
type = Stem;
},
{
place = "{425, 90}";
type = Stem;
},
{
horizontal = 1;
place = "{-10, 80}";
type = Stem;
},
{
horizontal = 1;
place = "{720, -20}";
target = down;
type = TopGhost;
}
);
layerId = "CCC0BD40-BA8C-414E-B576-CF0B94E6C996";
paths = (
{
closed = 1;
nodes = (
"437 -10 OFFCURVE",
"510 69 OFFCURVE",
"510 200 CURVE SMOOTH",
"510 730 LINE",
"420 730 LINE",
"420 200 LINE SMOOTH",
"420 120 OFFCURVE",
"380 70 OFFCURVE",
"300 70 CURVE SMOOTH",
"219 70 OFFCURVE",
"180 120 OFFCURVE",
"180 200 CURVE SMOOTH",
"180 730 LINE",
"90 730 LINE",
"90 200 LINE SMOOTH",
"90 70 OFFCURVE",
"164 -10 OFFCURVE",
"300 -10 CURVE SMOOTH"
);
}
);
width = 600;
},
{
layerId = "EDF5EB54-295C-4C90-9A2F-67CD82979CFF";
paths = (
{
closed = 1;
nodes = (
"417.189 -10 OFFCURVE",
"492 68.91 OFFCURVE",
"492 190 CURVE SMOOTH",
"492 730 LINE",
"442 730 LINE",
"442 190 LINE SMOOTH",
"442 92.767 OFFCURVE",
"390.451 35 OFFCURVE",
"301 35 CURVE SMOOTH",
"210.902 35 OFFCURVE",
"158 92.341 OFFCURVE",
"158 190 CURVE SMOOTH",
"158 730 LINE",
"108 730 LINE",
"108 190 LINE SMOOTH",
"108 68.987 OFFCURVE",
"184.222 -10 OFFCURVE",
"301 -10 CURVE SMOOTH"
);
}
);
width = 600;
}
);
unicode = 0055;
},
{
glyphname = V;
lastChange = "2020-07-02 10:20:21 +0000";
layers = (
{
associatedMasterId = "EDF5EB54-295C-4C90-9A2F-67CD82979CFF";
layerId = "040298CF-5572-47E8-A6B5-8878BEE70FAE";
name = public.background;
paths = (
{
closed = 1;
nodes = (
"206 0 LINE",
"396 0 LINE",
"575 730 LINE",
"423 730 LINE",
"324.161 269.797 LINE SMOOTH",
"314.628 225.411 OFFCURVE",
"313 155 OFFCURVE",
"313 155 CURVE",
"291 155 LINE",
"291 156.232 OFFCURVE",
"288.833 224.795 OFFCURVE",
"279.223 269 CURVE SMOOTH",
"179 730 LINE",
"25 730 LINE"
);
}
);
width = 600;
},
{
hints = (
{
horizontal = 1;
place = "{0, 21}";
type = Stem;
},
{
horizontal = 1;
place = "{730, -20}";
target = down;
type = TopGhost;
}
);
layerId = "9ADF6715-3D0F-493D-8567-18A6FBCFC567";
paths = (
{
closed = 1;
nodes = (
"396 0 LINE",
"575 730 LINE",
"424 730 LINE",
"326 270 LINE SMOOTH",
"316 225 OFFCURVE",
"305 145 OFFCURVE",
"305 145 CURVE",
"305 145 OFFCURVE",
"291 225 OFFCURVE",
"281 269 CURVE SMOOTH",
"180 730 LINE",
"25 730 LINE",
"206 0 LINE"
);
}
);
width = 600;
},
{
hints = (
{
horizontal = 1;
place = "{0, 21}";
target = up;
type = BottomGhost;
},
{
horizontal = 1;
place = "{730, -20}";
target = down;
type = TopGhost;
}
);
layerId = "CCC0BD40-BA8C-414E-B576-CF0B94E6C996";
paths = (
{
closed = 1;
nodes = (
"361 0 LINE",
"550 730 LINE",
"459 730 LINE",
"336 234 LINE SMOOTH",
"313 140 OFFCURVE",
"302 70 OFFCURVE",
"302 70 CURVE",
"302 70 OFFCURVE",
"291 140 OFFCURVE",
"267 235 CURVE SMOOTH",
"143 730 LINE",
"50 730 LINE",
"238 0 LINE"
);
}
);
width = 600;
},
{
hints = (
{
horizontal = 1;
place = "{0, 21}";
type = Stem;
},
{
horizontal = 1;
place = "{730, -20}";
target = down;
type = TopGhost;
}
);
layerId = "EDF5EB54-295C-4C90-9A2F-67CD82979CFF";
paths = (
{
closed = 1;
nodes = (
"332 0 LINE",
"532 730 LINE",
"483 730 LINE",
"335 180 LINE SMOOTH",
"314 100 OFFCURVE",
"301 40 OFFCURVE",
"301 40 CURVE",
"301 40 OFFCURVE",
"289 100 OFFCURVE",
"268 180 CURVE SMOOTH",
"121 730 LINE",
"68 730 LINE",
"268 0 LINE"
);
}
);
width = 600;
}
);
unicode = 0056;
},
{
glyphname = W;
lastChange = "2020-06-19 10:30:00 +0000";
layers = (
{
associatedMasterId = "EDF5EB54-295C-4C90-9A2F-67CD82979CFF";
layerId = "040298CF-5572-47E8-A6B5-8878BEE70FAE";
name = public.background;
paths = (
{
closed = 1;
nodes = (
"370 720 LINE",
"423 242 LINE SMOOTH",
"427 202 OFFCURVE",
"428 100 OFFCURVE",
"428 100 CURVE",
"439 100 LINE",
"439 100 OFFCURVE",
"438 202 OFFCURVE",
"441 242 CURVE SMOOTH",
"476 720 LINE",
"590 720 LINE",
"517 0 LINE",
"361 0 LINE",
"310 475 LINE SMOOTH",
"305 522 OFFCURVE",
"306 620 OFFCURVE",
"306 620 CURVE",
"296 620 LINE",
"296 620 OFFCURVE",
"297 522 OFFCURVE",
"291 475 CURVE SMOOTH",
"235 0 LINE",
"82 0 LINE",
"10 720 LINE",
"123 720 LINE",
"160 242 LINE SMOOTH",
"163 202 OFFCURVE",
"162 100 OFFCURVE",
"162 100 CURVE",
"173 100 LINE",
"173 100 OFFCURVE",
"171 202 OFFCURVE",
"176 242 CURVE SMOOTH",
"232 720 LINE"
);
},
{
closed = 1;
nodes = (
"10 730 LINE",
"133 730 LINE",
"170 242 LINE SMOOTH",
"173.033 202.002 OFFCURVE",
"171 100 OFFCURVE",
"171 100 CURVE",
"184 100 LINE",
"184 100 OFFCURVE",
"185.566 201.933 OFFCURVE",
"190 242 CURVE SMOOTH",
"244 730 LINE",
"358 730 LINE",
"410 242 LINE SMOOTH",
"414.259 202.027 OFFCURVE",
"418 100 OFFCURVE",
"418 100 CURVE",
"431 100 LINE",
"431 100 OFFCURVE",
"429.212 201.985 OFFCURVE",
"432 242 CURVE SMOOTH",
"466 730 LINE",
"590 730 LINE",
"517 0 LINE",
"361 0 LINE",
"312 485 LINE SMOOTH",
"307.249 532.026 OFFCURVE",
"308 640 OFFCURVE",
"308 640 CURVE",
"294 640 LINE",
"294 640 OFFCURVE",
"294.23 531.975 OFFCURVE",
"289 485 CURVE SMOOTH",
"235 0 LINE",
"78 0 LINE"
);
}
);
width = 600;
},
{
layerId = "9ADF6715-3D0F-493D-8567-18A6FBCFC567";
paths = (
{
closed = 1;
nodes = (
"235 0 LINE",
"289 485 LINE SMOOTH",
"294.23 531.975 OFFCURVE",
"300 640 OFFCURVE",
"300 640 CURVE",
"300 640 OFFCURVE",
"307.249 532.026 OFFCURVE",
"312 485 CURVE SMOOTH",
"361 0 LINE",
"517 0 LINE",
"590 730 LINE",
"466 730 LINE",
"432 242 LINE SMOOTH",
"429.212 201.985 OFFCURVE",
"426 100 OFFCURVE",
"426 100 CURVE",
"426 100 OFFCURVE",
"414.259 202.027 OFFCURVE",
"410 242 CURVE SMOOTH",
"358 730 LINE",
"244 730 LINE",
"190 242 LINE SMOOTH",
"185.566 201.933 OFFCURVE",
"176 100 OFFCURVE",
"176 100 CURVE",
"176 100 OFFCURVE",
"173.033 202.002 OFFCURVE",
"170 242 CURVE SMOOTH",
"133 730 LINE",
"10 730 LINE",
"78 0 LINE"
);
}
);
width = 600;
},
{
hints = (
{
horizontal = 1;
place = "{720, -20}";
target = down;
type = TopGhost;
},
{
horizontal = 1;
place = "{0, 21}";
target = up;
type = BottomGhost;
}
);
layerId = "CCC0BD40-BA8C-414E-B576-CF0B94E6C996";
paths = (
{
closed = 1;
nodes = (
"222 0 LINE",
"288.871 550.348 LINE SMOOTH",
"296.365 612.022 OFFCURVE",
"302 667 OFFCURVE",
"302 667 CURVE",
"302 667 OFFCURVE",
"306.518 612.301 OFFCURVE",
"313.575 550.107 CURVE SMOOTH",
"376 0 LINE",
"489 0 LINE",
"575 730 LINE",
"493 730 LINE",
"435.808 189.742 LINE SMOOTH",
"429.507 130.227 OFFCURVE",
"425 65 OFFCURVE",
"425 65 CURVE",
"425 65 OFFCURVE",
"418.066 129.593 OFFCURVE",
"411.115 190.017 CURVE SMOOTH",
"349 730 LINE",
"256 730 LINE",
"188.172 189.965 LINE SMOOTH",
"180.63 129.919 OFFCURVE",
"175 64.773 OFFCURVE",
"175 65 CURVE",
"175 65 OFFCURVE",
"171.761 130.29 OFFCURVE",
"165.701 190.1 CURVE SMOOTH",
"111 730 LINE",
"25 730 LINE",
"109 0 LINE"
);
}
);
width = 600;
},
{
layerId = "EDF5EB54-295C-4C90-9A2F-67CD82979CFF";
paths = (
{
closed = 1;
nodes = (
"200 0 LINE",
"279.566 529.644 LINE SMOOTH",
"290.21 600.5 OFFCURVE",
"303 690 OFFCURVE",
"303 690 CURVE",
"303 690 OFFCURVE",
"314.519 600.12 OFFCURVE",
"324.119 530.271 CURVE SMOOTH",
"397 0 LINE",
"469 0 LINE",
"560 730 LINE",
"513 730 LINE",
"451.224 190.033 LINE SMOOTH",
"445.446 139.521 OFFCURVE",
"430 35 OFFCURVE",
"430 35 CURVE",
"430 35 OFFCURVE",
"416.21 139.77 OFFCURVE",
"409.301 189.986 CURVE SMOOTH",
"335 730 LINE",
"271 730 LINE",
"193.835 190.017 LINE SMOOTH",
"186.656 139.78 OFFCURVE",
"172 35 OFFCURVE",
"172 35 CURVE",
"172 35 OFFCURVE",
"160.316 139.59 OFFCURVE",
"153.931 190.313 CURVE SMOOTH",
"86 730 LINE",
"40 730 LINE",
"130 0 LINE"
);
}
);
width = 600;
}
);
unicode = 0057;
},
{
glyphname = X;
lastChange = "2020-06-19 10:30:00 +0000";
layers = (
{
layerId = "9ADF6715-3D0F-493D-8567-18A6FBCFC567";
paths = (
{
closed = 1;
nodes = (
"181 0 LINE",
"268.778 180.378 LINE SMOOTH",
"288.277 220.446 OFFCURVE",
"297 250 OFFCURVE",
"297 250 CURVE",
"297 250 OFFCURVE",
"307.828 220.364 OFFCURVE",
"327.234 180.463 CURVE SMOOTH",
"415 0 LINE",
"580 0 LINE",
"384 377 LINE",
"567 730 LINE",
"406 730 LINE",
"327.88 569.854 LINE SMOOTH",
"308.556 530.239 OFFCURVE",
"302 504 OFFCURVE",
"302 504 CURVE",
"302 504 OFFCURVE",
"293.511 529.893 OFFCURVE",
"274.283 570.178 CURVE SMOOTH",
"198 730 LINE",
"33 730 LINE",
"216 377 LINE",
"20 0 LINE"
);
}
);
width = 600;
},
{
hints = (
{
horizontal = 1;
place = "{720, -20}";
target = down;
type = TopGhost;
},
{
horizontal = 1;
place = "{0, 21}";
target = up;
type = BottomGhost;
}
);
layerId = "CCC0BD40-BA8C-414E-B576-CF0B94E6C996";
paths = (
{
closed = 1;
nodes = (
"140 0 LINE",
"266 233 LINE SMOOTH",
"282.173 262.907 OFFCURVE",
"299 300 OFFCURVE",
"299 300 CURVE",
"299 300 OFFCURVE",
"315.23 263.125 OFFCURVE",
"332 232 CURVE SMOOTH",
"457 0 LINE",
"560 0 LINE",
"350 376 LINE",
"549 730 LINE",
"450 730 LINE",
"335 514 LINE SMOOTH",
"317.971 482.015 OFFCURVE",
"302 447 OFFCURVE",
"302 447 CURVE",
"302 447 OFFCURVE",
"284.389 482.673 OFFCURVE",
"268 514 CURVE SMOOTH",
"155 730 LINE",
"51 730 LINE",
"250 370 LINE",
"40 0 LINE"
);
}
);
width = 600;
},
{
associatedMasterId = "EDF5EB54-295C-4C90-9A2F-67CD82979CFF";
layerId = "040298CF-5572-47E8-A6B5-8878BEE70FAE";
name = public.background;
paths = (
{
closed = 1;
nodes = (
"45 0 LINE",
"270 380 LINE",
"60 730 LINE",
"116 730 LINE",
"246 508 LINE SMOOTH",
"263.896 477.439 OFFCURVE",
"295 423 OFFCURVE",
"295 423 CURVE",
"306 423 LINE",
"306 423 OFFCURVE",
"335.31 476.566 OFFCURVE",
"354 508 CURVE SMOOTH",
"486 730 LINE",
"540 730 LINE",
"330 382 LINE",
"555 0 LINE",
"499 0 LINE",
"355 252 LINE SMOOTH",
"338.681 280.558 OFFCURVE",
"306 338 OFFCURVE",
"306 338 CURVE",
"295 338 LINE",
"295 338 OFFCURVE",
"264.681 280.402 OFFCURVE",
"248 252 CURVE SMOOTH",
"100 0 LINE"
);
}
);
width = 600;
},
{
layerId = "EDF5EB54-295C-4C90-9A2F-67CD82979CFF";
paths = (
{
closed = 1;
nodes = (
"108 0 LINE",
"248 252 LINE SMOOTH",
"263.996 280.793 OFFCURVE",
"301 345 OFFCURVE",
"301 345 CURVE",
"300.502 345 OFFCURVE",
"339.379 280.945 OFFCURVE",
"355 252 CURVE SMOOTH",
"491 0 LINE",
"547 0 LINE",
"330 382 LINE",
"532 730 LINE",
"478 730 LINE",
"354 508 LINE SMOOTH",
"336.167 476.072 OFFCURVE",
"300 415 OFFCURVE",
"300 415 CURVE",
"300 415 OFFCURVE",
"263.057 476.962 OFFCURVE",
"246 508 CURVE SMOOTH",
"124 730 LINE",
"68 730 LINE",
"270 380 LINE",
"53 0 LINE"
);
}
);
width = 600;
}
);
unicode = 0058;
},
{
glyphname = Y;
lastChange = "2020-06-19 10:30:00 +0000";
layers = (
{
associatedMasterId = "EDF5EB54-295C-4C90-9A2F-67CD82979CFF";
layerId = "040298CF-5572-47E8-A6B5-8878BEE70FAE";
name = public.background;
paths = (
{
closed = 1;
nodes = (
"477 730 LINE",
"570 730 LINE",
"345 250 LINE",
"345 0 LINE",
"255 0 LINE",
"255 250 LINE",
"30 730 LINE",
"122 730 LINE",
"201 563 LINE SMOOTH",
"246.338 467.159 OFFCURVE",
"291 349 OFFCURVE",
"291 349 CURVE",
"311 349 LINE",
"311 349 OFFCURVE",
"355.783 467.1 OFFCURVE",
"400 563 CURVE SMOOTH"
);
}
);
width = 600;
},
{
layerId = "9ADF6715-3D0F-493D-8567-18A6FBCFC567";
paths = (
{
closed = 1;
nodes = (
"375 0 LINE",
"375 260 LINE",
"585 730 LINE",
"429 730 LINE",
"339.997 510.06 LINE SMOOTH",
"315.807 450.282 OFFCURVE",
"303 380 OFFCURVE",
"303 380 CURVE",
"302.98 380 OFFCURVE",
"289.414 449.511 OFFCURVE",
"264.094 509.998 CURVE SMOOTH",
"172 730 LINE",
"15 730 LINE",
"225 260 LINE",
"225 0 LINE"
);
}
);
width = 600;
},
{
hints = (
{
place = "{255, 90}";
type = Stem;
},
{
horizontal = 1;
place = "{720, -20}";
target = down;
type = TopGhost;
},
{
horizontal = 1;
place = "{0, 21}";
target = up;
type = BottomGhost;
}
);
layerId = "CCC0BD40-BA8C-414E-B576-CF0B94E6C996";
paths = (
{
closed = 1;
nodes = (
"345 0 LINE",
"345 273 LINE",
"565 730 LINE",
"472 730 LINE",
"330.023 430.361 LINE SMOOTH",
"308.362 384.646 OFFCURVE",
"301 362 OFFCURVE",
"301 362 CURVE",
"300.842 362 OFFCURVE",
"294.41 385.112 OFFCURVE",
"272.961 429.566 CURVE SMOOTH",
"128 730 LINE",
"35 730 LINE",
"255 273 LINE",
"255 0 LINE"
);
}
);
width = 600;
},
{
layerId = "EDF5EB54-295C-4C90-9A2F-67CD82979CFF";
paths = (
{
closed = 1;
nodes = (
"325 0 LINE",
"325 280 LINE",
"550 730 LINE",
"498 730 LINE",
"335.009 400.011 LINE SMOOTH",
"314.97 359.442 OFFCURVE",
"300.812 330 OFFCURVE",
"301 330 CURVE",
"301 330 OFFCURVE",
"286.477 360.358 OFFCURVE",
"266.519 400.348 CURVE SMOOTH",
"102 730 LINE",
"50 730 LINE",
"275 280 LINE",
"275 0 LINE"
);
}
);
width = 600;
}
);
unicode = 0059;
},
{
glyphname = Z;
lastChange = "2020-06-19 10:30:00 +0000";
layers = (
{
layerId = "9ADF6715-3D0F-493D-8567-18A6FBCFC567";
paths = (
{
closed = 1;
nodes = (
"525 0 LINE",
"525 140 LINE",
"245 140 LINE",
"514 590 LINE",
"514 730 LINE",
"83 730 LINE",
"83 590 LINE",
"343 590 LINE",
"75 140 LINE",
"75 0 LINE"
);
}
);
width = 600;
},
{
hints = (
{
horizontal = 1;
place = "{0, 79}";
type = Stem;
},
{
horizontal = 1;
place = "{641, 79}";
type = Stem;
}
);
layerId = "CCC0BD40-BA8C-414E-B576-CF0B94E6C996";
paths = (
{
closed = 1;
nodes = (
"515 0 LINE",
"515 82 LINE",
"176 82 LINE",
"505 640 LINE",
"505 730 LINE",
"90 730 LINE",
"90 648 LINE",
"414 649 LINE",
"85 90 LINE",
"85 0 LINE"
);
}
);
width = 600;
},
{
layerId = "EDF5EB54-295C-4C90-9A2F-67CD82979CFF";
paths = (
{
closed = 1;
nodes = (
"508 0 LINE",
"508 45 LINE",
"142 45 LINE",
"495 674 LINE",
"495 730 LINE",
"95 730 LINE",
"95 685 LINE",
"447 685 LINE",
"91 49 LINE",
"91 0 LINE"
);
}
);
width = 600;
}
);
unicode = 005A;
},
{
glyphname = a;
lastChange = "2020-06-26 17:11:14 +0000";
layers = (
{
layerId = "9ADF6715-3D0F-493D-8567-18A6FBCFC567";
paths = (
{
closed = 1;
nodes = (
"326.686 -10 OFFCURVE",
"392 42.488 OFFCURVE",
"392 125 CURVE",
"367.408 90 LINE",
"391 90 LINE",
"391 0 LINE",
"536 0 LINE",
"536 370 LINE SMOOTH",
"536 491.5 OFFCURVE",
"453.762 560 OFFCURVE",
"307.894 560 CURVE SMOOTH",
"174.108 560 OFFCURVE",
"83.895 491.162 OFFCURVE",
"72 380 CURVE",
"217 380 LINE",
"224.972 418.936 OFFCURVE",
"255.484 440 OFFCURVE",
"303.911 440 CURVE SMOOTH",
"358.525 440 OFFCURVE",
"386 416.571 OFFCURVE",
"386 370 CURVE SMOOTH",
"386 329 LINE",
"272 329 LINE SMOOTH",
"128.376 329 OFFCURVE",
"49 267.842 OFFCURVE",
"49 157 CURVE SMOOTH",
"49 54.064 OFFCURVE",
"117.93 -10 OFFCURVE",
"228.727 -10 CURVE SMOOTH"
);
},
{
closed = 1;
nodes = (
"232.266 100 OFFCURVE",
"199 128.374 OFFCURVE",
"199 173 CURVE SMOOTH",
"199 215.739 OFFCURVE",
"229.424 244 OFFCURVE",
"275 244 CURVE SMOOTH",
"386 244 LINE",
"386 185 LINE SMOOTH",
"386 131.847 OFFCURVE",
"346.282 100 OFFCURVE",
"285 100 CURVE SMOOTH"
);
}
);
width = 600;
},
{
layerId = "CCC0BD40-BA8C-414E-B576-CF0B94E6C996";
paths = (
{
closed = 1;
nodes = (
"347.988 -10 OFFCURVE",
"422 39 OFFCURVE",
"422 116 CURVE",
"401 105 LINE",
"422 105 LINE",
"422 0 LINE",
"510 0 LINE",
"510 378 LINE SMOOTH",
"510 490 OFFCURVE",
"429.664 559 OFFCURVE",
"302 559 CURVE SMOOTH",
"188.43 559 OFFCURVE",
"105.223 497.689 OFFCURVE",
"93 405 CURVE",
"183 405 LINE",
"190.056 451.456 OFFCURVE",
"234.873 480 OFFCURVE",
"301 480 CURVE SMOOTH",
"376.358 480 OFFCURVE",
"420 442 OFFCURVE",
"420 375 CURVE SMOOTH",
"420 322 LINE",
"250 322 LINE SMOOTH",
"135.431 322 OFFCURVE",
"65 257.66 OFFCURVE",
"65 153 CURVE SMOOTH",
"65 53.395 OFFCURVE",
"136.694 -10 OFFCURVE",
"249 -10 CURVE SMOOTH"
);
},
{
closed = 1;
nodes = (
"198.89 61 OFFCURVE",
"155 98.437 OFFCURVE",
"155 159.027 CURVE SMOOTH",
"155 216.915 OFFCURVE",
"192.06 253 OFFCURVE",
"252 253 CURVE SMOOTH",
"420 253 LINE",
"420 175 LINE SMOOTH",
"420 106 OFFCURVE",
"356.682 61 OFFCURVE",
"269.924 61 CURVE SMOOTH"
);
}
);
width = 600;
},
{
associatedMasterId = "EDF5EB54-295C-4C90-9A2F-67CD82979CFF";
hints = (
{
place = "{82, 50}";
type = Stem;
},
{
place = "{423, 50}";
type = Stem;
},
{
horizontal = 1;
place = "{-10, 44}";
type = Stem;
},
{
horizontal = 1;
place = "{260, 44}";
type = Stem;
},
{
horizontal = 1;
place = "{515, 45}";
type = Stem;
}
);
layerId = "040298CF-5572-47E8-A6B5-8878BEE70FAE";
name = public.background;
paths = (
{
closed = 1;
nodes = (
"375.4 -10 OFFCURVE",
"430 44 OFFCURVE",
"430 125 CURVE",
"411.638 105 LINE",
"423 105 LINE",
"423 87 LINE SMOOTH",
"423 33.839 OFFCURVE",
"461.915 -3 OFFCURVE",
"518.072 -3 CURVE SMOOTH",
"566.374 -3 LINE",
"565.825 41.912 LINE",
"516.146 42.404 LINE SMOOTH",
"490.25 42.661 OFFCURVE",
"473 60.939 OFFCURVE",
"473 87 CURVE SMOOTH",
"473 375 LINE SMOOTH",
"473 489.995 OFFCURVE",
"412.617 560 OFFCURVE",
"297 560 CURVE SMOOTH",
"190.889 560 OFFCURVE",
"124.229 501.45 OFFCURVE",
"109 405 CURVE",
"159 405 LINE",
"168.132 472.842 OFFCURVE",
"216.374 515 OFFCURVE",
"296 515 CURVE SMOOTH",
"383.463 515 OFFCURVE",
"423 464.346 OFFCURVE",
"423 375 CURVE SMOOTH",
"423 304 LINE",
"253 304 LINE SMOOTH",
"147.252 304 OFFCURVE",
"82 245.224 OFFCURVE",
"82 149.972 CURVE SMOOTH",
"82 51.378 OFFCURVE",
"150.638 -10 OFFCURVE",
"263.5 -10 CURVE SMOOTH"
);
},
{
closed = 1;
nodes = (
"185.071 34 OFFCURVE",
"132.003 78.624 OFFCURVE",
"132.003 150.126 CURVE SMOOTH",
"132.003 218.808 OFFCURVE",
"176.991 260 OFFCURVE",
"252 260 CURVE SMOOTH",
"423 260 LINE",
"423 160.172 LINE SMOOTH",
"423 83.745 OFFCURVE",
"374.833 34 OFFCURVE",
"270.103 34 CURVE SMOOTH"
);
}
);
width = 600;
},
{
layerId = "EDF5EB54-295C-4C90-9A2F-67CD82979CFF";
paths = (
{
closed = 1;
nodes = (
"375.4 -10 OFFCURVE",
"449 44 OFFCURVE",
"449 125 CURVE",
"430.638 105 LINE",
"442 105 LINE",
"442 0 LINE",
"492 0 LINE",
"492 375 LINE SMOOTH",
"492 489.995 OFFCURVE",
"419.617 560 OFFCURVE",
"304 560 CURVE SMOOTH",
"197.889 560 OFFCURVE",
"124.229 501.45 OFFCURVE",
"109 405 CURVE",
"159 405 LINE",
"168.132 472.842 OFFCURVE",
"223.374 515 OFFCURVE",
"303 515 CURVE SMOOTH",
"390.463 515 OFFCURVE",
"442 464.346 OFFCURVE",
"442 375 CURVE SMOOTH",
"442 304 LINE",
"253 304 LINE SMOOTH",
"147.252 304 OFFCURVE",
"82 245.224 OFFCURVE",
"82 149.972 CURVE SMOOTH",
"82 51.378 OFFCURVE",
"150.638 -10 OFFCURVE",
"263.5 -10 CURVE SMOOTH"
);
},
{
closed = 1;
nodes = (
"185.071 34 OFFCURVE",
"132.003 78.624 OFFCURVE",
"132.003 150.126 CURVE SMOOTH",
"132.003 218.808 OFFCURVE",
"176.991 260 OFFCURVE",
"252 260 CURVE SMOOTH",
"442 260 LINE",
"442 160.172 LINE SMOOTH",
"442 83.745 OFFCURVE",
"374.833 34 OFFCURVE",
"270.103 34 CURVE SMOOTH"
);
}
);
width = 600;
}
);
unicode = 0061;
},
{
color = 1;
glyphname = ae;
lastChange = "2020-06-19 10:37:10 +0000";
layers = (
{
layerId = "9ADF6715-3D0F-493D-8567-18A6FBCFC567";
paths = (
{
closed = 1;
nodes = (
"283 -10 OFFCURVE",
"296 65 OFFCURVE",
"296 65 CURVE",
"304 65 LINE",
"304 65 OFFCURVE",
"315 -10 OFFCURVE",
"420 -10 CURVE SMOOTH",
"507 -10 OFFCURVE",
"565 50 OFFCURVE",
"565 140 CURVE",
"450 140 LINE",
"450 106.495 OFFCURVE",
"433.08 87 OFFCURVE",
"404 87 CURVE SMOOTH",
"374.561 87 OFFCURVE",
"357 106.803 OFFCURVE",
"357 140 CURVE SMOOTH",
"357 250 LINE",
"565 250 LINE",
"565 410 LINE SMOOTH",
"565 500 OFFCURVE",
"507 560 OFFCURVE",
"420 560 CURVE SMOOTH",
"315 560 OFFCURVE",
"304 485 OFFCURVE",
"304 485 CURVE",
"296 485 LINE",
"296 485 OFFCURVE",
"285 560 OFFCURVE",
"181 560 CURVE SMOOTH",
"93.4 560 OFFCURVE",
"35 496 OFFCURVE",
"35 400 CURVE",
"150 400 LINE",
"150 439.756 OFFCURVE",
"168.079 463 OFFCURVE",
"199 463 CURVE SMOOTH",
"226.744 463 OFFCURVE",
"243 443.419 OFFCURVE",
"243 410 CURVE SMOOTH",
"243 330 LINE",
"200 330 LINE SMOOTH",
"101 330 OFFCURVE",
"35 274 OFFCURVE",
"35 190 CURVE SMOOTH",
"35 140 LINE SMOOTH",
"35 50 OFFCURVE",
"89.8 -10 OFFCURVE",
"172 -10 CURVE SMOOTH"
);
},
{
closed = 1;
nodes = (
"168.245 87 OFFCURVE",
"150 106.735 OFFCURVE",
"150 140 CURVE SMOOTH",
"150 190 LINE SMOOTH",
"150 227.5 OFFCURVE",
"168.75 250 OFFCURVE",
"200 250 CURVE SMOOTH",
"243 250 LINE",
"243 140 LINE SMOOTH",
"243 106.636 OFFCURVE",
"226.698 87 OFFCURVE",
"199 87 CURVE SMOOTH"
);
},
{
closed = 1;
nodes = (
"357 410 LINE SMOOTH",
"357 443.286 OFFCURVE",
"374.482 463 OFFCURVE",
"404 463 CURVE SMOOTH",
"433.127 463 OFFCURVE",
"450 443.559 OFFCURVE",
"450 410 CURVE SMOOTH",
"450 330 LINE",
"357 330 LINE"
);
}
);
width = 600;
},
{
hints = (
{
place = "{35, 90}";
type = Stem;
},
{
place = "{262, 81}";
type = Stem;
},
{
place = "{480, 85}";
type = Stem;
},
{
horizontal = 1;
place = "{-10, 77}";
type = Stem;
},
{
horizontal = 1;
place = "{255, 70}";
type = Stem;
},
{
horizontal = 1;
place = "{425, 135}";
type = Stem;
},
{
horizontal = 1;
place = "{483, 77}";
type = Stem;
},
{
horizontal = 1;
place = "{-10, 135}";
type = Stem;
}
);
layerId = "CCC0BD40-BA8C-414E-B576-CF0B94E6C996";
paths = (
{
closed = 1;
nodes = (
"287 -10 OFFCURVE",
"301 70 OFFCURVE",
"301 70 CURVE",
"305 70 LINE",
"305 70 OFFCURVE",
"317 -10 OFFCURVE",
"420 -10 CURVE SMOOTH",
"507 -10 OFFCURVE",
"565 46 OFFCURVE",
"565 130 CURVE",
"480 130 LINE",
"480 91.432 OFFCURVE",
"452.853 67 OFFCURVE",
"410 67 CURVE SMOOTH",
"370 67 OFFCURVE",
"343 100 OFFCURVE",
"343 150 CURVE SMOOTH",
"343 255 LINE",
"565 255 LINE",
"565 400 LINE SMOOTH",
"565 499 OFFCURVE",
"510 560 OFFCURVE",
"420 560 CURVE SMOOTH",
"319 560 OFFCURVE",
"305 480 OFFCURVE",
"305 480 CURVE",
"301 480 LINE",
"301 480 OFFCURVE",
"287 560 OFFCURVE",
"180 560 CURVE SMOOTH",
"100.2 560 OFFCURVE",
"47 504 OFFCURVE",
"47 420 CURVE",
"132 420 LINE",
"132 458.106 OFFCURVE",
"156.894 483 OFFCURVE",
"195 483 CURVE SMOOTH",
"241 483 OFFCURVE",
"262 457 OFFCURVE",
"262 399 CURVE SMOOTH",
"262 325 LINE",
"188 325 LINE SMOOTH",
"95 325 OFFCURVE",
"35 272 OFFCURVE",
"35 190 CURVE SMOOTH",
"35 130 LINE SMOOTH",
"35 44 OFFCURVE",
"87 -10 OFFCURVE",
"170 -10 CURVE SMOOTH"
);
},
{
closed = 1;
nodes = (
"150 67 OFFCURVE",
"125 91 OFFCURVE",
"125 130 CURVE SMOOTH",
"125 190 LINE SMOOTH",
"125 230 OFFCURVE",
"149 255 OFFCURVE",
"190 255 CURVE SMOOTH",
"262 255 LINE",
"262 150 LINE SMOOTH",
"262 100 OFFCURVE",
"233 67 OFFCURVE",
"190 67 CURVE SMOOTH"
);
},
{
closed = 1;
nodes = (
"343 400 LINE SMOOTH",
"343 450 OFFCURVE",
"368 483 OFFCURVE",
"410 483 CURVE SMOOTH",
"454 483 OFFCURVE",
"480 450 OFFCURVE",
"480 400 CURVE SMOOTH",
"480 325 LINE",
"343 325 LINE"
);
}
);
width = 600;
},
{
layerId = "EDF5EB54-295C-4C90-9A2F-67CD82979CFF";
paths = (
{
closed = 1;
nodes = (
"285 -10 OFFCURVE",
"301 75 OFFCURVE",
"301 75 CURVE",
"304 75 LINE",
"304 75 OFFCURVE",
"321 -10 OFFCURVE",
"426 -10 CURVE SMOOTH",
"507 -10 OFFCURVE",
"554 43 OFFCURVE",
"561 125 CURVE",
"511 125 LINE",
"506 72 OFFCURVE",
"475 35 OFFCURVE",
"423 35 CURVE SMOOTH",
"366 35 OFFCURVE",
"328 79 OFFCURVE",
"328 140 CURVE SMOOTH",
"328 268 LINE",
"560 268 LINE",
"560 410 LINE SMOOTH",
"560 500 OFFCURVE",
"507 560 OFFCURVE",
"423 560 CURVE SMOOTH",
"326 560 OFFCURVE",
"304 474 OFFCURVE",
"304 474 CURVE",
"302 474 LINE",
"302 474 OFFCURVE",
"285 560 OFFCURVE",
"180 560 CURVE SMOOTH",
"99 560 OFFCURVE",
"47 507 OFFCURVE",
"40 425 CURVE",
"90 425 LINE",
"95 478 OFFCURVE",
"131 516 OFFCURVE",
"183 516 CURVE SMOOTH",
"239 516 OFFCURVE",
"278 471 OFFCURVE",
"278 410 CURVE SMOOTH",
"278 313 LINE",
"170 313 LINE SMOOTH",
"89 313 OFFCURVE",
"40 263 OFFCURVE",
"40 185 CURVE SMOOTH",
"40 139 LINE SMOOTH",
"40 50 OFFCURVE",
"91 -10 OFFCURVE",
"174 -10 CURVE SMOOTH"
);
},
{
closed = 1;
nodes = (
"127 32 OFFCURVE",
"90 77 OFFCURVE",
"90 139 CURVE SMOOTH",
"90 185 LINE SMOOTH",
"90 233.9 OFFCURVE",
"122.867 268 OFFCURVE",
"170 268 CURVE SMOOTH",
"278 268 LINE",
"278 140 LINE SMOOTH",
"278 78 OFFCURVE",
"238 32 OFFCURVE",
"183 32 CURVE SMOOTH"
);
},
{
closed = 1;
nodes = (
"328 410 LINE SMOOTH",
"328 470 OFFCURVE",
"366 516 OFFCURVE",
"420 516 CURVE SMOOTH",
"474 516 OFFCURVE",
"510 470 OFFCURVE",
"510 410 CURVE SMOOTH",
"510 313 LINE",
"328 313 LINE"
);
}
);
width = 600;
}
);
unicode = 00E6;
},
{
glyphname = b;
lastChange = "2020-06-26 17:16:52 +0000";
layers = (
{
associatedMasterId = "EDF5EB54-295C-4C90-9A2F-67CD82979CFF";
layerId = "040298CF-5572-47E8-A6B5-8878BEE70FAE";
name = public.background;
paths = (
{
closed = 1;
nodes = (
"228.108 68 OFFCURVE",
"185 118.299 OFFCURVE",
"185 200 CURVE SMOOTH",
"185 350 LINE SMOOTH",
"185 432.21 OFFCURVE",
"227.885 482 OFFCURVE",
"303 482 CURVE SMOOTH",
"383.377 482 OFFCURVE",
"420 433.541 OFFCURVE",
"420 350 CURVE SMOOTH",
"420 200 LINE SMOOTH",
"420 116.914 OFFCURVE",
"382.939 68 OFFCURVE",
"303 68 CURVE SMOOTH"
);
},
{
closed = 1;
nodes = (
"95 0 LINE",
"186 0 LINE",
"186 100 LINE",
"208 100 LINE",
"185 120 LINE",
"185 38.862 OFFCURVE",
"243.651 -10 OFFCURVE",
"332.741 -10 CURVE SMOOTH",
"445.87 -10 OFFCURVE",
"510 69.17 OFFCURVE",
"510 194 CURVE SMOOTH",
"510 355 LINE SMOOTH",
"510 478 OFFCURVE",
"447.656 560 OFFCURVE",
"333.264 560 CURVE SMOOTH",
"243.689 560 OFFCURVE",
"184.995 511.156 OFFCURVE",
"185.355 430 CURVE",
"209.355 450 LINE",
"185.355 450 LINE",
"184.916 600 LINE",
"185 730 LINE",
"95 730 LINE"
);
}
);
width = 600;
},
{
layerId = "9ADF6715-3D0F-493D-8567-18A6FBCFC567";
paths = (
{
closed = 1;
nodes = (
"468.235 -10 OFFCURVE",
"540 73.32 OFFCURVE",
"540 204.814 CURVE SMOOTH",
"540 344.814 LINE SMOOTH",
"540 475.712 OFFCURVE",
"467.633 559.814 OFFCURVE",
"357.173 559.814 CURVE SMOOTH",
"265.856 559.814 OFFCURVE",
"211 504.89 OFFCURVE",
"211 410 CURVE",
"245.895 445 LINE",
"211 445 LINE",
"216 579.814 LINE",
"216 729.814 LINE",
"66 729.814 LINE",
"66 -0.186 LINE",
"211 -0.186 LINE",
"211 104.814 LINE",
"245.895 104.814 LINE",
"211 139.814 LINE",
"211 44.924 OFFCURVE",
"265.856 -10 OFFCURVE",
"357.173 -10 CURVE SMOOTH"
);
},
{
closed = 1;
nodes = (
"247.554 119.814 OFFCURVE",
"216 152.456 OFFCURVE",
"216 209.814 CURVE SMOOTH",
"216 339.814 LINE SMOOTH",
"216 397.171 OFFCURVE",
"247.554 429.814 OFFCURVE",
"303 429.814 CURVE SMOOTH",
"358.677 429.814 OFFCURVE",
"390 397.41 OFFCURVE",
"390 339.814 CURVE SMOOTH",
"390 209.814 LINE SMOOTH",
"390 151.952 OFFCURVE",
"358.933 119.814 OFFCURVE",
"303 119.814 CURVE SMOOTH"
);
}
);
width = 600;
},
{
layerId = "CCC0BD40-BA8C-414E-B576-CF0B94E6C996";
paths = (
{
closed = 1;
nodes = (
"441.782 -10 OFFCURVE",
"512 68 OFFCURVE",
"512 194 CURVE SMOOTH",
"512 355 LINE SMOOTH",
"512 482 OFFCURVE",
"442.828 560 OFFCURVE",
"332.418 560 CURVE SMOOTH",
"241.544 560 OFFCURVE",
"182 507 OFFCURVE",
"182 424 CURVE",
"200 445 LINE",
"180 445 LINE",
"182 570 LINE",
"182 730 LINE",
"92 730 LINE",
"92 0 LINE",
"182 0 LINE",
"182 105 LINE",
"200 105 LINE",
"182 126 LINE",
"182 42 OFFCURVE",
"240.64 -10 OFFCURVE",
"332 -10 CURVE SMOOTH"
);
},
{
closed = 1;
nodes = (
"228.057 68 OFFCURVE",
"182 117 OFFCURVE",
"182 200 CURVE SMOOTH",
"182 350 LINE SMOOTH",
"182 433 OFFCURVE",
"228.057 482 OFFCURVE",
"302 482 CURVE SMOOTH",
"377.886 482 OFFCURVE",
"422 435 OFFCURVE",
"422 350 CURVE SMOOTH",
"422 200 LINE SMOOTH",
"422 115 OFFCURVE",
"377.886 68 OFFCURVE",
"302 68 CURVE SMOOTH"
);
}
);
width = 600;
},
{
layerId = "EDF5EB54-295C-4C90-9A2F-67CD82979CFF";
paths = (
{
closed = 1;
nodes = (
"422.899 -10 OFFCURVE",
"495 68.765 OFFCURVE",
"495 189 CURVE SMOOTH",
"495 360 LINE SMOOTH",
"495 479.726 OFFCURVE",
"422.861 560 OFFCURVE",
"313 560 CURVE SMOOTH",
"217.395 560 OFFCURVE",
"150 500.764 OFFCURVE",
"150 410 CURVE",
"178.186 475 LINE",
"160 475 LINE",
"160 580 LINE",
"160 730 LINE",
"110 730 LINE",
"110 0 LINE",
"160 0 LINE",
"160 75 LINE",
"187.923 75 LINE",
"150.125 140.063 LINE",
"149.998 49.322 OFFCURVE",
"217.344 -10 OFFCURVE",
"312.837 -10 CURVE SMOOTH"
);
},
{
closed = 1;
nodes = (
"212.97 33 OFFCURVE",
"160 90.982 OFFCURVE",
"160 189 CURVE SMOOTH",
"160 360 LINE SMOOTH",
"160 457.537 OFFCURVE",
"211.691 517 OFFCURVE",
"303.04 517 CURVE SMOOTH",
"392.219 517 OFFCURVE",
"445 457.937 OFFCURVE",
"445 360 CURVE SMOOTH",
"445 189 LINE SMOOTH",
"445 91.43 OFFCURVE",
"391.632 33 OFFCURVE",
"302.515 33 CURVE SMOOTH"
);
}
);
width = 600;
}
);
unicode = 0062;
},
{
glyphname = c;
lastChange = "2020-06-26 17:11:36 +0000";
layers = (
{
layerId = "9ADF6715-3D0F-493D-8567-18A6FBCFC567";
paths = (
{
closed = 1;
nodes = (
"448 -10 OFFCURVE",
"541 68 OFFCURVE",
"546 195 CURVE",
"396 195 LINE",
"392 147 OFFCURVE",
"358 120 OFFCURVE",
"303 120 CURVE SMOOTH",
"243 120 OFFCURVE",
"210 152 OFFCURVE",
"210 210 CURVE SMOOTH",
"210 340 LINE SMOOTH",
"210 398 OFFCURVE",
"243 430 OFFCURVE",
"303 430 CURVE SMOOTH",
"357 430 OFFCURVE",
"392 402 OFFCURVE",
"396 355 CURVE",
"546 355 LINE",
"541 482 OFFCURVE",
"448 560 OFFCURVE",
"303 560 CURVE SMOOTH",
"156 560 OFFCURVE",
"60 473 OFFCURVE",
"60 340 CURVE SMOOTH",
"60 210 LINE SMOOTH",
"60 77 OFFCURVE",
"156 -10 OFFCURVE",
"303 -10 CURVE SMOOTH"
);
}
);
width = 600;
},
{
associatedMasterId = "EDF5EB54-295C-4C90-9A2F-67CD82979CFF";
layerId = "040298CF-5572-47E8-A6B5-8878BEE70FAE";
name = public.background;
paths = (
{
closed = 1;
nodes = (
"381.651 480 OFFCURVE",
"424.119 437.921 OFFCURVE",
"428 370 CURVE",
"518 370 LINE",
"514.103 484 OFFCURVE",
"433.303 560 OFFCURVE",
"304 560 CURVE SMOOTH",
"171.264 560 OFFCURVE",
"88 477.281 OFFCURVE",
"88 350 CURVE SMOOTH",
"88 200 LINE SMOOTH",
"88 71 OFFCURVE",
"169.471 -10 OFFCURVE",
"304 -10 CURVE SMOOTH",
"433.303 -10 OFFCURVE",
"514.103 66 OFFCURVE",
"518 180 CURVE",
"428 180 LINE",
"424.204 111.673 OFFCURVE",
"382.196 70 OFFCURVE",
"304 70 CURVE SMOOTH",
"223.871 70 OFFCURVE",
"178 119.25 OFFCURVE",
"178 200 CURVE SMOOTH",
"178 351 LINE SMOOTH",
"178 430.343 OFFCURVE",
"224.657 480 OFFCURVE",
"304 480 CURVE SMOOTH"
);
}
);
width = 600;
},
{
hints = (
{
place = "{88, 90}";
type = Stem;
},
{
horizontal = 1;
place = "{-10, 80}";
type = Stem;
},
{
horizontal = 1;
place = "{480, 80}";
type = Stem;
}
);
layerId = "CCC0BD40-BA8C-414E-B576-CF0B94E6C996";
paths = (
{
closed = 1;
nodes = (
"431 -10 OFFCURVE",
"514 63 OFFCURVE",
"518 180 CURVE",
"428 180 LINE",
"424 110 OFFCURVE",
"378 70 OFFCURVE",
"304 70 CURVE SMOOTH",
"225 70 OFFCURVE",
"178 117 OFFCURVE",
"178 200 CURVE SMOOTH",
"178 351 LINE SMOOTH",
"178 433 OFFCURVE",
"225 480 OFFCURVE",
"304 480 CURVE SMOOTH",
"378 480 OFFCURVE",
"424 440 OFFCURVE",
"428 370 CURVE",
"518 370 LINE",
"514 487 OFFCURVE",
"431 560 OFFCURVE",
"304 560 CURVE SMOOTH",
"171 560 OFFCURVE",
"88 481 OFFCURVE",
"88 350 CURVE SMOOTH",
"88 200 LINE SMOOTH",
"88 69 OFFCURVE",
"171 -10 OFFCURVE",
"304 -10 CURVE SMOOTH"
);
}
);
width = 600;
},
{
layerId = "EDF5EB54-295C-4C90-9A2F-67CD82979CFF";
paths = (
{
closed = 1;
nodes = (
"423 -10 OFFCURVE",
"500 64 OFFCURVE",
"500 180 CURVE",
"450 180 LINE",
"450 90 OFFCURVE",
"394 34 OFFCURVE",
"302 34 CURVE SMOOTH",
"211 34 OFFCURVE",
"155 94 OFFCURVE",
"155 190 CURVE SMOOTH",
"155 360 LINE SMOOTH",
"155 457 OFFCURVE",
"211 516 OFFCURVE",
"302 516 CURVE SMOOTH",
"394 516 OFFCURVE",
"450 460 OFFCURVE",
"450 370 CURVE",
"500 370 LINE",
"500 486 OFFCURVE",
"423 560 OFFCURVE",
"302 560 CURVE SMOOTH",
"182 560 OFFCURVE",
"105 481 OFFCURVE",
"105 360 CURVE SMOOTH",
"105 190 LINE SMOOTH",
"105 68 OFFCURVE",
"181 -10 OFFCURVE",
"302 -10 CURVE SMOOTH"
);
}
);
width = 600;
}
);
unicode = 0063;
},
{
glyphname = d;
lastChange = "2020-06-26 17:11:00 +0000";
layers = (
{
layerId = "9ADF6715-3D0F-493D-8567-18A6FBCFC567";
paths = (
{
closed = 1;
nodes = (
"334.144 -10 OFFCURVE",
"389 44.924 OFFCURVE",
"389 139.814 CURVE",
"354.105 104.814 LINE",
"389 104.814 LINE",
"389 -0.186 LINE",
"534 -0.186 LINE",
"534 729.814 LINE",
"384 729.814 LINE",
"384 579.814 LINE",
"389 445 LINE",
"354.105 445 LINE",
"389 410 LINE",
"389 504.89 OFFCURVE",
"334.144 559.814 OFFCURVE",
"242.827 559.814 CURVE SMOOTH",
"132.367 559.814 OFFCURVE",
"60 475.712 OFFCURVE",
"60 344.814 CURVE SMOOTH",
"60 204.814 LINE SMOOTH",
"60 73.32 OFFCURVE",
"131.765 -10 OFFCURVE",
"242.827 -10 CURVE SMOOTH"
);
},
{
closed = 1;
nodes = (
"241.067 119.814 OFFCURVE",
"210 151.952 OFFCURVE",
"210 209.814 CURVE SMOOTH",
"210 339.814 LINE SMOOTH",
"210 397.41 OFFCURVE",
"241.323 429.814 OFFCURVE",
"297 429.814 CURVE SMOOTH",
"352.446 429.814 OFFCURVE",
"384 397.171 OFFCURVE",
"384 339.814 CURVE SMOOTH",
"384 209.814 LINE SMOOTH",
"384 152.456 OFFCURVE",
"352.446 119.814 OFFCURVE",
"297 119.814 CURVE SMOOTH"
);
}
);
width = 600;
},
{
associatedMasterId = "EDF5EB54-295C-4C90-9A2F-67CD82979CFF";
layerId = "040298CF-5572-47E8-A6B5-8878BEE70FAE";
name = public.background;
paths = (
{
closed = 1;
nodes = (
"371.943 482 OFFCURVE",
"416 432.82 OFFCURVE",
"416 350 CURVE SMOOTH",
"416 200 LINE SMOOTH",
"416 117.18 OFFCURVE",
"371.943 68 OFFCURVE",
"298 68 CURVE SMOOTH",
"222.114 68 OFFCURVE",
"180 115.11 OFFCURVE",
"180 200 CURVE SMOOTH",
"180 350 LINE SMOOTH",
"180 434.89 OFFCURVE",
"222.114 482 OFFCURVE",
"298 482 CURVE SMOOTH"
);
},
{
closed = 1;
nodes = (
"506 730 LINE",
"416 730 LINE",
"416.084 570 LINE",
"417.645 475 LINE",
"382.645 475 LINE",
"410.645 430 LINE",
"411.007 511.617 OFFCURVE",
"357.762 560 OFFCURVE",
"267.582 560 CURVE SMOOTH",
"157.172 560 OFFCURVE",
"90 482.456 OFFCURVE",
"90 355 CURVE SMOOTH",
"90 194 LINE SMOOTH",
"90 68.183 OFFCURVE",
"158.218 -10 OFFCURVE",
"268 -10 CURVE SMOOTH",
"357.854 -10 OFFCURVE",
"411 38.315 OFFCURVE",
"411 120 CURVE",
"383 80 LINE",
"418 80 LINE",
"418 0 LINE",
"506 0 LINE"
);
}
);
width = 600;
},
{
hints = (
{
place = "{80, 90}";
type = Stem;
},
{
place = "{422, 25}";
type = Stem;
},
{
place = "{422, 90}";
type = Stem;
},
{
horizontal = 1;
place = "{-10, 78}";
type = Stem;
},
{
horizontal = 1;
place = "{482, 78}";
type = Stem;
},
{
horizontal = 1;
place = "{730, -20}";
target = down;
type = TopGhost;
}
);
layerId = "CCC0BD40-BA8C-414E-B576-CF0B94E6C996";
paths = (
{
closed = 1;
nodes = (
"359.36 -10 OFFCURVE",
"418 42 OFFCURVE",
"418 126 CURVE",
"400 105 LINE",
"418 105 LINE",
"418 0 LINE",
"508 0 LINE",
"508 730 LINE",
"418 730 LINE",
"418 570 LINE",
"420 445 LINE",
"400 445 LINE",
"418 424 LINE",
"418 507 OFFCURVE",
"358.456 560 OFFCURVE",
"267.582 560 CURVE SMOOTH",
"157.172 560 OFFCURVE",
"88 482 OFFCURVE",
"88 355 CURVE SMOOTH",
"88 194 LINE SMOOTH",
"88 68 OFFCURVE",
"158.218 -10 OFFCURVE",
"268 -10 CURVE SMOOTH"
);
},
{
closed = 1;
nodes = (
"222.114 68 OFFCURVE",
"178 115 OFFCURVE",
"178 200 CURVE SMOOTH",
"178 350 LINE SMOOTH",
"178 435 OFFCURVE",
"222.114 482 OFFCURVE",
"298 482 CURVE SMOOTH",
"371.943 482 OFFCURVE",
"418 433 OFFCURVE",
"418 350 CURVE SMOOTH",
"418 200 LINE SMOOTH",
"418 117 OFFCURVE",
"371.943 68 OFFCURVE",
"298 68 CURVE SMOOTH"
);
}
);
width = 600;
},
{
layerId = "EDF5EB54-295C-4C90-9A2F-67CD82979CFF";
paths = (
{
closed = 1;
nodes = (
"382.656 -10 OFFCURVE",
"450.002 49.322 OFFCURVE",
"449.875 140.063 CURVE",
"412.077 75 LINE",
"440 75 LINE",
"440 0 LINE",
"490 0 LINE",
"490 730 LINE",
"440 730 LINE",
"440 580 LINE",
"440 475 LINE",
"421.814 475 LINE",
"450 410 LINE",
"450 500.764 OFFCURVE",
"382.605 560 OFFCURVE",
"287 560 CURVE SMOOTH",
"177.139 560 OFFCURVE",
"105 479.726 OFFCURVE",
"105 360 CURVE SMOOTH",
"105 189 LINE SMOOTH",
"105 68.765 OFFCURVE",
"177.101 -10 OFFCURVE",
"287.163 -10 CURVE SMOOTH"
);
},
{
closed = 1;
nodes = (
"208.368 33 OFFCURVE",
"155 91.43 OFFCURVE",
"155 189 CURVE SMOOTH",
"155 360 LINE SMOOTH",
"155 457.937 OFFCURVE",
"207.781 517 OFFCURVE",
"296.96 517 CURVE SMOOTH",
"388.309 517 OFFCURVE",
"440 457.537 OFFCURVE",
"440 360 CURVE SMOOTH",
"440 189 LINE SMOOTH",
"440 90.982 OFFCURVE",
"387.03 33 OFFCURVE",
"297.485 33 CURVE SMOOTH"
);
}
);
width = 600;
}
);
unicode = 0064;
},
{
color = 1;
glyphname = eth;
lastChange = "2020-06-19 10:37:10 +0000";
layers = (
{
layerId = "9ADF6715-3D0F-493D-8567-18A6FBCFC567";
paths = (
{
closed = 1;
nodes = (
"459 0 OFFCURVE",
"560 96 OFFCURVE",
"560 251.056 CURVE SMOOTH",
"560 337 OFFCURVE",
"528.971 430.244 OFFCURVE",
"446 537 CURVE SMOOTH",
"296 730 LINE",
"129 730 LINE",
"314 489 LINE SMOOTH",
"392.795 386.353 OFFCURVE",
"391 375 OFFCURVE",
"391 375 CURVE",
"385 375 LINE",
"385 375 OFFCURVE",
"338 456 OFFCURVE",
"243 456 CURVE SMOOTH",
"122 456 OFFCURVE",
"40 368 OFFCURVE",
"40 236 CURVE SMOOTH",
"40 94 OFFCURVE",
"143 0 OFFCURVE",
"300 0 CURVE SMOOTH"
);
},
{
closed = 1;
nodes = (
"233 125 OFFCURVE",
"190 168 OFFCURVE",
"190 235 CURVE SMOOTH",
"190 302 OFFCURVE",
"233 345 OFFCURVE",
"300 345 CURVE SMOOTH",
"366 345 OFFCURVE",
"410 301 OFFCURVE",
"410 235 CURVE SMOOTH",
"410 168 OFFCURVE",
"367 125 OFFCURVE",
"300 125 CURVE SMOOTH"
);
},
{
closed = 1;
nodes = (
"493 642 LINE",
"493 747 LINE",
"106 607 LINE",
"106 502 LINE"
);
}
);
width = 600;
},
{
hints = (
{
place = "{70, 90}";
type = Stem;
},
{
place = "{440, 90}";
type = Stem;
},
{
horizontal = 1;
place = "{-10, 80}";
type = Stem;
},
{
horizontal = 1;
place = "{360, 76}";
type = Stem;
}
);
layerId = "CCC0BD40-BA8C-414E-B576-CF0B94E6C996";
paths = (
{
closed = 1;
nodes = (
"437.6 -10 OFFCURVE",
"530 83.2 OFFCURVE",
"530 223 CURVE SMOOTH",
"530 307.714 OFFCURVE",
"491.822 407.994 OFFCURVE",
"433 493 CURVE SMOOTH",
"269 730 LINE",
"165 730 LINE",
"345 480 LINE SMOOTH",
"394.594 411.12 OFFCURVE",
"409 380 OFFCURVE",
"409 380 CURVE",
"395 380 LINE",
"395 380 OFFCURVE",
"361 436 OFFCURVE",
"281 436 CURVE SMOOTH",
"154.009 436 OFFCURVE",
"70 348.009 OFFCURVE",
"70 215 CURVE SMOOTH",
"70 80 OFFCURVE",
"161.6 -10 OFFCURVE",
"299 -10 CURVE SMOOTH"
);
},
{
closed = 1;
nodes = (
"216 70 OFFCURVE",
"160 128 OFFCURVE",
"160 215 CURVE SMOOTH",
"160 301.791 OFFCURVE",
"215.8 360 OFFCURVE",
"299 360 CURVE SMOOTH",
"384 360 OFFCURVE",
"440 302 OFFCURVE",
"440 215 CURVE SMOOTH",
"440 128 OFFCURVE",
"384 70 OFFCURVE",
"299 70 CURVE SMOOTH"
);
},
{
closed = 1;
nodes = (
"461 655 LINE",
"461 735 LINE",
"117 575 LINE",
"117 495 LINE"
);
}
);
width = 600;
},
{
layerId = "EDF5EB54-295C-4C90-9A2F-67CD82979CFF";
paths = (
{
closed = 1;
nodes = (
"433.582 -10 OFFCURVE",
"520 77.59 OFFCURVE",
"520 212.984 CURVE SMOOTH",
"520 302 OFFCURVE",
"482.646 401.831 OFFCURVE",
"401 517 CURVE SMOOTH",
"250 730 LINE",
"184 730 LINE",
"358 491 LINE SMOOTH",
"429.845 392.317 OFFCURVE",
"445 347 OFFCURVE",
"445 347 CURVE",
"442 347 LINE",
"442 347 OFFCURVE",
"390 436 OFFCURVE",
"290 436 CURVE SMOOTH",
"161 436 OFFCURVE",
"80 350 OFFCURVE",
"80 215 CURVE SMOOTH",
"80 78.5 OFFCURVE",
"166.533 -10 OFFCURVE",
"300 -10 CURVE SMOOTH"
);
},
{
closed = 1;
nodes = (
"199.086 40 OFFCURVE",
"135 107.97 OFFCURVE",
"135 215 CURVE SMOOTH",
"135 322.03 OFFCURVE",
"199.086 390 OFFCURVE",
"300 390 CURVE SMOOTH",
"395 390 OFFCURVE",
"465 318 OFFCURVE",
"465 216 CURVE SMOOTH",
"465 109.2 OFFCURVE",
"400.125 40 OFFCURVE",
"300 40 CURVE SMOOTH"
);
},
{
closed = 1;
nodes = (
"461 675 LINE",
"461 715 LINE",
"117 555 LINE",
"117 515 LINE"
);
}
);
width = 600;
}
);
unicode = 00F0;
},
{
glyphname = dcaron;
lastChange = "2020-06-19 10:30:00 +0000";
layers = (
{
components = (
{
alignment = -1;
name = d;
transform = "{1, 0, 0, 1, -10, 0}";
}
);
layerId = "9ADF6715-3D0F-493D-8567-18A6FBCFC567";
paths = (
{
closed = 1;
nodes = (
"605 610 LINE",
"670 756 LINE",
"580 756 LINE",
"535 610 LINE"
);
}
);
width = 600;
},
{
components = (
{
alignment = -1;
name = d;
transform = "{1, 0, 0, 1, -20, 0}";
}
);
hints = (
{
place = "{60, 90}";
type = Stem;
},
{
place = "{402, 25}";
type = Stem;
},
{
place = "{402, 90}";
type = Stem;
},
{
horizontal = 1;
place = "{-10, 78}";
type = Stem;
},
{
horizontal = 1;
place = "{482, 78}";
type = Stem;
},
{
horizontal = 1;
place = "{730, -20}";
target = down;
type = TopGhost;
}
);
layerId = "CCC0BD40-BA8C-414E-B576-CF0B94E6C996";
paths = (
{
closed = 1;
nodes = (
"584 610 LINE",
"654 756 LINE",
"564 756 LINE",
"514 610 LINE"
);
}
);
width = 600;
},
{
components = (
{
alignment = -1;
name = d;
transform = "{1, 0, 0, 1, -10, 0}";
}
);
layerId = "EDF5EB54-295C-4C90-9A2F-67CD82979CFF";
paths = (
{
closed = 1;
nodes = (
"565 610 LINE",
"635 756 LINE",
"570 756 LINE",
"520 610 LINE"
);
}
);
width = 600;
}
);
unicode = 010F;
},
{
glyphname = dcroat;
lastChange = "2020-07-02 13:33:11 +0000";
layers = (
{
hints = (
{
place = "{48, 150}";
type = Stem;
},
{
place = "{392, 145}";
type = Stem;
},
{
horizontal = 1;
place = "{-10, 131}";
type = Stem;
},
{
horizontal = 1;
place = "{430, 130}";
type = Stem;
},
{
horizontal = 1;
place = "{580, 90}";
type = Stem;
},
{
horizontal = 1;
place = "{730, -20}";
target = down;
type = TopGhost;
}
);
layerId = "9ADF6715-3D0F-493D-8567-18A6FBCFC567";
paths = (
{
closed = 1;
nodes = (
"334.144 -10 OFFCURVE",
"389 44.924 OFFCURVE",
"389 139.814 CURVE",
"354.105 104.814 LINE",
"389 104.814 LINE",
"389 -0.186 LINE",
"534 -0.186 LINE",
"534 729.814 LINE",
"384 729.814 LINE",
"384 519.814 LINE",
"389 385 LINE",
"354.105 385 LINE",
"389 350 LINE",
"389 444.89 OFFCURVE",
"334.144 499.814 OFFCURVE",
"242.827 499.814 CURVE SMOOTH",
"132.367 499.814 OFFCURVE",
"60 415.712 OFFCURVE",
"60 284.814 CURVE SMOOTH",
"60 204.814 LINE SMOOTH",
"60 73.32 OFFCURVE",
"131.765 -10 OFFCURVE",
"242.827 -10 CURVE SMOOTH"
);
},
{
closed = 1;
nodes = (
"241.067 119.814 OFFCURVE",
"210 151.952 OFFCURVE",
"210 209.814 CURVE SMOOTH",
"210 279.814 LINE SMOOTH",
"210 337.41 OFFCURVE",
"241.323 369.814 OFFCURVE",
"297 369.814 CURVE SMOOTH",
"352.446 369.814 OFFCURVE",
"384 337.171 OFFCURVE",
"384 279.814 CURVE SMOOTH",
"384 209.814 LINE SMOOTH",
"384 152.456 OFFCURVE",
"352.446 119.814 OFFCURVE",
"297 119.814 CURVE SMOOTH"
);
},
{
closed = 1;
nodes = (
"600 555 LINE",
"600 645 LINE",
"240 645 LINE",
"240 555 LINE"
);
}
);
width = 600;
},
{
hints = (
{
place = "{80, 342}";
type = Stem;
},
{
place = "{427, 85}";
type = Stem;
},
{
horizontal = 1;
place = "{-10, 492}";
type = Stem;
},
{
horizontal = 1;
place = "{68, 492}";
type = Stem;
},
{
horizontal = 1;
place = "{600, 75}";
type = Stem;
},
{
place = "{80, 90}";
type = Stem;
},
{
place = "{422, 25}";
type = Stem;
},
{
place = "{422, 90}";
type = Stem;
},
{
horizontal = 1;
place = "{-10, 78}";
type = Stem;
},
{
horizontal = 1;
place = "{482, 78}";
type = Stem;
},
{
horizontal = 1;
place = "{730, -20}";
target = down;
type = TopGhost;
}
);
layerId = "CCC0BD40-BA8C-414E-B576-CF0B94E6C996";
paths = (
{
closed = 1;
nodes = (
"359.36 -10 OFFCURVE",
"416 41.757 OFFCURVE",
"416 126 CURVE",
"398 105 LINE",
"416 105 LINE",
"416 0 LINE",
"506 0 LINE",
"506 730 LINE",
"416 730 LINE",
"416.084 510 LINE",
"417.645 385 LINE",
"397.645 385 LINE",
"415.645 364 LINE",
"416.005 447.14 OFFCURVE",
"358.456 500 OFFCURVE",
"267.582 500 CURVE SMOOTH",
"157.172 500 OFFCURVE",
"90 422.456 OFFCURVE",
"90 295 CURVE SMOOTH",
"90 194 LINE SMOOTH",
"90 68.182 OFFCURVE",
"158.218 -10 OFFCURVE",
"268 -10 CURVE SMOOTH"
);
},
{
closed = 1;
nodes = (
"222.114 68 OFFCURVE",
"180 115.11 OFFCURVE",
"180 200 CURVE SMOOTH",
"180 290 LINE SMOOTH",
"180 374.89 OFFCURVE",
"222.114 422 OFFCURVE",
"298 422 CURVE SMOOTH",
"371.943 422 OFFCURVE",
"416 372.82 OFFCURVE",
"416 290 CURVE SMOOTH",
"416 200 LINE SMOOTH",
"416 117.18 OFFCURVE",
"371.943 68 OFFCURVE",
"298 68 CURVE SMOOTH"
);
},
{
closed = 1;
nodes = (
"600 570 LINE",
"600 645 LINE",
"250 645 LINE",
"250 570 LINE"
);
}
);
width = 600;
},
{
layerId = "EDF5EB54-295C-4C90-9A2F-67CD82979CFF";
paths = (
{
closed = 1;
nodes = (
"382.656 -10 OFFCURVE",
"450.002 49.322 OFFCURVE",
"449.875 140.063 CURVE",
"412.077 75 LINE",
"440 75 LINE",
"440 0 LINE",
"490 0 LINE",
"490 730 LINE",
"440 730 LINE",
"440 520 LINE",
"440 415 LINE",
"421.814 415 LINE",
"450 350 LINE",
"450 440.764 OFFCURVE",
"382.605 500 OFFCURVE",
"287 500 CURVE SMOOTH",
"177.139 500 OFFCURVE",
"105 419.726 OFFCURVE",
"105 300 CURVE SMOOTH",
"105 189 LINE SMOOTH",
"105 68.765 OFFCURVE",
"177.101 -10 OFFCURVE",
"287.163 -10 CURVE SMOOTH"
);
},
{
closed = 1;
nodes = (
"208.368 33 OFFCURVE",
"155 91.43 OFFCURVE",
"155 189 CURVE SMOOTH",
"155 300 LINE SMOOTH",
"155 397.937 OFFCURVE",
"207.781 457 OFFCURVE",
"296.96 457 CURVE SMOOTH",
"388.309 457 OFFCURVE",
"440 397.537 OFFCURVE",
"440 300 CURVE SMOOTH",
"440 189 LINE SMOOTH",
"440 90.982 OFFCURVE",
"387.03 33 OFFCURVE",
"297.485 33 CURVE SMOOTH"
);
},
{
closed = 1;
nodes = (
"590 586 LINE",
"590 631 LINE",
"260 631 LINE",
"260 586 LINE"
);
}
);
width = 600;
}
);
unicode = 0111;
},
{
glyphname = e;
lastChange = "2020-06-29 12:26:02 +0000";
layers = (
{
associatedMasterId = "EDF5EB54-295C-4C90-9A2F-67CD82979CFF";
layerId = "040298CF-5572-47E8-A6B5-8878BEE70FAE";
name = public.background;
paths = (
{
closed = 1;
nodes = (
"419.146 -10 OFFCURVE",
"498.023 44.345 OFFCURVE",
"509 134 CURVE",
"420 143 LINE",
"410.7 93.487 OFFCURVE",
"367.864 66 OFFCURVE",
"300 66 CURVE SMOOTH",
"217.536 66 OFFCURVE",
"176 112.991 OFFCURVE",
"176 200 CURVE SMOOTH",
"176 253 LINE",
"512 253 LINE",
"512 350 LINE SMOOTH",
"512 477.352 OFFCURVE",
"430.384 560 OFFCURVE",
"300 560 CURVE SMOOTH",
"169.912 560 OFFCURVE",
"88 477.063 OFFCURVE",
"88 350 CURVE SMOOTH",
"88 200 LINE SMOOTH",
"88 72.648 OFFCURVE",
"169.616 -10 OFFCURVE",
"300 -10 CURVE SMOOTH"
);
},
{
closed = 1;
nodes = (
"176 321 LINE",
"176 350 LINE SMOOTH",
"176 437.27 OFFCURVE",
"217.808 485 OFFCURVE",
"300 485 CURVE SMOOTH",
"382.192 485 OFFCURVE",
"424 437.27 OFFCURVE",
"424 350 CURVE SMOOTH",
"424 313 LINE",
"431 321 LINE"
);
}
);
width = 600;
},
{
layerId = "9ADF6715-3D0F-493D-8567-18A6FBCFC567";
paths = (
{
closed = 1;
nodes = (
"419.558 -10 OFFCURVE",
"511.357 54.403 OFFCURVE",
"535 150 CURVE",
"388 150 LINE",
"379.29 121.872 OFFCURVE",
"349.923 105 OFFCURVE",
"303.005 105 CURVE SMOOTH",
"235.505 105 OFFCURVE",
"203 141.391 OFFCURVE",
"203 210 CURVE SMOOTH",
"203 240 LINE",
"540 240 LINE",
"540 340 LINE SMOOTH",
"540 472 OFFCURVE",
"446.8 560 OFFCURVE",
"301 560 CURVE SMOOTH",
"154 560 OFFCURVE",
"60 472 OFFCURVE",
"60 340 CURVE SMOOTH",
"60 210 LINE SMOOTH",
"60 78 OFFCURVE",
"154 -10 OFFCURVE",
"301 -10 CURVE SMOOTH"
);
},
{
closed = 1;
nodes = (
"407 327 LINE",
"203 325 LINE",
"203 340 LINE SMOOTH",
"203 408.487 OFFCURVE",
"235 447 OFFCURVE",
"301 447 CURVE SMOOTH",
"366 447 OFFCURVE",
"397 410 OFFCURVE",
"397 342 CURVE SMOOTH",
"397 317 LINE"
);
}
);
width = 600;
},
{
layerId = "CCC0BD40-BA8C-414E-B576-CF0B94E6C996";
paths = (
{
closed = 1;
nodes = (
"416.279 -10 OFFCURVE",
"498 48 OFFCURVE",
"510 140 CURVE",
"420 140 LINE",
"410 91 OFFCURVE",
"368.904 66 OFFCURVE",
"300 66 CURVE SMOOTH",
"217.536 66 OFFCURVE",
"176 113 OFFCURVE",
"176 200 CURVE SMOOTH",
"176 253 LINE",
"512 253 LINE",
"512 350 LINE SMOOTH",
"512 477 OFFCURVE",
"430.384 560 OFFCURVE",
"300 560 CURVE SMOOTH",
"169.912 560 OFFCURVE",
"88 477 OFFCURVE",
"88 350 CURVE SMOOTH",
"88 200 LINE SMOOTH",
"88 73 OFFCURVE",
"169.616 -10 OFFCURVE",
"300 -10 CURVE SMOOTH"
);
},
{
closed = 1;
nodes = (
"431 321 LINE",
"176 321 LINE",
"176 350 LINE SMOOTH",
"176 437 OFFCURVE",
"217.808 485 OFFCURVE",
"300 485 CURVE SMOOTH",
"382.192 485 OFFCURVE",
"424 437 OFFCURVE",
"424 350 CURVE SMOOTH",
"424 313 LINE"
);
}
);
width = 600;
},
{
layerId = "EDF5EB54-295C-4C90-9A2F-67CD82979CFF";
paths = (
{
closed = 1;
nodes = (
"403.566 -10 OFFCURVE",
"474.443 46.016 OFFCURVE",
"494 135 CURVE",
"444 135 LINE",
"425.425 72.16 OFFCURVE",
"375.13 34 OFFCURVE",
"301 34 CURVE SMOOTH",
"208.015 34 OFFCURVE",
"155 93.936 OFFCURVE",
"155 190 CURVE SMOOTH",
"155 265 LINE",
"495 265 LINE",
"495 360 LINE SMOOTH",
"495 481.327 OFFCURVE",
"421.72 560 OFFCURVE",
"301 560 CURVE SMOOTH",
"179.197 560 OFFCURVE",
"105 481.197 OFFCURVE",
"105 360 CURVE SMOOTH",
"105 190 LINE SMOOTH",
"105 67.806 OFFCURVE",
"178.195 -10 OFFCURVE",
"301 -10 CURVE SMOOTH"
);
},
{
closed = 1;
nodes = (
"456 308 LINE",
"155 308 LINE",
"155 360 LINE SMOOTH",
"155 457.095 OFFCURVE",
"207.017 516 OFFCURVE",
"301 516 CURVE SMOOTH",
"392.87 516 OFFCURVE",
"445 456.186 OFFCURVE",
"445 360 CURVE SMOOTH",
"445 299 LINE"
);
}
);
width = 600;
}
);
unicode = 0065;
},
{
glyphname = uni0259;
layers = (
{
hints = (
{
horizontal = 1;
place = "{-10, 115}";
type = Stem;
},
{
horizontal = 1;
place = "{445, 115}";
type = Stem;
},
{
place = "{48, 143}";
type = Stem;
},
{
place = "{407, 143}";
type = Stem;
}
);
layerId = "9ADF6715-3D0F-493D-8567-18A6FBCFC567";
paths = (
{
closed = 1;
nodes = (
"446 -10 OFFCURVE",
"540 78 OFFCURVE",
"540 210 CURVE SMOOTH",
"540 340 LINE SMOOTH",
"540 472 OFFCURVE",
"446 560 OFFCURVE",
"299 560 CURVE SMOOTH",
"180.442 560 OFFCURVE",
"88.643 495.597 OFFCURVE",
"65 400 CURVE",
"212 400 LINE",
"220.71 428.128 OFFCURVE",
"250.077 445 OFFCURVE",
"296.995 445 CURVE SMOOTH",
"364.495 445 OFFCURVE",
"397 408.609 OFFCURVE",
"397 340 CURVE SMOOTH",
"397 310 LINE",
"60 310 LINE",
"60 210 LINE SMOOTH",
"60 78 OFFCURVE",
"153.2 -10 OFFCURVE",
"299 -10 CURVE SMOOTH"
);
},
{
closed = 1;
nodes = (
"233.579 105 OFFCURVE",
"203 142.358 OFFCURVE",
"203 210 CURVE SMOOTH",
"203 235 LINE",
"193 225 LINE",
"397 225 LINE",
"397 210 LINE SMOOTH",
"397 141.513 OFFCURVE",
"364.559 105 OFFCURVE",
"299 105 CURVE SMOOTH"
);
}
);
width = 600;
},
{
hints = (
{
place = "{80, 90}";
type = Stem;
},
{
place = "{430, 90}";
type = Stem;
},
{
horizontal = 1;
place = "{-10, 80}";
type = Stem;
},
{
horizontal = 1;
place = "{249, 75}";
type = Stem;
},
{
horizontal = 1;
place = "{480, 80}";
type = Stem;
},
{
horizontal = 1;
place = "{-10, 77}";
type = Stem;
},
{
horizontal = 1;
place = "{484, 76}";
type = Stem;
},
{
place = "{80, 89}";
type = Stem;
},
{
place = "{431, 89}";
type = Stem;
}
);
layerId = "CCC0BD40-BA8C-414E-B576-CF0B94E6C996";
paths = (
{
closed = 1;
nodes = (
"430.088 -10 OFFCURVE",
"510 72.937 OFFCURVE",
"510 200 CURVE SMOOTH",
"510 350 LINE SMOOTH",
"510 477.352 OFFCURVE",
"430.384 560 OFFCURVE",
"300 560 CURVE SMOOTH",
"183.721 560 OFFCURVE",
"104.24 501.8 OFFCURVE",
"92 410 CURVE",
"182 410 LINE",
"192.157 458.754 OFFCURVE",
"231.096 484 OFFCURVE",
"300 484 CURVE SMOOTH",
"382.464 484 OFFCURVE",
"422 437.009 OFFCURVE",
"422 350 CURVE SMOOTH",
"422 297 LINE",
"90 297 LINE",
"90 200 LINE SMOOTH",
"90 72.648 OFFCURVE",
"169.616 -10 OFFCURVE",
"300 -10 CURVE SMOOTH"
);
},
{
closed = 1;
nodes = (
"217.808 65 OFFCURVE",
"178 112.73 OFFCURVE",
"178 200 CURVE SMOOTH",
"178 237 LINE",
"171 229 LINE",
"422 229 LINE",
"422 200 LINE SMOOTH",
"422 112.73 OFFCURVE",
"382.192 65 OFFCURVE",
"300 65 CURVE SMOOTH"
);
}
);
width = 600;
},
{
layerId = "EDF5EB54-295C-4C90-9A2F-67CD82979CFF";
paths = (
{
closed = 1;
nodes = (
"420.803 -10 OFFCURVE",
"495 68.803 OFFCURVE",
"495 190 CURVE SMOOTH",
"495 360 LINE SMOOTH",
"495 482.194 OFFCURVE",
"421.805 560 OFFCURVE",
"299 560 CURVE SMOOTH",
"196.434 560 OFFCURVE",
"125.557 503.984 OFFCURVE",
"106 415 CURVE",
"156 415 LINE",
"174.575 477.84 OFFCURVE",
"224.87 516 OFFCURVE",
"299 516 CURVE SMOOTH",
"391.985 516 OFFCURVE",
"445 456.064 OFFCURVE",
"445 360 CURVE SMOOTH",
"445 285 LINE",
"105 285 LINE",
"105 190 LINE SMOOTH",
"105 68.673 OFFCURVE",
"178.28 -10 OFFCURVE",
"299 -10 CURVE SMOOTH"
);
},
{
closed = 1;
nodes = (
"207.13 34 OFFCURVE",
"155 93.814 OFFCURVE",
"155 190 CURVE SMOOTH",
"155 251 LINE",
"144 242 LINE",
"445 242 LINE",
"445 190 LINE SMOOTH",
"445 92.905 OFFCURVE",
"392.983 34 OFFCURVE",
"299 34 CURVE SMOOTH"
);
}
);
width = 600;
}
);
unicode = 0259;
},
{
glyphname = f;
lastChange = "2020-06-19 10:30:00 +0000";
layers = (
{
layerId = "9ADF6715-3D0F-493D-8567-18A6FBCFC567";
paths = (
{
closed = 1;
nodes = (
"345 0 LINE",
"345 395 LINE",
"545 395 LINE",
"545 530 LINE",
"345 530 LINE",
"345 560 LINE SMOOTH",
"345 584.143 OFFCURVE",
"359.386 600 OFFCURVE",
"385 600 CURVE SMOOTH",
"545 600 LINE",
"545 730 LINE",
"380 730 LINE SMOOTH",
"267.464 730 OFFCURVE",
"195 665.37 OFFCURVE",
"195 565 CURVE SMOOTH",
"195 530 LINE",
"50 530 LINE",
"50 395 LINE",
"195 395 LINE",
"195 0 LINE"
);
}
);
width = 600;
},
{
layerId = "CCC0BD40-BA8C-414E-B576-CF0B94E6C996";
paths = (
{
closed = 1;
nodes = (
"310 0 LINE",
"310 457 LINE",
"535 457 LINE",
"535 539 LINE",
"310 539 LINE",
"310 593 LINE SMOOTH",
"310 628.45 OFFCURVE",
"329.55 648 OFFCURVE",
"365 648 CURVE SMOOTH",
"535 648 LINE",
"535 730 LINE",
"365 730 LINE SMOOTH",
"276.194 730 OFFCURVE",
"220 676.519 OFFCURVE",
"220 592 CURVE SMOOTH",
"220 539 LINE",
"60 539 LINE",
"60 457 LINE",
"220 457 LINE",
"220 0 LINE"
);
}
);
width = 600;
},
{
layerId = "EDF5EB54-295C-4C90-9A2F-67CD82979CFF";
paths = (
{
closed = 1;
nodes = (
"290 0 LINE",
"290 505 LINE",
"523 505 LINE",
"523 550 LINE",
"290 550 LINE",
"290 605 LINE SMOOTH",
"290 655.5 OFFCURVE",
"318.5 685 OFFCURVE",
"370 685 CURVE SMOOTH",
"523 685 LINE",
"523 730 LINE",
"370 730 LINE SMOOTH",
"289.168 730 OFFCURVE",
"240 682.723 OFFCURVE",
"240 605 CURVE SMOOTH",
"240 550 LINE",
"70 550 LINE",
"70 505 LINE",
"240 505 LINE",
"240 0 LINE"
);
}
);
width = 600;
}
);
unicode = 0066;
},
{
color = 1;
glyphname = g;
lastChange = "2020-06-26 17:21:04 +0000";
layers = (
{
associatedMasterId = "EDF5EB54-295C-4C90-9A2F-67CD82979CFF";
layerId = "040298CF-5572-47E8-A6B5-8878BEE70FAE";
name = public.background;
paths = (
{
closed = 1;
nodes = (
"415.047 -190 OFFCURVE",
"490 -120.965 OFFCURVE",
"490 -15 CURVE SMOOTH",
"490 550 LINE",
"440 550 LINE",
"440 475 LINE",
"421.814 475 LINE",
"450 410 LINE",
"450 500.764 OFFCURVE",
"382.605 560 OFFCURVE",
"287 560 CURVE SMOOTH",
"177.139 560 OFFCURVE",
"105 479.726 OFFCURVE",
"105 360 CURVE SMOOTH",
"105 249 LINE SMOOTH",
"105 128.765 OFFCURVE",
"177.101 50 OFFCURVE",
"287.163 50 CURVE SMOOTH",
"382.656 50 OFFCURVE",
"450.002 109.322 OFFCURVE",
"449.875 200.063 CURVE",
"412.077 135 LINE",
"440 135 LINE",
"440 20 LINE",
"440 -15 LINE SMOOTH",
"440 -95.205 OFFCURVE",
"386.3 -145 OFFCURVE",
"300 -145 CURVE SMOOTH",
"215.64 -145 OFFCURVE",
"162.997 -100.771 OFFCURVE",
"163.236 -30.094 CURVE",
"116.253 -29.69 LINE",
"115.699 -126.768 OFFCURVE",
"188.175 -190 OFFCURVE",
"300 -190 CURVE SMOOTH"
);
},
{
closed = 1;
nodes = (
"208.368 93 OFFCURVE",
"155 151.43 OFFCURVE",
"155 249 CURVE SMOOTH",
"155 360 LINE SMOOTH",
"155 457.937 OFFCURVE",
"207.781 517 OFFCURVE",
"296.96 517 CURVE SMOOTH",
"388.309 517 OFFCURVE",
"440 457.537 OFFCURVE",
"440 360 CURVE SMOOTH",
"440 249 LINE SMOOTH",
"440 150.982 OFFCURVE",
"387.03 93 OFFCURVE",
"297.485 93 CURVE SMOOTH"
);
}
);
width = 600;
},
{
layerId = "9ADF6715-3D0F-493D-8567-18A6FBCFC567";
paths = (
{
closed = 1;
nodes = (
"305 -180 LINE SMOOTH",
"446 -180 OFFCURVE",
"534 -106 OFFCURVE",
"534 14 CURVE SMOOTH",
"534 550 LINE",
"384 550 LINE",
"389 445 LINE",
"354 445 LINE",
"389 410 LINE",
"389 505 OFFCURVE",
"334 560 OFFCURVE",
"243 560 CURVE SMOOTH",
"132 560 OFFCURVE",
"60 476 OFFCURVE",
"60 345 CURVE SMOOTH",
"60 245 LINE SMOOTH",
"60 113 OFFCURVE",
"132 30 OFFCURVE",
"243 30 CURVE SMOOTH",
"334 30 OFFCURVE",
"389 85 OFFCURVE",
"389 180 CURVE",
"354 145 LINE",
"389 145 LINE",
"387 40 LINE",
"387 19 LINE SMOOTH",
"387 -31 OFFCURVE",
"356 -60 OFFCURVE",
"300 -60 CURVE SMOOTH",
"145 -60 LINE",
"145 -180 LINE"
);
},
{
closed = 1;
nodes = (
"241 160 OFFCURVE",
"210 192 OFFCURVE",
"210 250 CURVE SMOOTH",
"210 340 LINE SMOOTH",
"210 397 OFFCURVE",
"241 430 OFFCURVE",
"297 430 CURVE SMOOTH",
"352 430 OFFCURVE",
"384 397 OFFCURVE",
"384 340 CURVE SMOOTH",
"384 250 LINE SMOOTH",
"384 192 OFFCURVE",
"352 160 OFFCURVE",
"297 160 CURVE SMOOTH"
);
}
);
width = 600;
},
{
layerId = "CCC0BD40-BA8C-414E-B576-CF0B94E6C996";
paths = (
{
closed = 1;
nodes = (
"335 -180 LINE SMOOTH",
"443 -180 OFFCURVE",
"507 -119 OFFCURVE",
"507 -20 CURVE SMOOTH",
"507 550 LINE",
"420 550 LINE",
"420 475 LINE",
"385 475 LINE",
"413 430 LINE",
"413 512 OFFCURVE",
"357.854 560 OFFCURVE",
"268 560 CURVE SMOOTH",
"158.218 560 OFFCURVE",
"88 482 OFFCURVE",
"88 356 CURVE SMOOTH",
"88 240 LINE SMOOTH",
"88 113 OFFCURVE",
"157 35 OFFCURVE",
"268 35 CURVE SMOOTH",
"358 35 OFFCURVE",
"413 83 OFFCURVE",
"413 165 CURVE",
"385 120 LINE",
"420 120 LINE",
"417 50 LINE",
"417 -20 LINE SMOOTH",
"417 -73 OFFCURVE",
"392 -98 OFFCURVE",
"336 -98 CURVE SMOOTH",
"161 -98 LINE",
"161 -180 LINE"
);
},
{
closed = 1;
nodes = (
"222 113 OFFCURVE",
"178 160 OFFCURVE",
"178 245 CURVE SMOOTH",
"178 350 LINE SMOOTH",
"178 435 OFFCURVE",
"222.114 482 OFFCURVE",
"298 482 CURVE SMOOTH",
"371.943 482 OFFCURVE",
"418 433 OFFCURVE",
"418 350 CURVE SMOOTH",
"418 245 LINE SMOOTH",
"418 162 OFFCURVE",
"372 113 OFFCURVE",
"298 113 CURVE SMOOTH"
);
}
);
width = 600;
},
{
layerId = "EDF5EB54-295C-4C90-9A2F-67CD82979CFF";
paths = (
{
closed = 1;
nodes = (
"319 -180 LINE SMOOTH",
"430.687 -180 OFFCURVE",
"490 -124.059 OFFCURVE",
"490 -15 CURVE SMOOTH",
"490 550 LINE",
"440 550 LINE",
"440 475 LINE",
"421.814 475 LINE",
"450 410 LINE",
"450 500.764 OFFCURVE",
"382.605 560 OFFCURVE",
"287 560 CURVE SMOOTH",
"177.139 560 OFFCURVE",
"105 480 OFFCURVE",
"105 360 CURVE SMOOTH",
"105 239 LINE SMOOTH",
"105 119 OFFCURVE",
"177 40 OFFCURVE",
"287 40 CURVE SMOOTH",
"383 40 OFFCURVE",
"450 99 OFFCURVE",
"450 190 CURVE",
"412 125 LINE",
"440 125 LINE",
"440 30 LINE",
"440 -15 LINE SMOOTH",
"440 -94 OFFCURVE",
"397.8 -135 OFFCURVE",
"319 -135 CURVE SMOOTH",
"174 -135 LINE",
"174 -180 LINE"
);
},
{
closed = 1;
nodes = (
"208 83 OFFCURVE",
"155 141 OFFCURVE",
"155 239 CURVE SMOOTH",
"155 360 LINE SMOOTH",
"155 458 OFFCURVE",
"207.781 517 OFFCURVE",
"296.96 517 CURVE SMOOTH",
"388.309 517 OFFCURVE",
"440 458 OFFCURVE",
"440 360 CURVE SMOOTH",
"440 239 LINE SMOOTH",
"440 141 OFFCURVE",
"387 83 OFFCURVE",
"297 83 CURVE SMOOTH"
);
}
);
width = 600;
}
);
unicode = 0067;
},
{
glyphname = h;
lastChange = "2020-06-26 17:17:10 +0000";
layers = (
{
associatedMasterId = "EDF5EB54-295C-4C90-9A2F-67CD82979CFF";
layerId = "040298CF-5572-47E8-A6B5-8878BEE70FAE";
name = public.background;
paths = (
{
closed = 1;
nodes = (
"66 0 LINE",
"216 0 LINE",
"216 340 LINE SMOOTH",
"216 397.84 OFFCURVE",
"246.211 430 OFFCURVE",
"300 430 CURVE SMOOTH",
"353.789 430 OFFCURVE",
"384 397.84 OFFCURVE",
"384 340 CURVE SMOOTH",
"384 0 LINE",
"534 0 LINE",
"534 355 LINE SMOOTH",
"534 477.627 OFFCURVE",
"465.61 560 OFFCURVE",
"363.8 560 CURVE SMOOTH",
"280.851 560 OFFCURVE",
"226 508.254 OFFCURVE",
"226 430 CURVE",
"255.217 475 LINE",
"208 475 LINE",
"216 550 LINE",
"216.176 730.693 LINE",
"66 730.693 LINE"
);
}
);
width = 600;
},
{
layerId = "9ADF6715-3D0F-493D-8567-18A6FBCFC567";
paths = (
{
closed = 1;
nodes = (
"216 0 LINE",
"216 340 LINE SMOOTH",
"216 397.087 OFFCURVE",
"246.719 430 OFFCURVE",
"300 430 CURVE SMOOTH",
"354.027 430 OFFCURVE",
"386 396.54 OFFCURVE",
"386 340 CURVE SMOOTH",
"386 0 LINE",
"536 0 LINE",
"536 355 LINE SMOOTH",
"536 479.204 OFFCURVE",
"466.112 560 OFFCURVE",
"358.676 560 CURVE SMOOTH",
"267.59 560 OFFCURVE",
"211 502.519 OFFCURVE",
"211 410 CURVE",
"255.217 445 LINE",
"211 445 LINE",
"216 550 LINE",
"215.935 730.188 LINE",
"66 730.188 LINE",
"66 0 LINE"
);
}
);
width = 600;
},
{
hints = (
{
place = "{88, 90}";
type = Stem;
},
{
place = "{153, 25}";
type = Stem;
},
{
place = "{423, 90}";
type = Stem;
},
{
horizontal = 1;
place = "{484, 76}";
type = Stem;
},
{
horizontal = 1;
place = "{720, -20}";
target = down;
type = TopGhost;
},
{
horizontal = 1;
place = "{0, 21}";
target = up;
type = BottomGhost;
}
);
layerId = "CCC0BD40-BA8C-414E-B576-CF0B94E6C996";
paths = (
{
closed = 1;
nodes = (
"182 0 LINE",
"182 350 LINE SMOOTH",
"182 435 OFFCURVE",
"228.356 484 OFFCURVE",
"302.675 484 CURVE SMOOTH",
"375.04 484 OFFCURVE",
"420 438 OFFCURVE",
"420 360 CURVE SMOOTH",
"420 0 LINE",
"510 0 LINE",
"510 370 LINE SMOOTH",
"510 487 OFFCURVE",
"438.5 560 OFFCURVE",
"328.652 560 CURVE SMOOTH",
"237.272 560 OFFCURVE",
"182 510 OFFCURVE",
"182 424 CURVE",
"201 445 LINE",
"182 445 LINE",
"182 550 LINE",
"182 730 LINE",
"92 730 LINE",
"92 0 LINE"
);
}
);
width = 600;
},
{
layerId = "EDF5EB54-295C-4C90-9A2F-67CD82979CFF";
paths = (
{
closed = 1;
nodes = (
"160 0 LINE",
"160 360 LINE SMOOTH",
"160 456.708 OFFCURVE",
"214.955 517 OFFCURVE",
"303.104 517 CURVE SMOOTH",
"388.997 517 OFFCURVE",
"442 458.507 OFFCURVE",
"442 360 CURVE SMOOTH",
"442 0 LINE",
"492 0 LINE",
"492 367 LINE SMOOTH",
"492 484.743 OFFCURVE",
"420.945 560 OFFCURVE",
"312.904 560 CURVE SMOOTH",
"217.033 560 OFFCURVE",
"153 501.072 OFFCURVE",
"153 410 CURVE",
"183.323 470.223 LINE",
"160 470 LINE",
"160 580.366 LINE",
"160 730 LINE",
"110 730 LINE",
"110 0 LINE"
);
}
);
width = 600;
}
);
unicode = 0068;
},
{
glyphname = hbar;
lastChange = "2020-07-02 13:33:11 +0000";
layers = (
{
components = (
{
alignment = -1;
name = uni045B;
}
);
guideLines = (
{
position = "{0, -168}";
}
);
layerId = "9ADF6715-3D0F-493D-8567-18A6FBCFC567";
width = 600;
},
{
components = (
{
alignment = -1;
name = uni045B;
}
);
guideLines = (
{
position = "{0, 730}";
}
);
hints = (
{
place = "{88, 90}";
type = Stem;
},
{
place = "{423, 90}";
type = Stem;
},
{
horizontal = 1;
place = "{484, 76}";
type = Stem;
},
{
horizontal = 1;
place = "{600, 75}";
type = Stem;
},
{
horizontal = 1;
place = "{0, 21}";
target = up;
type = BottomGhost;
},
{
horizontal = 1;
place = "{730, -20}";
target = down;
type = TopGhost;
},
{
place = "{153, 25}";
type = Stem;
},
{
horizontal = 1;
place = "{720, -20}";
target = down;
type = TopGhost;
}
);
layerId = "CCC0BD40-BA8C-414E-B576-CF0B94E6C996";
width = 600;
},
{
associatedMasterId = "EDF5EB54-295C-4C90-9A2F-67CD82979CFF";
layerId = "040298CF-5572-47E8-A6B5-8878BEE70FAE";
name = public.background;
paths = (
{
closed = 1;
nodes = (
"40 615 LINE",
"280 615 LINE",
"280 660 LINE",
"40 660 LINE"
);
},
{
closed = 1;
nodes = (
"110 0 LINE",
"160 0 LINE",
"160 350 LINE SMOOTH",
"160 446.708 OFFCURVE",
"214.955 507 OFFCURVE",
"303.104 507 CURVE SMOOTH",
"388.997 507 OFFCURVE",
"442 448.507 OFFCURVE",
"442 350 CURVE SMOOTH",
"442 0 LINE",
"492 0 LINE",
"492 357 LINE SMOOTH",
"492 474.743 OFFCURVE",
"420.945 550 OFFCURVE",
"312.904 550 CURVE SMOOTH",
"217.033 550 OFFCURVE",
"153 491.072 OFFCURVE",
"153 400 CURVE",
"183.323 460.223 LINE",
"160 460 LINE",
"160 570.366 LINE",
"160 730 LINE",
"110 730 LINE"
);
}
);
width = 600;
},
{
components = (
{
alignment = -1;
name = uni045B;
}
);
layerId = "EDF5EB54-295C-4C90-9A2F-67CD82979CFF";
width = 600;
}
);
unicode = 0127;
},
{
glyphname = i;
lastChange = "2020-06-19 10:30:00 +0000";
layers = (
{
hints = (
{
place = "{240, 170}";
type = Stem;
},
{
place = "{260, 140}";
type = Stem;
},
{
horizontal = 1;
place = "{415, 135}";
type = Stem;
},
{
horizontal = 1;
place = "{0, 136}";
type = Stem;
}
);
layerId = "9ADF6715-3D0F-493D-8567-18A6FBCFC567";
paths = (
{
closed = 1;
nodes = (
"560 0 LINE",
"560 136 LINE",
"400 136 LINE",
"400 550 LINE",
"95 550 LINE",
"95 415 LINE",
"260 415 LINE",
"260 136 LINE",
"70 136 LINE",
"70 0 LINE"
);
},
{
closed = 1;
nodes = (
"334 625 LINE SMOOTH",
"380 625 OFFCURVE",
"410 652 OFFCURVE",
"410 695 CURVE SMOOTH",
"410 737 OFFCURVE",
"380 765 OFFCURVE",
"335 765 CURVE SMOOTH",
"315 765 LINE SMOOTH",
"270 765 OFFCURVE",
"240 737 OFFCURVE",
"240 695 CURVE SMOOTH",
"240 653 OFFCURVE",
"270 625 OFFCURVE",
"315 625 CURVE SMOOTH"
);
}
);
width = 600;
},
{
hints = (
{
place = "{295, 90}";
type = Stem;
},
{
horizontal = 1;
place = "{0, 82}";
type = Stem;
},
{
horizontal = 1;
place = "{468, 82}";
type = Stem;
},
{
horizontal = 1;
place = "{645, 120}";
type = Stem;
},
{
place = "{250, 150}";
type = Stem;
}
);
layerId = "CCC0BD40-BA8C-414E-B576-CF0B94E6C996";
paths = (
{
closed = 1;
nodes = (
"550 0 LINE",
"550 82 LINE",
"365 82 LINE",
"365 550 LINE",
"105 550 LINE",
"105 468 LINE",
"275 468 LINE",
"275 82 LINE",
"80 82 LINE",
"80 0 LINE"
);
},
{
closed = 1;
nodes = (
"320 645 LINE SMOOTH",
"359 645 OFFCURVE",
"385 668 OFFCURVE",
"385 704 CURVE SMOOTH",
"385 740 OFFCURVE",
"359 765 OFFCURVE",
"320 765 CURVE SMOOTH",
"300 765 LINE SMOOTH",
"261 765 OFFCURVE",
"235 740 OFFCURVE",
"235 704 CURVE SMOOTH",
"235 667 OFFCURVE",
"261 645 OFFCURVE",
"300 645 CURVE SMOOTH"
);
}
);
width = 600;
},
{
layerId = "EDF5EB54-295C-4C90-9A2F-67CD82979CFF";
paths = (
{
closed = 1;
nodes = (
"535 0 LINE",
"535 45 LINE",
"346 45 LINE",
"346 550 LINE",
"120 550 LINE",
"120 505 LINE",
"296 505 LINE",
"296 45 LINE",
"95 45 LINE",
"95 0 LINE"
);
},
{
closed = 1;
nodes = (
"315 650 LINE SMOOTH",
"348 650 OFFCURVE",
"370 672 OFFCURVE",
"370 705 CURVE SMOOTH",
"370 738 OFFCURVE",
"348 760 OFFCURVE",
"315 760 CURVE SMOOTH",
"310 760 LINE SMOOTH",
"277 760 OFFCURVE",
"255 738 OFFCURVE",
"255 705 CURVE SMOOTH",
"255 672 OFFCURVE",
"277 650 OFFCURVE",
"310 650 CURVE SMOOTH"
);
}
);
width = 600;
}
);
unicode = 0069;
},
{
glyphname = idotless;
lastChange = "2020-06-19 10:44:23 +0000";
layers = (
{
layerId = "9ADF6715-3D0F-493D-8567-18A6FBCFC567";
paths = (
{
closed = 1;
nodes = (
"565 0 LINE",
"565 136 LINE",
"410 136 LINE",
"410 550 LINE",
"90 550 LINE",
"90 415 LINE",
"270 415 LINE",
"270 136 LINE",
"66 136 LINE",
"66 0 LINE"
);
}
);
width = 600;
},
{
hints = (
{
place = "{295, 90}";
type = Stem;
},
{
horizontal = 1;
place = "{0, 82}";
type = Stem;
},
{
horizontal = 1;
place = "{468, 82}";
type = Stem;
}
);
layerId = "CCC0BD40-BA8C-414E-B576-CF0B94E6C996";
paths = (
{
closed = 1;
nodes = (
"545 0 LINE",
"545 82 LINE",
"385 82 LINE",
"385 550 LINE",
"115 550 LINE",
"115 468 LINE",
"295 468 LINE",
"295 82 LINE",
"90 82 LINE",
"90 0 LINE"
);
}
);
width = 600;
},
{
layerId = "EDF5EB54-295C-4C90-9A2F-67CD82979CFF";
paths = (
{
closed = 1;
nodes = (
"535 0 LINE",
"535 45 LINE",
"346 45 LINE",
"346 550 LINE",
"120 550 LINE",
"120 505 LINE",
"296 505 LINE",
"296 45 LINE",
"95 45 LINE",
"95 0 LINE"
);
}
);
width = 600;
}
);
unicode = 0131;
},
{
color = 1;
glyphname = ij;
lastChange = "2020-06-19 10:37:10 +0000";
layers = (
{
layerId = "9ADF6715-3D0F-493D-8567-18A6FBCFC567";
paths = (
{
closed = 1;
nodes = (
"299 -165 LINE",
"435 -165 OFFCURVE",
"531 -84 OFFCURVE",
"531 30 CURVE SMOOTH",
"531 550 LINE",
"381 550 LINE",
"381 30 LINE SMOOTH",
"381 -11 OFFCURVE",
"351 -35 OFFCURVE",
"299 -35 CURVE",
"220 -35 LINE",
"220 -165 LINE"
);
},
{
closed = 1;
nodes = (
"221 0 LINE",
"221 550 LINE",
"81 550 LINE",
"81 0 LINE"
);
},
{
closed = 1;
nodes = (
"161 625 LINE SMOOTH",
"207 625 OFFCURVE",
"237 652 OFFCURVE",
"237 694.5 CURVE SMOOTH",
"237 737 OFFCURVE",
"207 765 OFFCURVE",
"162 765 CURVE SMOOTH",
"132 765 LINE SMOOTH",
"87 765 OFFCURVE",
"57 737 OFFCURVE",
"57 695 CURVE SMOOTH",
"57 653 OFFCURVE",
"87 625 OFFCURVE",
"132 625 CURVE SMOOTH"
);
},
{
closed = 1;
nodes = (
"466 625 LINE SMOOTH",
"512 625 OFFCURVE",
"542 652 OFFCURVE",
"542 694.5 CURVE SMOOTH",
"542 737 OFFCURVE",
"512 765 OFFCURVE",
"467 765 CURVE SMOOTH",
"437 765 LINE SMOOTH",
"392 765 OFFCURVE",
"362 737 OFFCURVE",
"362 695 CURVE SMOOTH",
"362 653 OFFCURVE",
"392 625 OFFCURVE",
"437 625 CURVE SMOOTH"
);
}
);
width = 600;
},
{
hints = (
{
place = "{75, 150}";
type = Stem;
},
{
place = "{105, 90}";
type = Stem;
},
{
place = "{375, 150}";
type = Stem;
},
{
place = "{410, 90}";
type = Stem;
},
{
horizontal = 1;
place = "{-165, 82}";
type = Stem;
},
{
horizontal = 1;
place = "{645, 120}";
type = Stem;
}
);
layerId = "CCC0BD40-BA8C-414E-B576-CF0B94E6C996";
paths = (
{
closed = 1;
nodes = (
"295 -165 LINE SMOOTH",
"419 -165 OFFCURVE",
"500 -88 OFFCURVE",
"500 30 CURVE SMOOTH",
"500 550 LINE",
"410 550 LINE",
"410 30 LINE SMOOTH",
"410 -40 OFFCURVE",
"366 -83 OFFCURVE",
"295 -83 CURVE SMOOTH",
"210 -83 LINE",
"210 -165 LINE"
);
},
{
closed = 1;
nodes = (
"195 0 LINE",
"195 550 LINE",
"105 550 LINE",
"105 0 LINE"
);
},
{
closed = 1;
nodes = (
"160 645 LINE SMOOTH",
"199 645 OFFCURVE",
"225 668 OFFCURVE",
"225 704 CURVE SMOOTH",
"225 740 OFFCURVE",
"199 765 OFFCURVE",
"160 765 CURVE SMOOTH",
"140 765 LINE SMOOTH",
"101 765 OFFCURVE",
"75 740 OFFCURVE",
"75 703.5 CURVE SMOOTH",
"75 667 OFFCURVE",
"101 645 OFFCURVE",
"140 645 CURVE SMOOTH"
);
},
{
closed = 1;
nodes = (
"460 645 LINE SMOOTH",
"499 645 OFFCURVE",
"525 668 OFFCURVE",
"525 704 CURVE SMOOTH",
"525 740 OFFCURVE",
"499 765 OFFCURVE",
"460 765 CURVE SMOOTH",
"440 765 LINE SMOOTH",
"401 765 OFFCURVE",
"375 740 OFFCURVE",
"375 703.5 CURVE SMOOTH",
"375 667 OFFCURVE",
"401 645 OFFCURVE",
"440 645 CURVE SMOOTH"
);
}
);
width = 600;
},
{
layerId = "EDF5EB54-295C-4C90-9A2F-67CD82979CFF";
paths = (
{
closed = 1;
nodes = (
"267 -165 LINE SMOOTH",
"394 -165 OFFCURVE",
"478 -87 OFFCURVE",
"478 30 CURVE SMOOTH",
"477 550 LINE",
"422 550 LINE",
"422 30 LINE SMOOTH",
"422 -57 OFFCURVE",
"360 -115 OFFCURVE",
"267 -115 CURVE SMOOTH",
"212 -115 LINE",
"212 -165 LINE"
);
},
{
closed = 1;
nodes = (
"175 0 LINE",
"175 550 LINE",
"120 550 LINE",
"120 0 LINE"
);
},
{
closed = 1;
nodes = (
"150 645 LINE SMOOTH",
"183 645 OFFCURVE",
"205 667 OFFCURVE",
"205 700 CURVE SMOOTH",
"205 733 OFFCURVE",
"183 755 OFFCURVE",
"150 755 CURVE SMOOTH",
"145 755 LINE SMOOTH",
"112 755 OFFCURVE",
"90 733 OFFCURVE",
"90 700 CURVE SMOOTH",
"90 667 OFFCURVE",
"112 645 OFFCURVE",
"145 645 CURVE SMOOTH"
);
},
{
closed = 1;
nodes = (
"455 645 LINE SMOOTH",
"488 645 OFFCURVE",
"510 667 OFFCURVE",
"510 700 CURVE SMOOTH",
"510 733 OFFCURVE",
"488 755 OFFCURVE",
"455 755 CURVE SMOOTH",
"450 755 LINE SMOOTH",
"417 755 OFFCURVE",
"395 733 OFFCURVE",
"395 700 CURVE SMOOTH",
"395 667 OFFCURVE",
"417 645 OFFCURVE",
"450 645 CURVE SMOOTH"
);
}
);
width = 600;
}
);
unicode = 0133;
},
{
glyphname = j;
lastChange = "2020-06-19 10:30:00 +0000";
layers = (
{
hints = (
{
place = "{325, 150}";
type = Stem;
},
{
place = "{315, 170}";
type = Stem;
},
{
horizontal = 1;
place = "{-180, 140}";
type = Stem;
},
{
horizontal = 1;
place = "{410, 140}";
type = Stem;
}
);
layerId = "9ADF6715-3D0F-493D-8567-18A6FBCFC567";
paths = (
{
closed = 1;
nodes = (
"251 -180 LINE SMOOTH",
"389 -180 OFFCURVE",
"475 -96 OFFCURVE",
"475 40 CURVE SMOOTH",
"475 550 LINE",
"110 550 LINE",
"110 410 LINE",
"325 410 LINE",
"325 45 LINE SMOOTH",
"325 -9 OFFCURVE",
"294 -40 OFFCURVE",
"240 -40 CURVE SMOOTH",
"80 -40 LINE",
"80 -180 LINE"
);
},
{
closed = 1;
nodes = (
"409 625 LINE SMOOTH",
"455 625 OFFCURVE",
"485 652 OFFCURVE",
"485 695 CURVE SMOOTH",
"485 737 OFFCURVE",
"455 765 OFFCURVE",
"410 765 CURVE SMOOTH",
"390 765 LINE SMOOTH",
"345 765 OFFCURVE",
"315 737 OFFCURVE",
"315 695 CURVE SMOOTH",
"315 653 OFFCURVE",
"345 625 OFFCURVE",
"390 625 CURVE SMOOTH"
);
}
);
width = 600;
},
{
hints = (
{
place = "{305, 150}";
type = Stem;
},
{
place = "{345, 90}";
type = Stem;
},
{
horizontal = 1;
place = "{-170, 83}";
type = Stem;
},
{
horizontal = 1;
place = "{468, 82}";
type = Stem;
},
{
horizontal = 1;
place = "{645, 120}";
type = Stem;
}
);
layerId = "CCC0BD40-BA8C-414E-B576-CF0B94E6C996";
paths = (
{
closed = 1;
nodes = (
"214 -180 LINE SMOOTH",
"349.057 -180 OFFCURVE",
"435 -97.946 OFFCURVE",
"435 31 CURVE SMOOTH",
"435 550 LINE",
"115 550 LINE",
"115 468 LINE",
"345 468 LINE",
"345 31 LINE SMOOTH",
"345 -50.538 OFFCURVE",
"297.449 -97 OFFCURVE",
"214 -97 CURVE SMOOTH",
"85 -97 LINE",
"85 -180 LINE"
);
},
{
closed = 1;
nodes = (
"395 645 LINE SMOOTH",
"434 645 OFFCURVE",
"460 668 OFFCURVE",
"460 704 CURVE SMOOTH",
"460 740 OFFCURVE",
"434 765 OFFCURVE",
"395 765 CURVE SMOOTH",
"375 765 LINE SMOOTH",
"336 765 OFFCURVE",
"310 740 OFFCURVE",
"310 704 CURVE SMOOTH",
"310 667 OFFCURVE",
"336 645 OFFCURVE",
"375 645 CURVE SMOOTH"
);
}
);
width = 600;
},
{
layerId = "EDF5EB54-295C-4C90-9A2F-67CD82979CFF";
paths = (
{
closed = 1;
nodes = (
"230 -180 LINE SMOOTH",
"351.868 -180 OFFCURVE",
"424 -109.355 OFFCURVE",
"424 10 CURVE SMOOTH",
"424 550 LINE",
"124 550 LINE",
"124 505 LINE",
"374 505 LINE",
"374 10 LINE SMOOTH",
"374 -83.828 OFFCURVE",
"324.174 -135 OFFCURVE",
"230 -135 CURVE SMOOTH",
"95 -135 LINE",
"95 -180 LINE"
);
},
{
closed = 1;
nodes = (
"395 645 LINE SMOOTH",
"428 645 OFFCURVE",
"450 667 OFFCURVE",
"450 700 CURVE SMOOTH",
"450 733 OFFCURVE",
"428 755 OFFCURVE",
"395 755 CURVE SMOOTH",
"390 755 LINE SMOOTH",
"357 755 OFFCURVE",
"335 733 OFFCURVE",
"335 700 CURVE SMOOTH",
"335 667 OFFCURVE",
"357 645 OFFCURVE",
"390 645 CURVE SMOOTH"
);
}
);
width = 600;
}
);
unicode = 006A;
},
{
glyphname = uni0237;
lastChange = "2020-06-19 10:30:00 +0000";
layers = (
{
layerId = "9ADF6715-3D0F-493D-8567-18A6FBCFC567";
paths = (
{
closed = 1;
nodes = (
"251 -180 LINE SMOOTH",
"388.916 -180 OFFCURVE",
"475 -96.454 OFFCURVE",
"475 40 CURVE SMOOTH",
"475 550 LINE",
"110 550 LINE",
"110 410 LINE",
"325 410 LINE",
"325 45 LINE SMOOTH",
"325 -8.85 OFFCURVE",
"293.85 -40 OFFCURVE",
"240 -40 CURVE SMOOTH",
"80 -40 LINE",
"80 -180 LINE"
);
}
);
width = 600;
},
{
hints = (
{
place = "{345, 90}";
type = Stem;
},
{
horizontal = 1;
place = "{-165, 83}";
type = Stem;
},
{
horizontal = 1;
place = "{468, 82}";
type = Stem;
},
{
place = "{305, 150}";
type = Stem;
},
{
horizontal = 1;
place = "{-170, 83}";
type = Stem;
},
{
horizontal = 1;
place = "{645, 120}";
type = Stem;
}
);
layerId = "CCC0BD40-BA8C-414E-B576-CF0B94E6C996";
paths = (
{
closed = 1;
nodes = (
"214 -180 LINE SMOOTH",
"349.057 -180 OFFCURVE",
"435 -97.946 OFFCURVE",
"435 31 CURVE SMOOTH",
"435 550 LINE",
"115 550 LINE",
"115 468 LINE",
"345 468 LINE",
"345 31 LINE SMOOTH",
"345 -50.538 OFFCURVE",
"297.449 -97 OFFCURVE",
"214 -97 CURVE SMOOTH",
"85 -97 LINE",
"85 -180 LINE"
);
}
);
width = 600;
},
{
associatedMasterId = "EDF5EB54-295C-4C90-9A2F-67CD82979CFF";
layerId = "040298CF-5572-47E8-A6B5-8878BEE70FAE";
name = public.background;
paths = (
{
closed = 1;
nodes = (
"174 550 LINE",
"174 500 LINE",
"342 500 LINE",
"400 500 LINE",
"400 446 LINE",
"400 0 LINE SMOOTH",
"400 -77 OFFCURVE",
"349 -125 OFFCURVE",
"265 -125 CURVE SMOOTH",
"181 -125 OFFCURVE",
"130 -77 OFFCURVE",
"130 0 CURVE SMOOTH",
"130 30 LINE",
"75 30 LINE",
"75 0 LINE SMOOTH",
"75 -109 OFFCURVE",
"147 -175 OFFCURVE",
"265 -175 CURVE SMOOTH",
"383 -175 OFFCURVE",
"456 -108 OFFCURVE",
"456 0 CURVE SMOOTH",
"455 550 LINE"
);
}
);
width = 600;
},
{
layerId = "EDF5EB54-295C-4C90-9A2F-67CD82979CFF";
paths = (
{
closed = 1;
nodes = (
"230 -180 LINE SMOOTH",
"351.868 -180 OFFCURVE",
"424 -109.355 OFFCURVE",
"424 10 CURVE SMOOTH",
"424 550 LINE",
"124 550 LINE",
"124 505 LINE",
"374 505 LINE",
"374 10 LINE SMOOTH",
"374 -83.828 OFFCURVE",
"324.174 -135 OFFCURVE",
"230 -135 CURVE SMOOTH",
"95 -135 LINE",
"95 -180 LINE"
);
}
);
width = 600;
}
);
unicode = 0237;
},
{
glyphname = k;
lastChange = "2020-06-26 17:17:29 +0000";
layers = (
{
layerId = "9ADF6715-3D0F-493D-8567-18A6FBCFC567";
paths = (
{
closed = 1;
nodes = (
"219 0 LINE",
"219 216 LINE",
"292 216 LINE",
"408 0 LINE",
"578 0 LINE",
"422 281 LINE",
"575 550 LINE",
"408 550 LINE",
"293 342 LINE",
"219 342 LINE",
"219 730 LINE",
"69 730 LINE",
"69 0 LINE"
);
}
);
width = 600;
},
{
associatedMasterId = "EDF5EB54-295C-4C90-9A2F-67CD82979CFF";
hints = (
{
place = "{93, 90}";
type = Stem;
},
{
horizontal = 1;
place = "{240, 80}";
type = Stem;
},
{
horizontal = 1;
place = "{0, 21}";
target = up;
type = BottomGhost;
},
{
horizontal = 1;
place = "{720, -20}";
target = down;
type = TopGhost;
}
);
layerId = "040298CF-5572-47E8-A6B5-8878BEE70FAE";
name = public.background;
paths = (
{
closed = 1;
nodes = (
"184 730 LINE",
"184 289 LINE",
"199 289 LINE",
"430 550 LINE",
"540 550 LINE",
"296 283 LINE",
"544 0 LINE",
"434 0 LINE",
"199 271 LINE",
"184 271 LINE",
"184 0 LINE",
"94 0 LINE",
"94 730 LINE"
);
}
);
width = 600;
},
{
layerId = "CCC0BD40-BA8C-414E-B576-CF0B94E6C996";
paths = (
{
closed = 1;
nodes = (
"185 0 LINE",
"185 245 LINE",
"282 245 LINE",
"442 0 LINE",
"547 0 LINE",
"359 288 LINE",
"544 550 LINE",
"441 550 LINE",
"281 323 LINE",
"185 323 LINE",
"185 730 LINE",
"95 730 LINE",
"95 0 LINE"
);
}
);
width = 600;
},
{
layerId = "EDF5EB54-295C-4C90-9A2F-67CD82979CFF";
paths = (
{
closed = 1;
nodes = (
"163 0 LINE",
"163 264 LINE",
"295 264 LINE",
"471 0 LINE",
"531 0 LINE",
"342 289 LINE",
"527 550 LINE",
"467 550 LINE",
"295 309 LINE",
"163 309 LINE",
"163 730 LINE",
"113 730 LINE",
"113 0 LINE"
);
}
);
width = 600;
}
);
unicode = 006B;
},
{
glyphname = l;
layers = (
{
associatedMasterId = "EDF5EB54-295C-4C90-9A2F-67CD82979CFF";
layerId = "040298CF-5572-47E8-A6B5-8878BEE70FAE";
name = public.background;
paths = (
{
closed = 1;
nodes = (
"110 729.694 LINE",
"330 729.694 LINE",
"330 45 LINE",
"525 45 LINE",
"525 0 LINE",
"85 0 LINE",
"85 45 LINE",
"280 45 LINE",
"280 684.694 LINE",
"110 684.694 LINE"
);
}
);
width = 600;
},
{
layerId = "9ADF6715-3D0F-493D-8567-18A6FBCFC567";
paths = (
{
closed = 1;
nodes = (
"565 0 LINE",
"565 135 LINE",
"405 135 LINE SMOOTH",
"369 135 OFFCURVE",
"345 159 OFFCURVE",
"345 195 CURVE SMOOTH",
"345 730 LINE",
"25 730 LINE",
"25 595 LINE",
"195 595 LINE",
"195 195 LINE SMOOTH",
"195 78 OFFCURVE",
"273 0 OFFCURVE",
"390 0 CURVE SMOOTH"
);
}
);
width = 600;
},
{
layerId = "CCC0BD40-BA8C-414E-B576-CF0B94E6C996";
paths = (
{
closed = 1;
nodes = (
"550 0 LINE",
"550 82 LINE",
"365 82 LINE SMOOTH",
"321.726 82 OFFCURVE",
"295 109.871 OFFCURVE",
"295 155 CURVE SMOOTH",
"295 730 LINE",
"40 730 LINE",
"40 648 LINE",
"205 648 LINE",
"205 155 LINE SMOOTH",
"205 60.598 OFFCURVE",
"267.553 0 OFFCURVE",
"365 0 CURVE SMOOTH"
);
}
);
width = 600;
},
{
layerId = "EDF5EB54-295C-4C90-9A2F-67CD82979CFF";
paths = (
{
closed = 1;
nodes = (
"540 0 LINE",
"540 45 LINE",
"365 45 LINE SMOOTH",
"305.9 45 OFFCURVE",
"275 75.9 OFFCURVE",
"275 135 CURVE SMOOTH",
"275 730 LINE",
"50 730 LINE",
"50 685 LINE",
"225 685 LINE",
"225 135 LINE SMOOTH",
"225 48.28 OFFCURVE",
"275.068 0 OFFCURVE",
"365 0 CURVE SMOOTH"
);
}
);
width = 600;
}
);
unicode = 006C;
},
{
glyphname = lslash;
lastChange = "2020-06-19 09:33:19 +0000";
layers = (
{
components = (
{
alignment = -1;
name = l;
}
);
guideLines = (
{
position = "{0, 730}";
}
);
layerId = "9ADF6715-3D0F-493D-8567-18A6FBCFC567";
paths = (
{
closed = 1;
nodes = (
"480 420 LINE",
"480 560 LINE",
"100 370 LINE",
"100 230 LINE"
);
}
);
width = 600;
},
{
components = (
{
alignment = -1;
name = l;
}
);
hints = (
{
place = "{222, 90}";
type = Stem;
},
{
horizontal = 1;
place = "{0, 82}";
type = Stem;
},
{
horizontal = 1;
place = "{648, 82}";
type = Stem;
}
);
layerId = "CCC0BD40-BA8C-414E-B576-CF0B94E6C996";
paths = (
{
closed = 1;
nodes = (
"470 480 LINE",
"470 560 LINE",
"100 310 LINE",
"100 230 LINE"
);
}
);
width = 600;
},
{
components = (
{
alignment = -1;
name = l;
}
);
layerId = "EDF5EB54-295C-4C90-9A2F-67CD82979CFF";
paths = (
{
closed = 1;
nodes = (
"470 495 LINE",
"470 550 LINE",
"100 295 LINE",
"100 240 LINE"
);
}
);
width = 600;
}
);
unicode = 0142;
},
{
color = 1;
glyphname = m;
lastChange = "2020-06-19 10:37:10 +0000";
layers = (
{
layerId = "9ADF6715-3D0F-493D-8567-18A6FBCFC567";
paths = (
{
closed = 1;
nodes = (
"171 0 LINE",
"171 403 LINE SMOOTH",
"171 438 OFFCURVE",
"180 458 OFFCURVE",
"207 458 CURVE SMOOTH",
"234 458 OFFCURVE",
"249 439 OFFCURVE",
"249 403 CURVE SMOOTH",
"249 0 LINE",
"352 0 LINE",
"352 403 LINE SMOOTH",
"352 438 OFFCURVE",
"363 458 OFFCURVE",
"390 458 CURVE SMOOTH",
"417 458 OFFCURVE",
"430 439 OFFCURVE",
"430 403 CURVE SMOOTH",
"430 0 LINE",
"559 0 LINE",
"559 420 LINE SMOOTH",
"559 506 OFFCURVE",
"513 560 OFFCURVE",
"447 560 CURVE SMOOTH",
"388.498 560 OFFCURVE",
"351.296 518.921 OFFCURVE",
"350.924 455.836 CURVE",
"359.6 470 LINE",
"331.96 470 LINE",
"349.651 424.778 LINE",
"350.085 505.911 OFFCURVE",
"316.025 560 OFFCURVE",
"259.15 560 CURVE SMOOTH",
"204.54 560 OFFCURVE",
"165.004 518.98 OFFCURVE",
"164.962 455.972 CURVE",
"184 470 LINE",
"160 470 LINE",
"160 550 LINE",
"42 550 LINE",
"42 0 LINE"
);
}
);
width = 600;
},
{
hints = (
{
place = "{62, 78}";
type = Stem;
},
{
place = "{261, 78}";
type = Stem;
},
{
place = "{460, 78}";
type = Stem;
},
{
horizontal = 1;
place = "{491, 69}";
type = Stem;
},
{
horizontal = 1;
place = "{0, 21}";
target = up;
type = BottomGhost;
}
);
layerId = "CCC0BD40-BA8C-414E-B576-CF0B94E6C996";
paths = (
{
closed = 1;
nodes = (
"149 0 LINE",
"149 420 LINE SMOOTH",
"149 465.181 OFFCURVE",
"168.148 491 OFFCURVE",
"205.119 491 CURVE SMOOTH",
"242.467 491 OFFCURVE",
"264 464.653 OFFCURVE",
"264 419 CURVE SMOOTH",
"264 0 LINE",
"336 0 LINE",
"336 420 LINE SMOOTH",
"336 464.633 OFFCURVE",
"357.562 491 OFFCURVE",
"394.066 491 CURVE SMOOTH",
"431.034 491 OFFCURVE",
"451 463.958 OFFCURVE",
"451 419 CURVE SMOOTH",
"451 0 LINE",
"534 0 LINE",
"534 418 LINE SMOOTH",
"534 503.2 OFFCURVE",
"493.569 560 OFFCURVE",
"425.489 560 CURVE SMOOTH",
"368.808 560 OFFCURVE",
"332 520.629 OFFCURVE",
"332 460 CURVE",
"351.054 484 LINE",
"309.386 484 LINE",
"336 430 LINE",
"336 512.633 OFFCURVE",
"300.975 560 OFFCURVE",
"239.825 560 CURVE SMOOTH",
"184.389 560 OFFCURVE",
"149 521.07 OFFCURVE",
"149 460 CURVE",
"162.856 484 LINE",
"145 484 LINE",
"145 550 LINE",
"66 550 LINE",
"66 0 LINE"
);
}
);
width = 600;
},
{
layerId = "EDF5EB54-295C-4C90-9A2F-67CD82979CFF";
paths = (
{
closed = 1;
nodes = (
"128 0 LINE",
"128 425 LINE",
"131.035 481.657 OFFCURVE",
"160.516 518 OFFCURVE",
"205 518 CURVE SMOOTH",
"249.479 518 OFFCURVE",
"276 481.664 OFFCURVE",
"276 425 CURVE SMOOTH",
"276 0 LINE",
"324 0 LINE",
"324 425 LINE SMOOTH",
"324 480.8 OFFCURVE",
"353.6 518 OFFCURVE",
"401 518 CURVE SMOOTH",
"445.177 518 OFFCURVE",
"472 482.062 OFFCURVE",
"472 425 CURVE SMOOTH",
"472 0 LINE",
"521 0 LINE",
"521 431 LINE SMOOTH",
"521 511 OFFCURVE",
"482 560 OFFCURVE",
"416 560 CURVE SMOOTH",
"357.408 560 OFFCURVE",
"322.007 521.149 OFFCURVE",
"323.682 461.33 CURVE",
"325.6 475 LINE",
"317.76 475 LINE",
"322.461 461.121 LINE",
"314.016 523.655 OFFCURVE",
"277.387 560 OFFCURVE",
"220 560 CURVE SMOOTH",
"161.408 560 OFFCURVE",
"125.007 521.149 OFFCURVE",
"126.682 461.33 CURVE",
"128.6 475 LINE",
"123 475 LINE",
"123 550 LINE",
"79 550 LINE",
"79 0 LINE"
);
}
);
width = 600;
}
);
unicode = 006D;
},
{
glyphname = n;
lastChange = "2020-06-26 17:13:24 +0000";
layers = (
{
associatedMasterId = "EDF5EB54-295C-4C90-9A2F-67CD82979CFF";
layerId = "040298CF-5572-47E8-A6B5-8878BEE70FAE";
name = public.background;
paths = (
{
closed = 1;
nodes = (
"66 0 LINE",
"216 0 LINE",
"216 340 LINE SMOOTH",
"216 397.087 OFFCURVE",
"246.719 430 OFFCURVE",
"300 430 CURVE SMOOTH",
"354.027 430 OFFCURVE",
"386 396.54 OFFCURVE",
"386 340 CURVE SMOOTH",
"386 0 LINE",
"536 0 LINE",
"536 355 LINE SMOOTH",
"536 479.204 OFFCURVE",
"466.112 560 OFFCURVE",
"358.676 560 CURVE SMOOTH",
"271.261 560 OFFCURVE",
"221 506.7 OFFCURVE",
"221 414 CURVE",
"255.217 475 LINE",
"211 475 LINE",
"211 550 LINE",
"66 550 LINE"
);
}
);
width = 600;
},
{
layerId = "9ADF6715-3D0F-493D-8567-18A6FBCFC567";
paths = (
{
closed = 1;
nodes = (
"216 0 LINE",
"216 340 LINE SMOOTH",
"216 397.087 OFFCURVE",
"246.719 430 OFFCURVE",
"300 430 CURVE SMOOTH",
"354.027 430 OFFCURVE",
"386 396.54 OFFCURVE",
"386 340 CURVE SMOOTH",
"386 0 LINE",
"536 0 LINE",
"536 355 LINE SMOOTH",
"536 479.204 OFFCURVE",
"466.112 560 OFFCURVE",
"358.676 560 CURVE SMOOTH",
"267.59 560 OFFCURVE",
"211 502.519 OFFCURVE",
"211 410 CURVE",
"255.217 445 LINE",
"211 445 LINE",
"211 550 LINE",
"66 550 LINE",
"66 0 LINE"
);
}
);
width = 600;
},
{
layerId = "CCC0BD40-BA8C-414E-B576-CF0B94E6C996";
paths = (
{
closed = 1;
nodes = (
"182 0 LINE",
"182 350 LINE SMOOTH",
"182 435 OFFCURVE",
"228.356 484 OFFCURVE",
"302.675 484 CURVE SMOOTH",
"375.04 484 OFFCURVE",
"420 438 OFFCURVE",
"420 360 CURVE SMOOTH",
"420 0 LINE",
"510 0 LINE",
"510 370 LINE SMOOTH",
"510 487 OFFCURVE",
"438.5 560 OFFCURVE",
"328.652 560 CURVE SMOOTH",
"237.272 560 OFFCURVE",
"182 510 OFFCURVE",
"182 424 CURVE",
"201 445 LINE",
"182 445 LINE",
"182 550 LINE",
"92 550 LINE",
"92 0 LINE"
);
}
);
width = 600;
},
{
layerId = "EDF5EB54-295C-4C90-9A2F-67CD82979CFF";
paths = (
{
closed = 1;
nodes = (
"160 0 LINE",
"160 360 LINE SMOOTH",
"160 456.708 OFFCURVE",
"214.955 517 OFFCURVE",
"303.104 517 CURVE SMOOTH",
"388.997 517 OFFCURVE",
"442 458.507 OFFCURVE",
"442 360 CURVE SMOOTH",
"442 0 LINE",
"492 0 LINE",
"492 367 LINE SMOOTH",
"492 484.743 OFFCURVE",
"420.945 560 OFFCURVE",
"312.904 560 CURVE SMOOTH",
"215.221 560 OFFCURVE",
"153 499.298 OFFCURVE",
"153 404 CURVE",
"183.323 455.223 LINE",
"160 455 LINE",
"160 550 LINE",
"110 550 LINE",
"110 0 LINE"
);
}
);
width = 600;
}
);
unicode = 006E;
},
{
glyphname = eng;
lastChange = "2020-06-19 10:30:00 +0000";
layers = (
{
layerId = "9ADF6715-3D0F-493D-8567-18A6FBCFC567";
paths = (
{
closed = 1;
nodes = (
"296 -180 LINE SMOOTH",
"437 -180 OFFCURVE",
"536 -96 OFFCURVE",
"536 25 CURVE SMOOTH",
"536 355 LINE SMOOTH",
"536 479.204 OFFCURVE",
"466.112 560 OFFCURVE",
"358.676 560 CURVE SMOOTH",
"267.59 560 OFFCURVE",
"211 502.519 OFFCURVE",
"211 410 CURVE",
"255.217 445 LINE",
"211 445 LINE",
"211 550 LINE",
"66 550 LINE",
"66 0 LINE",
"216 0 LINE",
"216 340 LINE SMOOTH",
"216 397.087 OFFCURVE",
"246.719 430 OFFCURVE",
"300 430 CURVE SMOOTH",
"354.027 430 OFFCURVE",
"386 396.54 OFFCURVE",
"386 340 CURVE SMOOTH",
"386 41 LINE SMOOTH",
"386 -7 OFFCURVE",
"357 -35 OFFCURVE",
"306 -35 CURVE SMOOTH",
"246 -35 LINE",
"246 -180 LINE"
);
}
);
width = 600;
},
{
hints = (
{
place = "{88, 90}";
type = Stem;
},
{
place = "{423, 90}";
type = Stem;
},
{
horizontal = 1;
place = "{-170, 82}";
type = Stem;
},
{
horizontal = 1;
place = "{482, 78}";
type = Stem;
}
);
layerId = "CCC0BD40-BA8C-414E-B576-CF0B94E6C996";
paths = (
{
closed = 1;
nodes = (
"303 -180 LINE SMOOTH",
"427 -180 OFFCURVE",
"508 -103 OFFCURVE",
"508 15 CURVE SMOOTH",
"508 370 LINE SMOOTH",
"508 487.372 OFFCURVE",
"438.5 560 OFFCURVE",
"328.652 560 CURVE SMOOTH",
"237.272 560 OFFCURVE",
"184 509.915 OFFCURVE",
"184 424 CURVE",
"203 445 LINE",
"184 445 LINE",
"184 550 LINE",
"94 550 LINE",
"94 0 LINE",
"184 0 LINE",
"184 350 LINE SMOOTH",
"184 435.045 OFFCURVE",
"228.356 484 OFFCURVE",
"302.675 484 CURVE SMOOTH",
"375.04 484 OFFCURVE",
"418 437.809 OFFCURVE",
"418 360 CURVE SMOOTH",
"418 15 LINE SMOOTH",
"418 -55 OFFCURVE",
"374 -98 OFFCURVE",
"303 -98 CURVE SMOOTH",
"240 -98 LINE",
"240 -180 LINE"
);
}
);
width = 600;
},
{
layerId = "EDF5EB54-295C-4C90-9A2F-67CD82979CFF";
paths = (
{
closed = 1;
nodes = (
"286 -180 LINE SMOOTH",
"411.3 -180 OFFCURVE",
"492 -103.609 OFFCURVE",
"492 15 CURVE SMOOTH",
"492 367 LINE SMOOTH",
"492 484.743 OFFCURVE",
"420.945 560 OFFCURVE",
"312.904 560 CURVE SMOOTH",
"215.221 560 OFFCURVE",
"153 499.298 OFFCURVE",
"153 404 CURVE",
"183.323 455.223 LINE",
"160 455 LINE",
"160 550 LINE",
"110 550 LINE",
"110 0 LINE",
"160 0 LINE",
"160 360 LINE SMOOTH",
"160 456.708 OFFCURVE",
"214.955 517 OFFCURVE",
"303.104 517 CURVE SMOOTH",
"388.997 517 OFFCURVE",
"442 458.507 OFFCURVE",
"442 360 CURVE SMOOTH",
"442 15 LINE SMOOTH",
"442 -77.625 OFFCURVE",
"382.33 -135 OFFCURVE",
"286 -135 CURVE SMOOTH",
"245 -135 LINE",
"245 -180 LINE"
);
}
);
width = 600;
}
);
unicode = 014B;
},
{
glyphname = o;
lastChange = "2020-06-26 17:09:04 +0000";
layers = (
{
associatedMasterId = "EDF5EB54-295C-4C90-9A2F-67CD82979CFF";
layerId = "040298CF-5572-47E8-A6B5-8878BEE70FAE";
name = public.background;
paths = (
{
closed = 1;
nodes = (
"239.874 120 OFFCURVE",
"206 152.432 OFFCURVE",
"206 210 CURVE SMOOTH",
"206 340 LINE SMOOTH",
"206 397.849 OFFCURVE",
"239.1 430 OFFCURVE",
"300 430 CURVE SMOOTH",
"360.981 430 OFFCURVE",
"394 397.772 OFFCURVE",
"394 340 CURVE SMOOTH",
"394 210 LINE SMOOTH",
"394 152.163 OFFCURVE",
"360.407 120 OFFCURVE",
"300 120 CURVE SMOOTH"
);
},
{
closed = 1;
nodes = (
"447.33 -10 OFFCURVE",
"544 77.704 OFFCURVE",
"544 210 CURVE SMOOTH",
"544 340 LINE SMOOTH",
"544 472.281 OFFCURVE",
"447.313 560 OFFCURVE",
"300 560 CURVE SMOOTH",
"152.687 560 OFFCURVE",
"56 472.281 OFFCURVE",
"56 340 CURVE SMOOTH",
"56 210 LINE SMOOTH",
"56 77.704 OFFCURVE",
"152.67 -10 OFFCURVE",
"300 -10 CURVE SMOOTH"
);
}
);
width = 600;
},
{
hints = (
{
horizontal = 1;
place = "{430, 130}";
type = Stem;
},
{
horizontal = 1;
place = "{-10, 130}";
type = Stem;
},
{
place = "{60, 150}";
type = Stem;
},
{
place = "{390, 150}";
type = Stem;
}
);
layerId = "9ADF6715-3D0F-493D-8567-18A6FBCFC567";
paths = (
{
closed = 1;
nodes = (
"447.33 -10 OFFCURVE",
"540 77.704 OFFCURVE",
"540 210 CURVE SMOOTH",
"540 340 LINE SMOOTH",
"540 472.281 OFFCURVE",
"447.313 560 OFFCURVE",
"300 560 CURVE SMOOTH",
"152.687 560 OFFCURVE",
"60 472.281 OFFCURVE",
"60 340 CURVE SMOOTH",
"60 210 LINE SMOOTH",
"60 77.704 OFFCURVE",
"152.67 -10 OFFCURVE",
"300 -10 CURVE SMOOTH"
);
},
{
closed = 1;
nodes = (
"241.9 120 OFFCURVE",
"210 151.9 OFFCURVE",
"210 210 CURVE SMOOTH",
"210 340 LINE SMOOTH",
"210 398.1 OFFCURVE",
"241.9 430 OFFCURVE",
"300 430 CURVE SMOOTH",
"358.1 430 OFFCURVE",
"390 398.1 OFFCURVE",
"390 340 CURVE SMOOTH",
"390 210 LINE SMOOTH",
"390 151.9 OFFCURVE",
"358.1 120 OFFCURVE",
"300 120 CURVE SMOOTH"
);
}
);
width = 600;
},
{
layerId = "CCC0BD40-BA8C-414E-B576-CF0B94E6C996";
paths = (
{
closed = 1;
nodes = (
"430.536 -10 OFFCURVE",
"512 69 OFFCURVE",
"512 200 CURVE SMOOTH",
"512 351 LINE SMOOTH",
"512 481 OFFCURVE",
"430.543 560 OFFCURVE",
"300 560 CURVE SMOOTH",
"169.464 560 OFFCURVE",
"88 481 OFFCURVE",
"88 350 CURVE SMOOTH",
"88 200 LINE SMOOTH",
"88 69 OFFCURVE",
"169.464 -10 OFFCURVE",
"300 -10 CURVE SMOOTH"
);
},
{
closed = 1;
nodes = (
"222.118 70 OFFCURVE",
"178 115 OFFCURVE",
"178 200 CURVE SMOOTH",
"178 350 LINE SMOOTH",
"178 435 OFFCURVE",
"222.182 480 OFFCURVE",
"300 480 CURVE SMOOTH",
"377.818 480 OFFCURVE",
"422 435 OFFCURVE",
"422 350 CURVE SMOOTH",
"422 200 LINE SMOOTH",
"422 115 OFFCURVE",
"377.818 70 OFFCURVE",
"300 70 CURVE SMOOTH"
);
}
);
width = 600;
},
{
layerId = "EDF5EB54-295C-4C90-9A2F-67CD82979CFF";
paths = (
{
closed = 1;
nodes = (
"418.5 -10 OFFCURVE",
"495 68.462 OFFCURVE",
"495 190 CURVE SMOOTH",
"495 360 LINE SMOOTH",
"495 481.235 OFFCURVE",
"418.204 560 OFFCURVE",
"300 560 CURVE SMOOTH",
"181.796 560 OFFCURVE",
"105 481.235 OFFCURVE",
"105 360 CURVE SMOOTH",
"105 190 LINE SMOOTH",
"105 68.462 OFFCURVE",
"181.5 -10 OFFCURVE",
"300 -10 CURVE SMOOTH"
);
},
{
closed = 1;
nodes = (
"208.427 34 OFFCURVE",
"155 91.48 OFFCURVE",
"155 190 CURVE SMOOTH",
"155 360 LINE SMOOTH",
"155 458.005 OFFCURVE",
"208.906 516 OFFCURVE",
"300 516 CURVE SMOOTH",
"391.094 516 OFFCURVE",
"445 458.005 OFFCURVE",
"445 360 CURVE SMOOTH",
"445 190 LINE SMOOTH",
"445 91.48 OFFCURVE",
"391.573 34 OFFCURVE",
"300 34 CURVE SMOOTH"
);
}
);
width = 600;
}
);
unicode = 006F;
},
{
glyphname = ohorn;
lastChange = "2020-06-19 10:30:00 +0000";
layers = (
{
hints = (
{
horizontal = 1;
place = "{430, 130}";
type = Stem;
},
{
horizontal = 1;
place = "{-10, 131}";
type = Stem;
},
{
place = "{48, 150}";
type = Stem;
},
{
place = "{402, 150}";
type = Stem;
}
);
layerId = "9ADF6715-3D0F-493D-8567-18A6FBCFC567";
paths = (
{
closed = 1;
nodes = (
"447.33 -10 OFFCURVE",
"540 77.704 OFFCURVE",
"540 210 CURVE SMOOTH",
"540 340 LINE SMOOTH",
"540 472.281 OFFCURVE",
"447.313 560 OFFCURVE",
"300 560 CURVE SMOOTH",
"152.687 560 OFFCURVE",
"60 472.281 OFFCURVE",
"60 340 CURVE SMOOTH",
"60 210 LINE SMOOTH",
"60 77.704 OFFCURVE",
"152.67 -10 OFFCURVE",
"300 -10 CURVE SMOOTH"
);
},
{
closed = 1;
nodes = (
"241.9 120 OFFCURVE",
"210 151.9 OFFCURVE",
"210 210 CURVE SMOOTH",
"210 340 LINE SMOOTH",
"210 398.1 OFFCURVE",
"241.9 430 OFFCURVE",
"300 430 CURVE SMOOTH",
"358.1 430 OFFCURVE",
"390 398.1 OFFCURVE",
"390 340 CURVE SMOOTH",
"390 210 LINE SMOOTH",
"390 151.9 OFFCURVE",
"358.1 120 OFFCURVE",
"300 120 CURVE SMOOTH"
);
},
{
closed = 1;
nodes = (
"440 420 LINE SMOOTH",
"524 420 OFFCURVE",
"580 478 OFFCURVE",
"580 565 CURVE SMOOTH",
"580 660 LINE",
"470 660 LINE",
"470 559 LINE SMOOTH",
"470 535.697 OFFCURVE",
"455.108 520 OFFCURVE",
"433 520 CURVE SMOOTH",
"400 520 LINE",
"400 420 LINE"
);
}
);
width = 600;
},
{
associatedMasterId = "EDF5EB54-295C-4C90-9A2F-67CD82979CFF";
layerId = "040298CF-5572-47E8-A6B5-8878BEE70FAE";
name = public.background;
paths = (
{
closed = 1;
nodes = (
"300.842 550 LINE",
"300.842 490 LINE",
"485.071 490 LINE SMOOTH",
"548.329 490 OFFCURVE",
"590.5 528 OFFCURVE",
"590.5 585 CURVE SMOOTH",
"590.5 655 LINE",
"520.5 655 LINE",
"520.5 585 LINE SMOOTH",
"520.5 562.104 OFFCURVE",
"508.396 550 OFFCURVE",
"485.5 550 CURVE SMOOTH"
);
}
);
width = 600;
},
{
hints = (
{
place = "{80, 90}";
type = Stem;
},
{
place = "{430, 90}";
type = Stem;
},
{
horizontal = 1;
place = "{-10, 80}";
type = Stem;
},
{
horizontal = 1;
place = "{480, 80}";
type = Stem;
}
);
layerId = "CCC0BD40-BA8C-414E-B576-CF0B94E6C996";
paths = (
{
closed = 1;
nodes = (
"430.536 -10 OFFCURVE",
"510 69.464 OFFCURVE",
"510 200 CURVE SMOOTH",
"510 351 LINE SMOOTH",
"510 480.921 OFFCURVE",
"430.543 560 OFFCURVE",
"300 560 CURVE SMOOTH",
"169.464 560 OFFCURVE",
"90 480.536 OFFCURVE",
"90 350 CURVE SMOOTH",
"90 200 LINE SMOOTH",
"90 69.464 OFFCURVE",
"169.464 -10 OFFCURVE",
"300 -10 CURVE SMOOTH"
);
},
{
closed = 1;
nodes = (
"222.118 70 OFFCURVE",
"180 115.2 OFFCURVE",
"180 200 CURVE SMOOTH",
"180 350 LINE SMOOTH",
"180 435.386 OFFCURVE",
"222.182 480 OFFCURVE",
"300 480 CURVE SMOOTH",
"377.818 480 OFFCURVE",
"420 435.386 OFFCURVE",
"420 350 CURVE SMOOTH",
"420 200 LINE SMOOTH",
"420 114.614 OFFCURVE",
"377.818 70 OFFCURVE",
"300 70 CURVE SMOOTH"
);
},
{
closed = 1;
nodes = (
"436.071 459 LINE SMOOTH",
"504.729 459 OFFCURVE",
"550.5 501 OFFCURVE",
"550.5 564 CURVE SMOOTH",
"550.5 660 LINE",
"475.5 660 LINE",
"475.5 569 LINE SMOOTH",
"475.5 541.48 OFFCURVE",
"458.173 524 OFFCURVE",
"430.5 524 CURVE SMOOTH",
"394.868 524 LINE",
"394.868 459 LINE"
);
}
);
width = 600;
},
{
layerId = "EDF5EB54-295C-4C90-9A2F-67CD82979CFF";
paths = (
{
closed = 1;
nodes = (
"418.5 -10 OFFCURVE",
"495 68.462 OFFCURVE",
"495 190 CURVE SMOOTH",
"495 360 LINE SMOOTH",
"495 481.235 OFFCURVE",
"418.204 560 OFFCURVE",
"300 560 CURVE SMOOTH",
"181.796 560 OFFCURVE",
"105 481.235 OFFCURVE",
"105 360 CURVE SMOOTH",
"105 190 LINE SMOOTH",
"105 68.462 OFFCURVE",
"181.5 -10 OFFCURVE",
"300 -10 CURVE SMOOTH"
);
},
{
closed = 1;
nodes = (
"208.427 34 OFFCURVE",
"155 91.48 OFFCURVE",
"155 190 CURVE SMOOTH",
"155 360 LINE SMOOTH",
"155 458.005 OFFCURVE",
"208.906 516 OFFCURVE",
"300 516 CURVE SMOOTH",
"391.094 516 OFFCURVE",
"445 458.005 OFFCURVE",
"445 360 CURVE SMOOTH",
"445 190 LINE SMOOTH",
"445 91.48 OFFCURVE",
"391.573 34 OFFCURVE",
"300 34 CURVE SMOOTH"
);
},
{
closed = 1;
nodes = (
"439.571 515 LINE SMOOTH",
"490.829 515 OFFCURVE",
"525 549 OFFCURVE",
"525 600 CURVE SMOOTH",
"525 660 LINE",
"485 660 LINE",
"485 600 LINE SMOOTH",
"485 570 OFFCURVE",
"467 550 OFFCURVE",
"440 550 CURVE SMOOTH",
"355 550 LINE",
"355 515 LINE"
);
}
);
width = 600;
}
);
unicode = 01A1;
},
{
color = 1;
glyphname = oslash;
lastChange = "2020-07-02 14:01:59 +0000";
layers = (
{
components = (
{
alignment = -1;
name = o;
}
);
layerId = "9ADF6715-3D0F-493D-8567-18A6FBCFC567";
paths = (
{
closed = 1;
nodes = (
"140 -30 LINE",
"575 590 LINE",
"460 590 LINE",
"25 -30 LINE"
);
}
);
width = 600;
},
{
components = (
{
alignment = -1;
name = o;
}
);
hints = (
{
place = "{80, 90}";
type = Stem;
},
{
place = "{430, 90}";
type = Stem;
},
{
horizontal = 1;
place = "{-10, 80}";
type = Stem;
},
{
horizontal = 1;
place = "{480, 80}";
type = Stem;
}
);
layerId = "CCC0BD40-BA8C-414E-B576-CF0B94E6C996";
paths = (
{
closed = 1;
nodes = (
"125 -30 LINE",
"565 590 LINE",
"474 590 LINE",
"35 -30 LINE"
);
}
);
width = 600;
},
{
components = (
{
alignment = -1;
name = o;
}
);
layerId = "EDF5EB54-295C-4C90-9A2F-67CD82979CFF";
paths = (
{
closed = 1;
nodes = (
"108 -30 LINE",
"541 590 LINE",
"492 590 LINE",
"59 -30 LINE"
);
}
);
width = 600;
}
);
note = "Needs to be lighter [R], [B]";
unicode = 00F8;
},
{
color = 1;
glyphname = oe;
lastChange = "2020-06-19 10:37:10 +0000";
layers = (
{
layerId = "9ADF6715-3D0F-493D-8567-18A6FBCFC567";
paths = (
{
closed = 1;
nodes = (
"282 -10 OFFCURVE",
"296 65 OFFCURVE",
"296 65 CURVE",
"304 65 LINE",
"304 65 OFFCURVE",
"315 -10 OFFCURVE",
"420 -10 CURVE SMOOTH",
"507 -10 OFFCURVE",
"565 50 OFFCURVE",
"565 140 CURVE",
"450 140 LINE",
"450 106.495 OFFCURVE",
"433.08 87 OFFCURVE",
"404 87 CURVE SMOOTH",
"374.561 87 OFFCURVE",
"357 106.803 OFFCURVE",
"357 140 CURVE SMOOTH",
"357 250 LINE",
"565 250 LINE",
"565 410 LINE SMOOTH",
"565 500 OFFCURVE",
"507 560 OFFCURVE",
"420 560 CURVE SMOOTH",
"315 560 OFFCURVE",
"304 485 OFFCURVE",
"304 485 CURVE",
"296 485 LINE",
"296 485 OFFCURVE",
"282 560 OFFCURVE",
"180 560 CURVE SMOOTH",
"93 560 OFFCURVE",
"35 500 OFFCURVE",
"35 410 CURVE SMOOTH",
"35 140 LINE SMOOTH",
"35 50 OFFCURVE",
"93 -10 OFFCURVE",
"180 -10 CURVE SMOOTH"
);
},
{
closed = 1;
nodes = (
"167.561 87 OFFCURVE",
"150 106.803 OFFCURVE",
"150 140 CURVE SMOOTH",
"150 410 LINE SMOOTH",
"150 443.212 OFFCURVE",
"167.548 463 OFFCURVE",
"197 463 CURVE SMOOTH",
"226.08 463 OFFCURVE",
"243 443.505 OFFCURVE",
"243 410 CURVE SMOOTH",
"243 140 LINE SMOOTH",
"243 106.49 OFFCURVE",
"226.085 87 OFFCURVE",
"197 87 CURVE SMOOTH"
);
},
{
closed = 1;
nodes = (
"357 410 LINE SMOOTH",
"357 443.286 OFFCURVE",
"374.482 463 OFFCURVE",
"404 463 CURVE SMOOTH",
"433.127 463 OFFCURVE",
"450 443.559 OFFCURVE",
"450 410 CURVE SMOOTH",
"450 330 LINE",
"357 330 LINE"
);
}
);
width = 600;
},
{
hints = (
{
place = "{35, 85}";
type = Stem;
},
{
place = "{257, 86}";
type = Stem;
},
{
place = "{480, 85}";
type = Stem;
},
{
horizontal = 1;
place = "{-10, 77}";
type = Stem;
},
{
horizontal = 1;
place = "{250, 73}";
type = Stem;
},
{
horizontal = 1;
place = "{483, 77}";
type = Stem;
},
{
horizontal = 1;
place = "{-10, 135}";
type = Stem;
}
);
layerId = "CCC0BD40-BA8C-414E-B576-CF0B94E6C996";
paths = (
{
closed = 1;
nodes = (
"290 -10 OFFCURVE",
"298 70 OFFCURVE",
"298 70 CURVE",
"302 70 LINE",
"302 70 OFFCURVE",
"310 -10 OFFCURVE",
"420 -10 CURVE SMOOTH",
"494 -10 OFFCURVE",
"549 42 OFFCURVE",
"562 125 CURVE",
"477 125 LINE",
"471 90 OFFCURVE",
"444 67 OFFCURVE",
"410 67 CURVE SMOOTH",
"369 67 OFFCURVE",
"343 99 OFFCURVE",
"343 150 CURVE SMOOTH",
"343 250 LINE",
"565 250 LINE",
"565 400 LINE SMOOTH",
"565 498 OFFCURVE",
"509 560 OFFCURVE",
"420 560 CURVE SMOOTH",
"310 560 OFFCURVE",
"302 480 OFFCURVE",
"302 480 CURVE",
"298 480 LINE",
"298 480 OFFCURVE",
"290 560 OFFCURVE",
"180 560 CURVE SMOOTH",
"91 560 OFFCURVE",
"35 498 OFFCURVE",
"35 400 CURVE SMOOTH",
"35 150 LINE SMOOTH",
"35 52 OFFCURVE",
"91 -10 OFFCURVE",
"180 -10 CURVE SMOOTH"
);
},
{
closed = 1;
nodes = (
"147 67 OFFCURVE",
"120 99 OFFCURVE",
"120 150 CURVE SMOOTH",
"120 400 LINE SMOOTH",
"120 451 OFFCURVE",
"147 483 OFFCURVE",
"190 483 CURVE SMOOTH",
"231 483 OFFCURVE",
"257 451 OFFCURVE",
"257 400 CURVE SMOOTH",
"257 150 LINE SMOOTH",
"257 99 OFFCURVE",
"231 67 OFFCURVE",
"190 67 CURVE SMOOTH"
);
},
{
closed = 1;
nodes = (
"343 400 LINE SMOOTH",
"343 451 OFFCURVE",
"369 483 OFFCURVE",
"410 483 CURVE SMOOTH",
"453 483 OFFCURVE",
"480 451 OFFCURVE",
"480 400 CURVE SMOOTH",
"480 323 LINE",
"343 323 LINE"
);
}
);
width = 600;
},
{
layerId = "EDF5EB54-295C-4C90-9A2F-67CD82979CFF";
paths = (
{
closed = 1;
nodes = (
"285 -10 OFFCURVE",
"301 75 OFFCURVE",
"301 75 CURVE",
"304 75 LINE",
"304 75 OFFCURVE",
"321 -10 OFFCURVE",
"426 -10 CURVE SMOOTH",
"507 -10 OFFCURVE",
"564 43 OFFCURVE",
"571 125 CURVE",
"516 125 LINE",
"511 72 OFFCURVE",
"475 40 OFFCURVE",
"423 40 CURVE SMOOTH",
"366 40 OFFCURVE",
"330 79 OFFCURVE",
"330 140 CURVE SMOOTH",
"330 260 LINE",
"565 260 LINE",
"565 410 LINE SMOOTH",
"565 501 OFFCURVE",
"510 560 OFFCURVE",
"423 560 CURVE SMOOTH",
"326 560 OFFCURVE",
"304 474 OFFCURVE",
"304 474 CURVE",
"302 474 LINE",
"302 474 OFFCURVE",
"285 560 OFFCURVE",
"180 560 CURVE SMOOTH",
"92 560 OFFCURVE",
"35 500 OFFCURVE",
"35 408 CURVE SMOOTH",
"35 139 LINE SMOOTH",
"35 48 OFFCURVE",
"89 -10 OFFCURVE",
"174 -10 CURVE SMOOTH"
);
},
{
closed = 1;
nodes = (
"126 40 OFFCURVE",
"90 79 OFFCURVE",
"90 139 CURVE SMOOTH",
"90 408 LINE SMOOTH",
"90 470 OFFCURVE",
"126 510 OFFCURVE",
"183 510 CURVE SMOOTH",
"239 510 OFFCURVE",
"275 471 OFFCURVE",
"275 410 CURVE SMOOTH",
"275 140 LINE SMOOTH",
"275 79 OFFCURVE",
"239 40 OFFCURVE",
"183 40 CURVE SMOOTH"
);
},
{
closed = 1;
nodes = (
"330 410 LINE SMOOTH",
"330 471 OFFCURVE",
"365 510 OFFCURVE",
"420 510 CURVE SMOOTH",
"475 510 OFFCURVE",
"510 471 OFFCURVE",
"510 410 CURVE SMOOTH",
"510 310 LINE",
"330 310 LINE"
);
}
);
width = 600;
}
);
unicode = 0153;
},
{
glyphname = p;
lastChange = "2020-06-26 17:09:46 +0000";
layers = (
{
associatedMasterId = "EDF5EB54-295C-4C90-9A2F-67CD82979CFF";
layerId = "040298CF-5572-47E8-A6B5-8878BEE70FAE";
name = public.background;
paths = (
{
closed = 1;
nodes = (
"228.057 68 OFFCURVE",
"184 117.18 OFFCURVE",
"184 200 CURVE SMOOTH",
"184 350 LINE SMOOTH",
"184 432.82 OFFCURVE",
"228.057 482 OFFCURVE",
"302 482 CURVE SMOOTH",
"377.886 482 OFFCURVE",
"420 434.89 OFFCURVE",
"420 350 CURVE SMOOTH",
"420 200 LINE SMOOTH",
"420 115.11 OFFCURVE",
"377.886 68 OFFCURVE",
"302 68 CURVE SMOOTH"
);
},
{
closed = 1;
nodes = (
"94 -180 LINE",
"184 -180 LINE",
"183.916 -20 LINE",
"182.355 75 LINE",
"217.355 75 LINE",
"189.355 120 LINE",
"188.993 38.383 OFFCURVE",
"242.238 -10 OFFCURVE",
"332.418 -10 CURVE SMOOTH",
"442.828 -10 OFFCURVE",
"510 67.544 OFFCURVE",
"510 195 CURVE SMOOTH",
"510 356 LINE SMOOTH",
"510 481.818 OFFCURVE",
"441.782 560 OFFCURVE",
"332 560 CURVE SMOOTH",
"242.146 560 OFFCURVE",
"189 511.685 OFFCURVE",
"189 430 CURVE",
"217 475 LINE",
"182 475 LINE",
"182 550 LINE",
"94 550 LINE"
);
}
);
width = 600;
},
{
layerId = "9ADF6715-3D0F-493D-8567-18A6FBCFC567";
paths = (
{
closed = 1;
nodes = (
"216 -180 LINE",
"216 -30 LINE",
"211 104.814 LINE",
"245.895 104.814 LINE",
"211 139.814 LINE",
"211 44.924 OFFCURVE",
"265.856 -10 OFFCURVE",
"357.173 -10 CURVE SMOOTH",
"467.633 -10 OFFCURVE",
"540 74.101 OFFCURVE",
"540 205 CURVE SMOOTH",
"540 345 LINE SMOOTH",
"540 476.493 OFFCURVE",
"468.235 559.814 OFFCURVE",
"357.173 559.814 CURVE SMOOTH",
"265.856 559.814 OFFCURVE",
"211 504.89 OFFCURVE",
"211 410 CURVE",
"245.895 445 LINE",
"211 445 LINE",
"211 550 LINE",
"66 550 LINE",
"66 -180 LINE"
);
},
{
closed = 1;
nodes = (
"247.554 120 OFFCURVE",
"216 152.642 OFFCURVE",
"216 210 CURVE SMOOTH",
"216 340 LINE SMOOTH",
"216 397.358 OFFCURVE",
"247.554 430 OFFCURVE",
"303 430 CURVE SMOOTH",
"358.933 430 OFFCURVE",
"390 397.862 OFFCURVE",
"390 340 CURVE SMOOTH",
"390 210 LINE SMOOTH",
"390 152.404 OFFCURVE",
"358.677 120 OFFCURVE",
"303 120 CURVE SMOOTH"
);
}
);
width = 600;
},
{
layerId = "CCC0BD40-BA8C-414E-B576-CF0B94E6C996";
paths = (
{
closed = 1;
nodes = (
"182 -180 LINE",
"182 -20 LINE",
"180 105 LINE",
"200 105 LINE",
"182 126 LINE",
"182 43 OFFCURVE",
"243 -10 OFFCURVE",
"333 -10 CURVE SMOOTH",
"444 -10 OFFCURVE",
"512 68 OFFCURVE",
"512 195 CURVE SMOOTH",
"512 356 LINE SMOOTH",
"512 482 OFFCURVE",
"443 560 OFFCURVE",
"333 560 CURVE SMOOTH",
"242 560 OFFCURVE",
"182 508 OFFCURVE",
"182 424 CURVE",
"200 445 LINE",
"182 445 LINE",
"182 550 LINE",
"92 550 LINE",
"92 -180 LINE"
);
},
{
closed = 1;
nodes = (
"229 68 OFFCURVE",
"182 117 OFFCURVE",
"182 200 CURVE SMOOTH",
"182 350 LINE SMOOTH",
"182 433 OFFCURVE",
"229 482 OFFCURVE",
"303 482 CURVE SMOOTH",
"379 482 OFFCURVE",
"422 435 OFFCURVE",
"422 350 CURVE SMOOTH",
"422 200 LINE SMOOTH",
"422 115 OFFCURVE",
"379 68 OFFCURVE",
"303 68 CURVE SMOOTH"
);
}
);
width = 600;
},
{
layerId = "EDF5EB54-295C-4C90-9A2F-67CD82979CFF";
paths = (
{
closed = 1;
nodes = (
"160 -180 LINE",
"160 0.084 LINE",
"160 75 LINE",
"178.186 75 LINE",
"150 140 LINE",
"150 49.628 OFFCURVE",
"215.882 -10 OFFCURVE",
"313 -10 CURVE SMOOTH",
"422.406 -10 OFFCURVE",
"495 69.774 OFFCURVE",
"495 190 CURVE SMOOTH",
"495 361 LINE SMOOTH",
"495 481.235 OFFCURVE",
"422.899 560 OFFCURVE",
"312.837 560 CURVE SMOOTH",
"214.571 560 OFFCURVE",
"149.998 500.447 OFFCURVE",
"150.125 409.937 CURVE",
"187.923 475 LINE",
"160 475 LINE",
"160 550 LINE",
"110 550 LINE",
"110 -180 LINE"
);
},
{
closed = 1;
nodes = (
"212.934 33 OFFCURVE",
"160 91.1 OFFCURVE",
"160 190 CURVE SMOOTH",
"160 361 LINE SMOOTH",
"160 459.018 OFFCURVE",
"212.97 517 OFFCURVE",
"302.515 517 CURVE SMOOTH",
"391.632 517 OFFCURVE",
"445 458.57 OFFCURVE",
"445 361 CURVE SMOOTH",
"445 190 LINE SMOOTH",
"445 90.718 OFFCURVE",
"391.907 33 OFFCURVE",
"303.04 33 CURVE SMOOTH"
);
}
);
width = 600;
}
);
unicode = 0070;
},
{
glyphname = thorn;
lastChange = "2020-07-02 13:35:56 +0000";
layers = (
{
components = (
{
alignment = -1;
name = b;
}
);
layerId = "9ADF6715-3D0F-493D-8567-18A6FBCFC567";
paths = (
{
closed = 1;
nodes = (
"211 -170 LINE",
"211 50 LINE",
"66 50 LINE",
"66 -170 LINE"
);
}
);
width = 600;
},
{
components = (
{
alignment = -1;
name = b;
transform = "{1, 0, 0, 1, -5, 0}";
}
);
hints = (
{
place = "{83, 90}";
type = Stem;
},
{
place = "{148, 25}";
type = Stem;
},
{
place = "{425, 90}";
type = Stem;
},
{
horizontal = 1;
place = "{-10, 78}";
type = Stem;
},
{
horizontal = 1;
place = "{482, 78}";
type = Stem;
},
{
horizontal = 1;
place = "{730, -20}";
target = down;
type = TopGhost;
}
);
layerId = "CCC0BD40-BA8C-414E-B576-CF0B94E6C996";
paths = (
{
closed = 1;
nodes = (
"177 -170 LINE",
"177 59 LINE",
"87 59 LINE",
"87 -170 LINE"
);
}
);
width = 600;
},
{
components = (
{
alignment = -1;
name = b;
}
);
layerId = "EDF5EB54-295C-4C90-9A2F-67CD82979CFF";
paths = (
{
closed = 1;
nodes = (
"160 -180 LINE",
"160 59 LINE",
"110 59 LINE",
"110 -180 LINE"
);
}
);
width = 600;
}
);
unicode = 00FE;
},
{
glyphname = q;
lastChange = "2020-06-26 17:18:41 +0000";
layers = (
{
layerId = "9ADF6715-3D0F-493D-8567-18A6FBCFC567";
paths = (
{
closed = 1;
nodes = (
"534 -180 LINE",
"534 550 LINE",
"389 550 LINE",
"389 445 LINE",
"354.105 445 LINE",
"387 410 LINE",
"387 505 OFFCURVE",
"334 560 OFFCURVE",
"242.827 559.814 CURVE SMOOTH",
"132 560 OFFCURVE",
"60 476.493 OFFCURVE",
"60 345 CURVE SMOOTH",
"60 205 LINE SMOOTH",
"60 74.101 OFFCURVE",
"132 -10 OFFCURVE",
"242.827 -10 CURVE SMOOTH",
"334 -10 OFFCURVE",
"387 45 OFFCURVE",
"387 140 CURVE",
"354.105 104.814 LINE",
"389 104.814 LINE",
"384 -30 LINE",
"384 -180 LINE"
);
},
{
closed = 1;
nodes = (
"241.323 120 OFFCURVE",
"210 152.404 OFFCURVE",
"210 210 CURVE SMOOTH",
"210 340 LINE SMOOTH",
"210 397.862 OFFCURVE",
"241.067 430 OFFCURVE",
"297 430 CURVE SMOOTH",
"352.446 430 OFFCURVE",
"384 397.358 OFFCURVE",
"384 340 CURVE SMOOTH",
"384 210 LINE SMOOTH",
"384 152.642 OFFCURVE",
"352.446 120 OFFCURVE",
"297 120 CURVE SMOOTH"
);
}
);
width = 600;
},
{
hints = (
{
place = "{88, 90}";
type = Stem;
},
{
place = "{430, 25}";
type = Stem;
},
{
place = "{430, 90}";
type = Stem;
},
{
horizontal = 1;
place = "{-10, 78}";
type = Stem;
},
{
horizontal = 1;
place = "{482, 78}";
type = Stem;
},
{
horizontal = 1;
place = "{-170, 21}";
target = up;
type = BottomGhost;
}
);
layerId = "CCC0BD40-BA8C-414E-B576-CF0B94E6C996";
paths = (
{
closed = 1;
nodes = (
"508 -180 LINE",
"508 550 LINE",
"418 550 LINE",
"418 445 LINE",
"400 445 LINE",
"418 424 LINE",
"418 508 OFFCURVE",
"359.36 560 OFFCURVE",
"268 560 CURVE SMOOTH",
"158.218 560 OFFCURVE",
"88 482 OFFCURVE",
"88 356 CURVE SMOOTH",
"88 195 LINE SMOOTH",
"88 68 OFFCURVE",
"157.172 -10 OFFCURVE",
"267.582 -10 CURVE SMOOTH",
"358.456 -10 OFFCURVE",
"418 43 OFFCURVE",
"418 126 CURVE",
"400 105 LINE",
"420 105 LINE",
"418 -20 LINE",
"418 -180 LINE"
);
},
{
closed = 1;
nodes = (
"222.114 68 OFFCURVE",
"178 115 OFFCURVE",
"178 200 CURVE SMOOTH",
"178 350 LINE SMOOTH",
"178 435 OFFCURVE",
"222.114 482 OFFCURVE",
"298 482 CURVE SMOOTH",
"371.943 482 OFFCURVE",
"418 433 OFFCURVE",
"418 350 CURVE SMOOTH",
"418 200 LINE SMOOTH",
"418 117 OFFCURVE",
"371.943 68 OFFCURVE",
"298 68 CURVE SMOOTH"
);
}
);
width = 600;
},
{
layerId = "EDF5EB54-295C-4C90-9A2F-67CD82979CFF";
paths = (
{
closed = 1;
nodes = (
"490 -180 LINE",
"490 550 LINE",
"440 550 LINE",
"440 475 LINE",
"412.077 475 LINE",
"449.875 409.937 LINE",
"450.002 500.678 OFFCURVE",
"382.656 560 OFFCURVE",
"287.163 560 CURVE SMOOTH",
"177.101 560 OFFCURVE",
"105 481.235 OFFCURVE",
"105 361 CURVE SMOOTH",
"105 190 LINE SMOOTH",
"105 70.274 OFFCURVE",
"177.139 -10 OFFCURVE",
"287 -10 CURVE SMOOTH",
"382.605 -10 OFFCURVE",
"450 49.236 OFFCURVE",
"450 140 CURVE",
"421.814 75 LINE",
"440 75 LINE",
"440 -30 LINE",
"440 -180 LINE"
);
},
{
closed = 1;
nodes = (
"207.781 33 OFFCURVE",
"155 92.063 OFFCURVE",
"155 190 CURVE SMOOTH",
"155 361 LINE SMOOTH",
"155 458.57 OFFCURVE",
"208.368 517 OFFCURVE",
"297.485 517 CURVE SMOOTH",
"387.03 517 OFFCURVE",
"440 459.018 OFFCURVE",
"440 361 CURVE SMOOTH",
"440 190 LINE SMOOTH",
"440 92.463 OFFCURVE",
"388.309 33 OFFCURVE",
"296.96 33 CURVE SMOOTH"
);
}
);
width = 600;
}
);
unicode = 0071;
},
{
glyphname = r;
lastChange = "2020-06-26 17:11:48 +0000";
layers = (
{
associatedMasterId = "EDF5EB54-295C-4C90-9A2F-67CD82979CFF";
layerId = "040298CF-5572-47E8-A6B5-8878BEE70FAE";
name = public.background;
paths = (
{
closed = 1;
nodes = (
"459.755 560 OFFCURVE",
"535 481.6 OFFCURVE",
"535 364 CURVE SMOOTH",
"535 318 LINE",
"445 318 LINE",
"445 356 LINE SMOOTH",
"445 438.763 OFFCURVE",
"402.944 484 OFFCURVE",
"326 484 CURVE SMOOTH",
"246.41 484 OFFCURVE",
"202 436.009 OFFCURVE",
"202 350 CURVE SMOOTH",
"202 0 LINE",
"112 0 LINE",
"112 550 LINE",
"197 550 LINE",
"192 475 LINE",
"236 475 LINE",
"201 430 LINE",
"201 508.155 OFFCURVE",
"258.661 560 OFFCURVE",
"347.091 560 CURVE SMOOTH"
);
}
);
width = 600;
},
{
layerId = "9ADF6715-3D0F-493D-8567-18A6FBCFC567";
paths = (
{
closed = 1;
nodes = (
"232 0 LINE",
"232 340 LINE SMOOTH",
"232 399.84 OFFCURVE",
"263.253 435 OFFCURVE",
"319.56 435 CURVE SMOOTH",
"375.189 435 OFFCURVE",
"410 399.819 OFFCURVE",
"410 340 CURVE SMOOTH",
"410 305 LINE",
"570 305 LINE",
"570 350 LINE SMOOTH",
"570 483.315 OFFCURVE",
"498.91 560 OFFCURVE",
"377.655 560 CURVE SMOOTH",
"273.498 560 OFFCURVE",
"217 499.393 OFFCURVE",
"217 381 CURVE",
"259.676 445 LINE",
"222 445 LINE",
"222 550 LINE",
"82 550 LINE",
"82 0 LINE"
);
}
);
width = 600;
},
{
hints = (
{
place = "{112, 90}";
type = Stem;
},
{
place = "{456, 90}";
type = Stem;
},
{
horizontal = 1;
place = "{325, 235}";
type = Stem;
},
{
horizontal = 1;
place = "{481, 79}";
type = Stem;
},
{
horizontal = 1;
place = "{0, 21}";
target = up;
type = BottomGhost;
}
);
layerId = "CCC0BD40-BA8C-414E-B576-CF0B94E6C996";
paths = (
{
closed = 1;
nodes = (
"201 0 LINE",
"201 350 LINE SMOOTH",
"201 435 OFFCURVE",
"247.111 484 OFFCURVE",
"323.227 484 CURVE SMOOTH",
"399.905 484 OFFCURVE",
"444 436 OFFCURVE",
"444 350 CURVE SMOOTH",
"444 325 LINE",
"534 325 LINE",
"534 358 LINE SMOOTH",
"534 482 OFFCURVE",
"460.005 560 OFFCURVE",
"343.827 560 CURVE SMOOTH",
"243.336 560 OFFCURVE",
"191 499 OFFCURVE",
"191 380 CURVE",
"220 445 LINE",
"199 445 LINE",
"199 550 LINE",
"111 550 LINE",
"111 0 LINE"
);
}
);
width = 600;
},
{
layerId = "EDF5EB54-295C-4C90-9A2F-67CD82979CFF";
paths = (
{
closed = 1;
nodes = (
"177 0 LINE",
"177 360 LINE SMOOTH",
"177 459.466 OFFCURVE",
"230.205 517 OFFCURVE",
"319.706 517 CURVE SMOOTH",
"409.681 517 OFFCURVE",
"463 458.581 OFFCURVE",
"463 360 CURVE SMOOTH",
"463 330 LINE",
"518 330 LINE",
"518 360 LINE SMOOTH",
"518 483.107 OFFCURVE",
"444.604 560 OFFCURVE",
"328 560 CURVE SMOOTH",
"229.02 560 OFFCURVE",
"170 504.046 OFFCURVE",
"170 410 CURVE",
"199.117 475 LINE",
"177 475 LINE",
"177 550 LINE",
"127 550 LINE",
"127 0 LINE"
);
}
);
width = 600;
}
);
unicode = 0072;
},
{
glyphname = s;
lastChange = "2020-06-19 09:35:28 +0000";
layers = (
{
associatedMasterId = "EDF5EB54-295C-4C90-9A2F-67CD82979CFF";
layerId = "040298CF-5572-47E8-A6B5-8878BEE70FAE";
name = public.background;
paths = (
{
closed = 1;
nodes = (
"277 -10 LINE SMOOTH",
"164 -10 OFFCURVE",
"94 47 OFFCURVE",
"84 135 CURVE",
"174 135 LINE",
"182 96 OFFCURVE",
"218 70 OFFCURVE",
"277 70 CURVE SMOOTH",
"321 70 LINE SMOOTH",
"392 70 OFFCURVE",
"426 103 OFFCURVE",
"426 151 CURVE SMOOTH",
"426 198 OFFCURVE",
"393.943 224.624 OFFCURVE",
"333 234 CURVE SMOOTH",
"255 246 LINE SMOOTH",
"147.091 262.601 OFFCURVE",
"95 310 OFFCURVE",
"95 403 CURVE SMOOTH",
"95 501 OFFCURVE",
"158 560 OFFCURVE",
"283 560 CURVE SMOOTH",
"328 560 LINE SMOOTH",
"433 560 OFFCURVE",
"500 505 OFFCURVE",
"513 421 CURVE",
"423 421 LINE",
"415 456 OFFCURVE",
"382 480 OFFCURVE",
"328 480 CURVE SMOOTH",
"283 480 LINE SMOOTH",
"215 480 OFFCURVE",
"185 452 OFFCURVE",
"185 402 CURVE SMOOTH",
"185 357 OFFCURVE",
"210.132 337.903 OFFCURVE",
"268 329 CURVE SMOOTH",
"346 317 LINE SMOOTH",
"463.832 298.872 OFFCURVE",
"516 251 OFFCURVE",
"516 155 CURVE SMOOTH",
"516 53 OFFCURVE",
"451 -10 OFFCURVE",
"321 -10 CURVE SMOOTH"
);
}
);
width = 600;
},
{
layerId = "9ADF6715-3D0F-493D-8567-18A6FBCFC567";
paths = (
{
closed = 1;
nodes = (
"321 -10 LINE SMOOTH",
"471 -10 OFFCURVE",
"550 52 OFFCURVE",
"550 164 CURVE SMOOTH",
"550 267 OFFCURVE",
"483.743 313.903 OFFCURVE",
"345 332 CURVE SMOOTH",
"276 341 LINE SMOOTH",
"230.118 346.985 OFFCURVE",
"211 362 OFFCURVE",
"211 393 CURVE SMOOTH",
"211 426 OFFCURVE",
"232 443 OFFCURVE",
"282 443 CURVE SMOOTH",
"320 443 LINE SMOOTH",
"362.989 443 OFFCURVE",
"391 425.246 OFFCURVE",
"391 398 CURVE",
"541 398 LINE",
"541 496.145 OFFCURVE",
"453.89 560 OFFCURVE",
"320 560 CURVE SMOOTH",
"282 560 LINE SMOOTH",
"141 560 OFFCURVE",
"66 499 OFFCURVE",
"66 392 CURVE SMOOTH",
"66 290 OFFCURVE",
"126.246 246.094 OFFCURVE",
"263 229 CURVE SMOOTH",
"327 221 LINE SMOOTH",
"379.927 214.384 OFFCURVE",
"405 197 OFFCURVE",
"405 164 CURVE SMOOTH",
"405 128 OFFCURVE",
"376 107 OFFCURVE",
"321 107 CURVE SMOOTH",
"277 107 LINE SMOOTH",
"230.8 107 OFFCURVE",
"200 128.2 OFFCURVE",
"200 160 CURVE",
"50 160 LINE",
"50 58 OFFCURVE",
"140.8 -10 OFFCURVE",
"277 -10 CURVE SMOOTH"
);
}
);
width = 600;
},
{
hints = (
{
place = "{91, 91}";
type = Stem;
},
{
place = "{427, 91}";
type = Stem;
},
{
horizontal = 1;
place = "{-10, 80}";
type = Stem;
},
{
horizontal = 1;
place = "{480, 80}";
type = Stem;
}
);
layerId = "CCC0BD40-BA8C-414E-B576-CF0B94E6C996";
paths = (
{
closed = 1;
nodes = (
"320 -10 LINE SMOOTH",
"450 -10 OFFCURVE",
"515 53 OFFCURVE",
"515 155 CURVE SMOOTH",
"515 251 OFFCURVE",
"462.681 297.917 OFFCURVE",
"345 317 CURVE SMOOTH",
"271 329 LINE SMOOTH",
"213.206 338.372 OFFCURVE",
"188 357 OFFCURVE",
"188 402 CURVE SMOOTH",
"188 452 OFFCURVE",
"218 480 OFFCURVE",
"286 480 CURVE SMOOTH",
"324 480 LINE SMOOTH",
"378 480 OFFCURVE",
"411 456 OFFCURVE",
"419 421 CURVE",
"509 421 LINE",
"496 505 OFFCURVE",
"429 560 OFFCURVE",
"324 560 CURVE SMOOTH",
"286 560 LINE SMOOTH",
"161 560 OFFCURVE",
"98 501 OFFCURVE",
"98 403 CURVE SMOOTH",
"98 310 OFFCURVE",
"150.229 263.476 OFFCURVE",
"258 246 CURVE SMOOTH",
"332 234 LINE SMOOTH",
"392.865 224.13 OFFCURVE",
"425 198 OFFCURVE",
"425 151 CURVE SMOOTH",
"425 103 OFFCURVE",
"391 70 OFFCURVE",
"320 70 CURVE SMOOTH",
"278 70 LINE SMOOTH",
"219 70 OFFCURVE",
"183 96 OFFCURVE",
"175 135 CURVE",
"85 135 LINE",
"95 47 OFFCURVE",
"165 -10 OFFCURVE",
"278 -10 CURVE SMOOTH"
);
}
);
width = 600;
},
{
layerId = "EDF5EB54-295C-4C90-9A2F-67CD82979CFF";
paths = (
{
closed = 1;
nodes = (
"339 -10 LINE SMOOTH",
"440.978 -10 OFFCURVE",
"507 51.699 OFFCURVE",
"507 147 CURVE SMOOTH",
"507 227.967 OFFCURVE",
"452.984 286.002 OFFCURVE",
"369 298 CURVE SMOOTH",
"264 313 LINE SMOOTH",
"195.992 322.715 OFFCURVE",
"159 356.743 OFFCURVE",
"159 412 CURVE SMOOTH",
"159 475.153 OFFCURVE",
"206.584 515 OFFCURVE",
"282 515 CURVE SMOOTH",
"324 515 LINE SMOOTH",
"394.34 515 OFFCURVE",
"443.392 477.17 OFFCURVE",
"451 425 CURVE",
"501 425 LINE",
"490.895 505.839 OFFCURVE",
"423.961 560 OFFCURVE",
"324 560 CURVE SMOOTH",
"282 560 LINE SMOOTH",
"176.16 560 OFFCURVE",
"108 502.157 OFFCURVE",
"108 411 CURVE SMOOTH",
"108 329.029 OFFCURVE",
"161.99 277.179 OFFCURVE",
"256 264 CURVE SMOOTH",
"363 249 LINE SMOOTH",
"420.515 240.937 OFFCURVE",
"458 197.438 OFFCURVE",
"458 140 CURVE SMOOTH",
"458 75.818 OFFCURVE",
"411.684 35 OFFCURVE",
"339 35 CURVE SMOOTH",
"272 35 LINE SMOOTH",
"203.167 35 OFFCURVE",
"152.631 77.217 OFFCURVE",
"143 135 CURVE",
"93 135 LINE",
"102.139 49.698 OFFCURVE",
"172.075 -10 OFFCURVE",
"272 -10 CURVE SMOOTH"
);
}
);
width = 600;
}
);
unicode = 0073;
},
{
glyphname = germandbls;
lastChange = "2020-06-29 09:31:46 +0000";
layers = (
{
associatedMasterId = "EDF5EB54-295C-4C90-9A2F-67CD82979CFF";
layerId = "040298CF-5572-47E8-A6B5-8878BEE70FAE";
name = public.background;
paths = (
{
closed = 1;
nodes = (
"80 0 LINE",
"215 0 LINE",
"215 516 LINE SMOOTH",
"215 574.288 OFFCURVE",
"252.293 605 OFFCURVE",
"305 605 CURVE SMOOTH",
"361.264 605 OFFCURVE",
"396 571.846 OFFCURVE",
"396 517 CURVE SMOOTH",
"396 462.203 OFFCURVE",
"361.327 428 OFFCURVE",
"305 428 CURVE SMOOTH",
"260 428 LINE",
"260 318 LINE",
"307 318 LINE SMOOTH",
"370.151 318 OFFCURVE",
"409 281.06 OFFCURVE",
"409 221 CURVE SMOOTH",
"409 161.22 OFFCURVE",
"370.513 125 OFFCURVE",
"307 125 CURVE SMOOTH",
"260 125 LINE",
"260 0 LINE",
"312 0 LINE SMOOTH",
"460.8 0 OFFCURVE",
"560 83.6 OFFCURVE",
"560 209 CURVE SMOOTH",
"560 299.764 OFFCURVE",
"498.4 364.164 OFFCURVE",
"406 370 CURVE",
"406 381 LINE",
"490.6 388.691 OFFCURVE",
"547 450.691 OFFCURVE",
"547 536 CURVE SMOOTH",
"547 652.4 OFFCURVE",
"450.6 730 OFFCURVE",
"306 730 CURVE SMOOTH",
"170.4 730 OFFCURVE",
"80 644.4 OFFCURVE",
"80 516 CURVE SMOOTH"
);
}
);
width = 600;
},
{
layerId = "9ADF6715-3D0F-493D-8567-18A6FBCFC567";
paths = (
{
closed = 1;
nodes = (
"195 0 LINE",
"195 516 LINE SMOOTH",
"195 577 OFFCURVE",
"234 615 OFFCURVE",
"295 615 CURVE SMOOTH",
"357 615 OFFCURVE",
"396 577 OFFCURVE",
"396 517 CURVE SMOOTH",
"396 462 OFFCURVE",
"361 428 OFFCURVE",
"305 428 CURVE SMOOTH",
"260 428 LINE",
"260 318 LINE",
"307 318 LINE SMOOTH",
"370.151 318 OFFCURVE",
"409 281.06 OFFCURVE",
"409 221 CURVE SMOOTH",
"409 161.22 OFFCURVE",
"370.513 125 OFFCURVE",
"307 125 CURVE SMOOTH",
"260 125 LINE",
"260 0 LINE",
"312 0 LINE SMOOTH",
"460.8 0 OFFCURVE",
"560 83.6 OFFCURVE",
"560 209 CURVE SMOOTH",
"560 322.049 OFFCURVE",
"475.335 397.038 OFFCURVE",
"350 395 CURVE",
"350 380 LINE",
"474.839 380 OFFCURVE",
"547 440.44 OFFCURVE",
"547 545 CURVE SMOOTH",
"547 662 OFFCURVE",
"447 740 OFFCURVE",
"296 740 CURVE SMOOTH",
"154 740 OFFCURVE",
"60 650 OFFCURVE",
"60 516 CURVE SMOOTH",
"60 0 LINE"
);
}
);
width = 600;
},
{
hints = (
{
place = "{55, 90}";
type = Stem;
},
{
place = "{238, 91}";
type = Stem;
},
{
place = "{418, 90}";
type = Stem;
},
{
place = "{485, 90}";
type = Stem;
},
{
horizontal = 1;
place = "{-10, 80}";
type = Stem;
},
{
horizontal = 1;
place = "{470, 80}";
type = Stem;
},
{
horizontal = 1;
place = "{650, 80}";
type = Stem;
},
{
horizontal = 1;
place = "{-10, 140}";
type = Stem;
}
);
layerId = "CCC0BD40-BA8C-414E-B576-CF0B94E6C996";
paths = (
{
closed = 1;
nodes = (
"182 0 LINE",
"182 534 LINE SMOOTH",
"182 611 OFFCURVE",
"229 658 OFFCURVE",
"303 658 CURVE SMOOTH",
"376 658 OFFCURVE",
"422 613 OFFCURVE",
"422 536 CURVE SMOOTH",
"422 465 OFFCURVE",
"377 413 OFFCURVE",
"303 413 CURVE SMOOTH",
"261 413 LINE",
"261 335 LINE",
"305 335 LINE SMOOTH",
"386 335 OFFCURVE",
"435 288 OFFCURVE",
"435 211 CURVE SMOOTH",
"435 134 OFFCURVE",
"385 82 OFFCURVE",
"305 82 CURVE SMOOTH",
"249 82 LINE",
"249 0 LINE",
"315 0 LINE SMOOTH",
"444 0 OFFCURVE",
"530 86 OFFCURVE",
"530 208 CURVE SMOOTH",
"530 325 OFFCURVE",
"455 400 OFFCURVE",
"340 398 CURVE",
"340 383 LINE",
"447 381 OFFCURVE",
"516 453 OFFCURVE",
"516 554 CURVE SMOOTH",
"516 674 OFFCURVE",
"431 740 OFFCURVE",
"303 740 CURVE SMOOTH",
"175 740 OFFCURVE",
"92 658 OFFCURVE",
"92 534 CURVE SMOOTH",
"92 0 LINE"
);
}
);
width = 600;
},
{
layerId = "EDF5EB54-295C-4C90-9A2F-67CD82979CFF";
paths = (
{
closed = 1;
nodes = (
"160 0 LINE",
"160 543 LINE SMOOTH",
"160 635.45 OFFCURVE",
"216.621 695 OFFCURVE",
"305 695 CURVE SMOOTH",
"396.586 695 OFFCURVE",
"450 636.586 OFFCURVE",
"450 545 CURVE SMOOTH",
"450 456.962 OFFCURVE",
"394.228 397 OFFCURVE",
"305 397 CURVE SMOOTH",
"265 397 LINE",
"265 352 LINE",
"305 352 LINE SMOOTH",
"410.232 352 OFFCURVE",
"465 296.941 OFFCURVE",
"465 200 CURVE SMOOTH",
"465 101.731 OFFCURVE",
"409.607 44.479 OFFCURVE",
"305 45 CURVE SMOOTH",
"242.71 45.31 LINE",
"242.654 0 LINE",
"305 0 LINE SMOOTH",
"437.02 0 OFFCURVE",
"515 80.278 OFFCURVE",
"515 208 CURVE SMOOTH",
"515 313.895 OFFCURVE",
"447.742 380 OFFCURVE",
"340 380 CURVE",
"340 370 LINE",
"434.167 370 OFFCURVE",
"500 444.062 OFFCURVE",
"500 550 CURVE SMOOTH",
"500 665.668 OFFCURVE",
"426.756 740 OFFCURVE",
"305 740 CURVE SMOOTH",
"187.782 740 OFFCURVE",
"110 661.42 OFFCURVE",
"110 543 CURVE SMOOTH",
"110 0 LINE"
);
}
);
width = 600;
},
{
associatedMasterId = "CCC0BD40-BA8C-414E-B576-CF0B94E6C996";
hints = (
{
place = "{55, 90}";
type = Stem;
},
{
place = "{238, 91}";
type = Stem;
},
{
place = "{418, 90}";
type = Stem;
},
{
place = "{485, 90}";
type = Stem;
},
{
horizontal = 1;
place = "{-10, 80}";
type = Stem;
},
{
horizontal = 1;
place = "{470, 80}";
type = Stem;
},
{
horizontal = 1;
place = "{650, 80}";
type = Stem;
},
{
horizontal = 1;
place = "{-10, 140}";
type = Stem;
}
);
layerId = "4CD34196-CAA5-4025-A419-5BEA88064287";
name = "Jun 29 20, 11:48";
paths = (
{
closed = 1;
nodes = (
"185 0 LINE",
"185 534 LINE SMOOTH",
"185 610.897 OFFCURVE",
"230.584 658 OFFCURVE",
"305 658 CURVE SMOOTH",
"378.288 658 OFFCURVE",
"424 612.984 OFFCURVE",
"424 536 CURVE SMOOTH",
"424 464.889 OFFCURVE",
"378.585 413 OFFCURVE",
"305 413 CURVE SMOOTH",
"262 413 LINE",
"262 335 LINE",
"307 335 LINE SMOOTH",
"388.123 335 OFFCURVE",
"437 288.379 OFFCURVE",
"437 211 CURVE SMOOTH",
"437 134.327 OFFCURVE",
"387.383 82 OFFCURVE",
"307 82 CURVE SMOOTH",
"249.539 82 LINE",
"249.539 0 LINE",
"317 0 LINE SMOOTH",
"446 0 OFFCURVE",
"532 86.2 OFFCURVE",
"532 208 CURVE SMOOTH",
"532 324.88 OFFCURVE",
"456.847 400.033 OFFCURVE",
"342 398 CURVE",
"342 383 LINE",
"448.552 380.99 OFFCURVE",
"518 453.308 OFFCURVE",
"518 554 CURVE SMOOTH",
"518 674 OFFCURVE",
"433.258 740 OFFCURVE",
"304.646 740 CURVE SMOOTH",
"178.858 740 OFFCURVE",
"95 657.6 OFFCURVE",
"95 534 CURVE SMOOTH",
"95 0 LINE"
);
}
);
width = 600;
}
);
unicode = 00DF;
},
{
glyphname = longs;
lastChange = "2020-06-19 10:30:00 +0000";
layers = (
{
layerId = "9ADF6715-3D0F-493D-8567-18A6FBCFC567";
paths = (
{
closed = 1;
nodes = (
"285 0 LINE",
"285 525 LINE SMOOTH",
"285 570 OFFCURVE",
"315 600 OFFCURVE",
"360 600 CURVE SMOOTH",
"535 600 LINE",
"535 730 LINE",
"350 730 LINE SMOOTH",
"219 730 OFFCURVE",
"135 650 OFFCURVE",
"135 525 CURVE SMOOTH",
"135 0 LINE"
);
}
);
width = 600;
},
{
hints = (
{
place = "{165, 90}";
type = Stem;
},
{
horizontal = 1;
place = "{640, 80}";
type = Stem;
},
{
horizontal = 1;
place = "{0, 21}";
target = up;
type = BottomGhost;
}
);
layerId = "CCC0BD40-BA8C-414E-B576-CF0B94E6C996";
paths = (
{
closed = 1;
nodes = (
"255 0 LINE",
"255 570 LINE SMOOTH",
"255 618 OFFCURVE",
"287 650 OFFCURVE",
"334 650 CURVE SMOOTH",
"510 650 LINE",
"510 730 LINE",
"334 730 LINE SMOOTH",
"233 730 OFFCURVE",
"165 666 OFFCURVE",
"165 571 CURVE SMOOTH",
"165 0 LINE"
);
}
);
width = 600;
},
{
layerId = "EDF5EB54-295C-4C90-9A2F-67CD82979CFF";
paths = (
{
closed = 1;
nodes = (
"230 0 LINE",
"230 595 LINE SMOOTH",
"230 647.5 OFFCURVE",
"265.417 685 OFFCURVE",
"315 685 CURVE SMOOTH",
"495 685 LINE",
"495 730 LINE",
"316 730 LINE SMOOTH",
"232.7 730 OFFCURVE",
"180 677.688 OFFCURVE",
"180 595 CURVE SMOOTH",
"180 0 LINE"
);
}
);
width = 600;
}
);
unicode = 017F;
},
{
glyphname = t;
lastChange = "2020-06-19 10:30:00 +0000";
layers = (
{
hints = (
{
place = "{180, 150}";
type = Stem;
},
{
horizontal = 1;
place = "{0, 135}";
type = Stem;
},
{
horizontal = 1;
place = "{415, 135}";
type = Stem;
},
{
horizontal = 1;
place = "{700, -20}";
target = down;
type = TopGhost;
}
);
layerId = "9ADF6715-3D0F-493D-8567-18A6FBCFC567";
paths = (
{
closed = 1;
nodes = (
"525 0 LINE",
"525 135 LINE",
"375 135 LINE SMOOTH",
"345.948 135 OFFCURVE",
"330 151.031 OFFCURVE",
"330 180 CURVE SMOOTH",
"330 415 LINE",
"535 415 LINE",
"535 550 LINE",
"330 550 LINE",
"330 700 LINE",
"180 700 LINE",
"180 550 LINE",
"35 550 LINE",
"35 415 LINE",
"180 415 LINE",
"180 180 LINE SMOOTH",
"180 67.8 OFFCURVE",
"247.8 0 OFFCURVE",
"360 0 CURVE SMOOTH"
);
}
);
width = 600;
},
{
hints = (
{
place = "{220, 90}";
type = Stem;
},
{
horizontal = 1;
place = "{0, 82}";
type = Stem;
},
{
horizontal = 1;
place = "{468, 82}";
type = Stem;
},
{
horizontal = 1;
place = "{720, -20}";
target = down;
type = TopGhost;
}
);
layerId = "CCC0BD40-BA8C-414E-B576-CF0B94E6C996";
paths = (
{
closed = 1;
nodes = (
"510 0 LINE",
"510 82 LINE",
"360 82 LINE SMOOTH",
"318.593 82 OFFCURVE",
"300 101.682 OFFCURVE",
"300 145 CURVE SMOOTH",
"300 468 LINE",
"520 468 LINE",
"520 550 LINE",
"300 550 LINE",
"300 700 LINE",
"210 700 LINE",
"210 550 LINE",
"55 550 LINE",
"55 468 LINE",
"210 468 LINE",
"210 145 LINE SMOOTH",
"210 52.514 OFFCURVE",
"265.432 0 OFFCURVE",
"360 0 CURVE SMOOTH"
);
}
);
width = 600;
},
{
layerId = "EDF5EB54-295C-4C90-9A2F-67CD82979CFF";
paths = (
{
closed = 1;
nodes = (
"495 0 LINE",
"495 45 LINE",
"360 45 LINE SMOOTH",
"307.8 45 OFFCURVE",
"280 72.8 OFFCURVE",
"280 125 CURVE SMOOTH",
"280 505 LINE",
"505 505 LINE",
"505 550 LINE",
"280 550 LINE",
"280 700 LINE",
"230 700 LINE",
"230 550 LINE",
"70 550 LINE",
"70 505 LINE",
"230 505 LINE",
"230 125 LINE SMOOTH",
"230 44.333 OFFCURVE",
"276.106 0 OFFCURVE",
"360 0 CURVE SMOOTH"
);
}
);
width = 600;
}
);
unicode = 0074;
},
{
glyphname = tbar;
lastChange = "2020-07-02 13:33:11 +0000";
layers = (
{
components = (
{
alignment = -1;
name = t;
}
);
guideLines = (
{
angle = 90;
position = "{35, 329}";
}
);
layerId = "9ADF6715-3D0F-493D-8567-18A6FBCFC567";
paths = (
{
closed = 1;
nodes = (
"490 220 LINE",
"490 335 LINE",
"70 335 LINE",
"70 220 LINE"
);
}
);
width = 600;
},
{
components = (
{
alignment = -1;
name = t;
}
);
guideLines = (
{
angle = 90;
position = "{55, 0}";
}
);
hints = (
{
horizontal = 1;
place = "{330, -20}";
target = down;
type = TopGhost;
},
{
horizontal = 1;
place = "{255, 21}";
target = up;
type = BottomGhost;
}
);
layerId = "CCC0BD40-BA8C-414E-B576-CF0B94E6C996";
paths = (
{
closed = 1;
nodes = (
"475 239 LINE",
"475 314 LINE",
"85 314 LINE",
"85 239 LINE"
);
}
);
width = 600;
},
{
components = (
{
alignment = -1;
name = t;
}
);
layerId = "EDF5EB54-295C-4C90-9A2F-67CD82979CFF";
paths = (
{
closed = 1;
nodes = (
"465 261 LINE",
"465 304 LINE",
"94 304 LINE",
"94 261 LINE"
);
}
);
width = 600;
}
);
unicode = 0167;
},
